<?xml version="1.0" encoding="utf-8"?>
<!-- Generator: Adobe Illustrator 26.0.1, SVG Export Plug-In . SVG Version: 6.00 Build 0)  -->
<svg version="1.1" xmlns="http://www.w3.org/2000/svg" xmlns:xlink="http://www.w3.org/1999/xlink" x="0px" y="0px"
	 viewBox="0 0 576 360" style="enable-background:new 0 0 576 360;" xml:space="preserve">
<style type="text/css">
	.st0{fill:#FFBC00;}
	.st1{fill:#42BEC1;}
	.st2{fill:url(#SVGID_1_);}
	.st3{fill:url(#SVGID_00000111181653925173807190000006592835296094176150_);}
	.st4{fill:url(#SVGID_00000161598484997123205250000016456071274294623163_);}
	.st5{fill:url(#SVGID_00000182497784254051312460000017597402079073090462_);}
	.st6{fill:url(#SVGID_00000099659174584305956800000014610846171765647255_);}
	.st7{fill:url(#SVGID_00000080174779611260589320000013911251506407902906_);}
	.st8{fill:url(#SVGID_00000028305119004918025740000014036509581484284042_);}
	.st9{fill:url(#SVGID_00000123433014635748905100000015968238673997664904_);}
	.st10{fill:url(#SVGID_00000039097762577821035320000006935148372340260789_);}
	.st11{fill:url(#SVGID_00000161613438257780880910000001036372989306338983_);}
	.st12{fill:url(#SVGID_00000177444588101714262740000006525068467935957661_);}
	.st13{fill:url(#SVGID_00000181082395575926673850000007074797849975234735_);}
	.st14{fill:url(#SVGID_00000044154958078677143250000002284667807825953427_);}
	.st15{fill:url(#SVGID_00000001631469555710498780000002171991180067378313_);}
	.st16{fill:url(#SVGID_00000119797348410538310150000006804419727043839675_);}
	.st17{fill:url(#SVGID_00000062168119740467226300000012433768241076958372_);}
	.st18{fill:url(#SVGID_00000052824410048643649470000010356420149814983299_);}
</style>
<g id="Layer_3">
	<g>
		<path class="st0" d="M84.93,210.04c0.03-0.1,3.07-10.41,4.37-16.15c0.98-4.37,2.48-11.96,3.15-15.42l-10.72,0.14l0.57-12.96
			l34.27-0.32l-1.33,12.95l-9.76,0.15c-0.49,2.64-1.72,9.16-3.16,15.4c-2.34,10.08-4.78,16.6-4.89,16.87l-0.35,0.94l-12.73,0.39
			L84.93,210.04z"/>
		<path class="st1" d="M114.9,166.85l-1.02,9.95l-9.66,0.15c0,0-1.49,8.45-3.37,16.54c-2.34,10.1-4.83,16.68-4.83,16.68l-9.66,0.29
			c0,0,3.07-10.39,4.39-16.24c1.32-5.85,3.51-17.27,3.51-17.27l-10.98,0.15l0.44-9.95L114.9,166.85 M118.23,163.82l-3.36,0.03
			l-31.17,0.29l-2.84,0.03l-0.13,2.84l-0.44,9.95l-0.14,3.17l3.18-0.04l7.29-0.1c-0.75,3.84-1.96,9.86-2.79,13.56
			c-1.28,5.69-4.31,15.95-4.34,16.05l-1.18,3.98l4.14-0.13l9.66-0.29l2.01-0.06l0.71-1.88c0.1-0.28,2.59-6.89,4.95-17.07
			c1.27-5.46,2.37-11.12,2.95-14.25l7.2-0.11l2.67-0.04l0.27-2.65l1.02-9.95L118.23,163.82L118.23,163.82z"/>
	</g>
	<g>
		<path class="st0" d="M120.46,209.33c-1.6,0-2.98-0.66-3.98-1.91c-1.64-2.04-1.89-5.18-1.43-7.23c0.22-1.01,0.6-2.52,1.02-4.25
			c0.67-2.74,1.51-6.15,2.05-8.75c0.9-4.36,1.5-8.63,2.03-12.63c0.64-4.83,5.01-10.06,11.84-10.23l3.37-0.09
			c4.17-0.11,7.78-0.21,11.88-0.21c2.42,0,4.46,0.83,5.9,2.4c1.63,1.77,2.42,4.42,2.18,7.27c-0.31,3.68-0.78,5.9-1.43,8.99
			c-0.27,1.31-0.58,2.79-0.93,4.62c-0.77,4.06-1.62,7.76-2.66,11.67c-1.21,4.55-4.72,9.36-9.08,9.74
			C137.81,209.04,124.16,209.33,120.46,209.33z M130.84,175.65c-0.32,2.27-1,7.07-1.43,10.01c-0.42,2.86-1.45,8.42-2.01,11.4
			l12.35-0.35c0.49-2.14,1.46-6.6,2.21-11.07c0.75-4.49,1.32-8.12,1.64-10.22L130.84,175.65z"/>
		<path class="st1" d="M147.24,165.54c5.12,0,6.91,4.25,6.59,8.05c-0.44,5.12-1.17,7.32-2.34,13.46c-0.66,3.48-1.46,7.17-2.63,11.56
			c-1.17,4.39-4.39,8.34-7.76,8.63c-3.37,0.29-16.98,0.59-20.63,0.59c-3.66,0-4.54-4.68-3.95-7.32c0.59-2.63,2.2-8.78,3.07-13.02
			c0.88-4.24,1.46-8.34,2.05-12.73c0.59-4.39,4.54-8.78,10.39-8.93C137.88,165.68,142.12,165.54,147.24,165.54 M126.57,198.58
			c0.01,0,0.02,0,0.02,0l13.73-0.39c0.37-0.01,0.68-0.26,0.77-0.62c0.39-1.69,1.51-6.69,2.35-11.69c0.84-5.06,1.48-9.11,1.77-11.06
			c0.07-0.49-0.31-0.93-0.8-0.93c-0.01,0-0.01,0-0.02,0l-14.16,0.26c-0.4,0.01-0.73,0.3-0.79,0.69c-0.27,1.9-1.04,7.37-1.51,10.59
			c-0.47,3.16-1.69,9.7-2.16,12.19C125.68,198.13,126.06,198.58,126.57,198.58 M147.24,162.54c-4.13,0-7.76,0.1-11.95,0.21
			l-3.34,0.09c-7.66,0.19-12.56,6.08-13.29,11.53c-0.53,3.97-1.12,8.21-2.01,12.52c-0.53,2.58-1.37,5.97-2.03,8.69
			c-0.43,1.75-0.8,3.26-1.03,4.29c-0.55,2.47-0.23,6.06,1.73,8.49c1.28,1.6,3.11,2.47,5.15,2.47c3.72,0,17.45-0.3,20.89-0.6
			c5.28-0.46,9.09-5.95,10.39-10.85c1.05-3.94,1.9-7.68,2.68-11.77c0.35-1.82,0.66-3.3,0.93-4.6c0.66-3.14,1.13-5.4,1.45-9.17
			c0.28-3.27-0.66-6.33-2.57-8.42C152.52,163.54,150.09,162.54,147.24,162.54L147.24,162.54z M132.15,177.12l9.7-0.18
			c-0.33,2.12-0.8,5.04-1.37,8.44c-0.63,3.76-1.42,7.5-1.94,9.85l-9.32,0.27c0.57-3.08,1.32-7.26,1.68-9.63
			C131.26,183.42,131.79,179.67,132.15,177.12L132.15,177.12z"/>
	</g>
	<g>
		<linearGradient id="SVGID_1_" gradientUnits="userSpaceOnUse" x1="75.0415" y1="224.8846" x2="75.4689" y2="264.633">
			<stop  offset="1.385225e-07" style="stop-color:#FBB040"/>
			<stop  offset="1" style="stop-color:#E60000"/>
		</linearGradient>
		<path class="st2" d="M59.57,266.57c0.04-0.12,4.39-11.59,6.55-19.05c1.43-4.94,2.67-9.33,3.36-11.8l-7.21,0.65l2.9-12.65
			l26.7-2.66l-3.43,13.36L81.22,235c-0.7,2.37-2.52,8.56-4.03,13.65c-1.9,6.43-6.08,17.16-6.26,17.61l-0.31,0.8L58.65,269
			L59.57,266.57z"/>
		<path class="st1" d="M89.88,222.76L87.24,233l-7.17,0.59c0,0-2.41,8.2-4.32,14.63c-1.9,6.44-6.22,17.49-6.22,17.49l-8.56,1.39
			c0,0,4.39-11.56,6.59-19.17c2.2-7.61,3.95-13.9,3.95-13.9l-7.32,0.66l2.2-9.59L89.88,222.76 M93.85,219.35l-4.27,0.43l-23.49,2.34
			l-2.15,0.21l-0.48,2.1l-2.2,9.59l-0.92,4.03l4.12-0.37l2.98-0.27c-0.71,2.52-1.69,5.96-2.77,9.69c-2.14,7.4-6.46,18.82-6.51,18.94
			l-1.85,4.86l5.13-0.83l8.56-1.39l1.69-0.27l0.62-1.59c0.18-0.46,4.39-11.24,6.3-17.73c1.33-4.49,2.9-9.84,3.74-12.66l5.12-0.42
			l2.13-0.17l0.53-2.07l2.63-10.24L93.85,219.35L93.85,219.35z"/>
	</g>
	<g>
		
			<linearGradient id="SVGID_00000022536458195237599920000009806760485587433630_" gradientUnits="userSpaceOnUse" x1="102.3877" y1="227.7158" x2="104.504" y2="259.4613">
			<stop  offset="1.385225e-07" style="stop-color:#FBB040"/>
			<stop  offset="1" style="stop-color:#E60000"/>
		</linearGradient>
		<path style="fill:url(#SVGID_00000022536458195237599920000009806760485587433630_);" d="M84.08,262.62
			c0.05-0.14,5.42-14.37,7.57-21.84c2.17-7.52,5.31-18.82,5.34-18.94l0.28-1l10.7-0.97l-0.89,2.26c-0.02,0.04-1.74,4.44-2.73,8.04
			c-0.41,1.51-1.04,3.75-1.49,5.37l6.54-0.4c0.37-1.17,1.04-3.33,1.79-6.06c1.16-4.21,2.7-9.35,2.72-9.4l0.3-1.02l9.35-0.45
			l-0.64,2.05c0,0-3.02,9.71-5.95,19.21c-2.9,9.41-6.31,19.92-6.35,20.02l-0.27,0.84l-10.54,2.06l0.87-2.47
			c0.02-0.06,2.12-6.03,2.98-8.76c0.54-1.71,1.49-4.61,2.15-6.61l-5.82,0.52c-0.51,1.44-1.54,4.4-2.47,7.25
			c-1.31,3.99-3.18,9.48-3.2,9.53l-0.27,0.78l-10.97,2.6L84.08,262.62z"/>
		<path class="st1" d="M121.49,219.83c0,0-3.02,9.71-5.95,19.22c-2.93,9.51-6.34,20-6.34,20l-7.1,1.39c0,0,2.12-6.02,3-8.8
			c0.88-2.78,2.85-8.76,2.85-8.76l-9.05,0.8c0,0-1.49,4.17-2.8,8.2c-1.32,4.02-3.2,9.51-3.2,9.51l-7.41,1.76
			c0,0,5.41-14.34,7.61-21.95c2.2-7.61,5.34-18.95,5.34-18.95l7.24-0.66c0,0-1.76,4.46-2.78,8.2c-0.71,2.6-2.05,7.39-2.05,7.39
			l9.66-0.59c0,0,0.95-2.85,2.12-7.1c1.17-4.24,2.71-9.37,2.71-9.37L121.49,219.83 M125.63,216.63l-4.28,0.2l-6.15,0.29l-2.12,0.1
			l-0.61,2.03c-0.02,0.05-1.56,5.2-2.73,9.43c-0.57,2.07-1.09,3.8-1.47,5.03l-3.41,0.21c0.33-1.18,0.67-2.41,0.92-3.35
			c0.97-3.54,2.66-7.85,2.68-7.89l1.78-4.53l-4.84,0.44l-7.24,0.66l-2.06,0.19l-0.55,2c-0.03,0.11-3.17,11.41-5.33,18.92
			c-2.14,7.41-7.48,21.58-7.53,21.72l-1.99,5.28l5.49-1.3l7.41-1.76l1.61-0.38l0.54-1.57c0.02-0.06,1.9-5.55,3.21-9.55
			c0.76-2.33,1.59-4.73,2.14-6.31l2.59-0.23c-0.52,1.6-1.07,3.3-1.44,4.46c-0.85,2.7-2.95,8.65-2.97,8.71l-1.74,4.95l5.15-1.01
			l7.1-1.39l1.73-0.34l0.55-1.68c0.03-0.11,3.46-10.62,6.36-20.05c2.89-9.4,5.92-19.11,5.95-19.21L125.63,216.63L125.63,216.63z"/>
	</g>
	<g>
		
			<linearGradient id="SVGID_00000116942767890272825800000012189102797446819237_" gradientUnits="userSpaceOnUse" x1="132.163" y1="227.2392" x2="133.8558" y2="247.5527">
			<stop  offset="1.385225e-07" style="stop-color:#FBB040"/>
			<stop  offset="1" style="stop-color:#E60000"/>
		</linearGradient>
		<path style="fill:url(#SVGID_00000116942767890272825800000012189102797446819237_);" d="M117.46,256.9
			c0.04-0.12,4.55-11.77,7.15-19.54c2.59-7.76,5.43-19.02,5.46-19.14l0.27-1.06l19.2-1.31l-2.59,9.7l-9.58,0.22
			c-0.16,0.63-0.36,1.43-0.5,2.07c-0.14,0.62-0.38,1.61-0.61,2.5l8.33-0.27l-2.46,9.27l-8.76,0.32c-0.33,1.04-0.83,2.64-1.16,3.62
			c-0.25,0.74-0.68,1.98-1.07,3.06l9.39-0.66l-0.8,2.18c0,0-1.02,2.76-1.75,4.87c-0.73,2.11-1.04,2.78-1.1,2.89l-0.35,0.7
			l-20.01,2.98L117.46,256.9z"/>
		<path class="st1" d="M147.54,217.49l-1.76,6.59l-9.59,0.22c0,0-0.51,1.9-0.8,3.22c-0.29,1.32-1.1,4.39-1.1,4.39l8.32-0.27
			l-1.66,6.24l-8.71,0.32c0,0-0.95,3.07-1.46,4.61c-0.51,1.54-1.83,5.2-1.83,5.2l9.37-0.66c0,0-1.02,2.78-1.76,4.9
			c-0.73,2.12-1.02,2.71-1.02,2.71l-16.68,2.49c0,0,4.54-11.71,7.17-19.61s5.49-19.24,5.49-19.24L147.54,217.49 M151.52,214.21
			l-4.18,0.29l-16.02,1.1l-2.17,0.15l-0.53,2.11c-0.03,0.11-2.86,11.33-5.42,19.03c-2.58,7.74-7.08,19.36-7.12,19.47l-1.86,4.81
			l5.1-0.76l16.68-2.49l1.54-0.23l0.7-1.4c0.09-0.18,0.44-0.93,1.18-3.07c0.71-2.07,1.72-4.82,1.74-4.84l1.6-4.36l-4.63,0.33
			l-4.8,0.34c0.12-0.35,0.23-0.67,0.32-0.93c0.24-0.71,0.56-1.73,0.85-2.64l6.59-0.24l2.22-0.08l0.57-2.15l1.66-6.24l1.04-3.9
			l-4.03,0.13l-4.34,0.14c0.05-0.23,0.1-0.43,0.14-0.61c0.06-0.29,0.14-0.6,0.22-0.92l7.31-0.17l2.25-0.05l0.58-2.17l1.76-6.59
			L151.52,214.21L151.52,214.21z"/>
	</g>
	<g>
		
			<linearGradient id="SVGID_00000154408964499895574340000017210072491325868416_" gradientUnits="userSpaceOnUse" x1="182.8348" y1="199.4897" x2="182.2269" y2="246.9044">
			<stop  offset="1.385225e-07" style="stop-color:#FBB040"/>
			<stop  offset="1" style="stop-color:#E60000"/>
		</linearGradient>
		<path style="fill:url(#SVGID_00000154408964499895574340000017210072491325868416_);" d="M148.75,251.73
			c0.1-0.28,9.68-28.21,13.42-44.34c3.74-16.12,6.67-40.95,6.7-41.2l0.15-1.27l1.28-0.05c0.22-0.01,22.35-0.95,32.13-0.95
			c1.64,0,2.83,0.03,3.64,0.08c3.76,0.24,7.23,1.81,9.29,4.2c1.46,1.7,2.14,3.71,1.97,5.81c-0.25,3.06-2.42,11.82-4.72,20.83
			c-1.53,5.99-6.41,9.15-9.97,10.71c3.07,1.72,5.8,4.55,4.8,8.51c-1.57,6.19-6.75,20.08-8.44,24.46c-2.08,5.4-5.61,8.51-10.77,9.52
			c-3.99,0.78-36.45,5.47-37.83,5.67l-2.43,0.35L148.75,251.73z M181.07,219.21c-0.47,1.63-1.42,4.87-2.06,6.92
			c-0.49,1.58-1.08,3.67-1.5,5.19c2.81-0.13,6.06-0.32,6.91-0.47c1.67-0.31,1.98-1.18,2.08-1.47c0.36-1.01,1.02-3.21,1.6-5.14
			l0.59-1.96c0.23-0.74,0.83-2.71,0.52-3.14c-0.02-0.03-0.19-0.13-0.67-0.14c-0.35-0.01-0.72-0.01-1.1-0.01
			C185.28,218.97,182.54,219.12,181.07,219.21z M187.98,185.71c-0.34,1.65-0.94,4.62-1.2,6.34c-0.25,1.62-0.79,4.3-1.17,6.11
			c2.55-0.09,6.87-0.25,7.99-0.32c0.48-0.03,1.47-0.09,2.04-2.63c0.26-1.16,0.65-2.72,1.02-4.22c0.45-1.78,0.91-3.63,1.01-4.27
			c0.01-0.1-0.04-0.33-0.24-0.56c-0.17-0.2-0.58-0.54-1.32-0.54l-0.11,0C194.93,185.67,190.24,185.7,187.98,185.71z"/>
		<path class="st1" d="M202.43,165.41c1.52,0,2.74,0.02,3.55,0.07c5.36,0.35,10.24,3.71,9.85,8.39c-0.25,2.94-2.44,11.8-4.68,20.59
			c-2.24,8.78-12.78,10.93-12.78,10.93s9.07,2.54,7.61,8.29c-1.46,5.76-6.24,18.73-8.39,24.29c-2.15,5.56-5.66,7.8-9.66,8.59
			c-4,0.78-37.76,5.66-37.76,5.66s9.66-28.1,13.46-44.49c3.8-16.39,6.73-41.37,6.73-41.37S192.57,165.41,202.43,165.41
			 M183.73,199.73c0,0,8.29-0.29,9.95-0.39c1.66-0.1,2.83-1.17,3.41-3.8s1.85-7.32,2.05-8.59c0.19-1.23-1-2.83-3.04-2.83
			c-0.06,0-0.12,0-0.18,0c-1.36,0.06-9.17,0.1-9.17,0.1s-1.07,5.07-1.46,7.61C184.9,194.37,183.73,199.73,183.73,199.73
			 M175.54,232.9c0,0,7.61-0.29,9.17-0.59c1.56-0.29,2.73-1.07,3.22-2.44c0.49-1.37,1.46-4.68,2.15-6.93
			c0.68-2.24,1.76-5.37-1.46-5.46c-0.36-0.01-0.74-0.02-1.15-0.02c-3.22,0-7.54,0.31-7.54,0.31s-1.46,5.07-2.34,7.9
			C176.71,228.51,175.54,232.9,175.54,232.9 M202.43,162.41c-9.81,0-31.28,0.92-32.19,0.96l-2.55,0.11l-0.3,2.54
			c-0.03,0.25-2.95,25-6.67,41.04c-3.73,16.05-13.28,43.91-13.38,44.19l-1.6,4.65l4.86-0.7c1.38-0.2,33.88-4.9,37.9-5.68
			c5.71-1.11,9.6-4.53,11.88-10.45c1.7-4.4,6.91-18.38,8.5-24.63c0.96-3.78-0.79-6.67-3.3-8.7c3.41-1.95,7.12-5.22,8.47-10.52
			c2.68-10.49,4.52-18.09,4.77-21.08c0.21-2.52-0.59-4.91-2.33-6.92c-2.32-2.69-6.18-4.45-10.32-4.72
			C205.33,162.44,204.1,162.41,202.43,162.41L202.43,162.41z M189.2,187.21c2.44-0.02,5.91-0.04,6.85-0.09
			c-0.19,0.87-0.55,2.3-0.85,3.51c-0.38,1.51-0.77,3.07-1.03,4.26c-0.23,1.06-0.51,1.39-0.57,1.45c0,0,0,0,0,0
			c-0.01,0-0.04,0.01-0.09,0.01c-0.87,0.05-3.66,0.16-6.05,0.25c0.31-1.52,0.63-3.17,0.8-4.31
			C188.46,190.95,188.87,188.84,189.2,187.21L189.2,187.21z M182.22,220.65c1.5-0.08,3.54-0.17,5.24-0.17c0.07,0,0.14,0,0.2,0
			c-0.12,0.47-0.28,1-0.39,1.36l-0.07,0.24c-0.16,0.53-0.34,1.12-0.52,1.73c-0.58,1.92-1.23,4.09-1.58,5.06
			c-0.08,0.23-0.4,0.4-0.95,0.5c-0.52,0.1-2.41,0.23-4.63,0.35c0.31-1.08,0.63-2.2,0.92-3.14
			C180.98,224.86,181.71,222.38,182.22,220.65L182.22,220.65z"/>
	</g>
	<g>
		
			<linearGradient id="SVGID_00000030448253475109326290000005170304013780492941_" gradientUnits="userSpaceOnUse" x1="243.8133" y1="188.7701" x2="245.0298" y2="239.5588">
			<stop  offset="1.385225e-07" style="stop-color:#FBB040"/>
			<stop  offset="1" style="stop-color:#E60000"/>
		</linearGradient>
		<path style="fill:url(#SVGID_00000030448253475109326290000005170304013780492941_);" d="M213.11,243.19c-0.28,0-0.54,0-0.75-0.01
			c-2.1-0.08-3.81-0.94-4.92-2.49c-1.88-2.62-1.67-6.56-0.85-9.38c0.42-1.42,1.27-3.82,2.45-7.15c2.12-5.96,5.31-14.96,7.99-24.17
			c3.07-10.56,8.41-35.83,8.46-36.09l0.24-1.14l21.79-0.91l-0.47,1.94c0,0-5.17,21.27-7.41,30.53c-1.08,4.45-4.65,19.13-5.4,21.39
			c-0.23,0.69-0.2,1.43-0.12,1.88c2.44-0.17,6.43-0.45,9.28-0.73c0.16-0.02,1.05-0.26,2.37-3.47c0.9-2.19,5.18-14.74,7.25-22.73
			c2.7-10.41,7.17-28.2,7.22-28.38l0.27-1.07l21.58-1.26l-0.5,1.99c-0.06,0.24-6.21,24.39-10.27,36.97
			c-0.91,2.82-2.06,6.51-3.28,10.39c-3.09,9.88-6.28,20.08-7.44,22.4c-2.55,5.1-6.71,8.07-12.36,8.82
			C245.42,240.91,219.75,243.19,213.11,243.19C213.11,243.19,213.11,243.19,213.11,243.19z"/>
		<path class="st1" d="M280.12,161.59c0,0-6.15,24.2-10.24,36.88c-3.12,9.66-9.07,29.46-10.63,32.59c-1.56,3.12-4.59,7.12-11.22,8
			c-2.9,0.38-28.37,2.65-34.92,2.65c-0.26,0-0.49,0-0.69-0.01c-5.17-0.2-5.56-5.95-4.39-9.95c1.17-4,6.34-17.22,10.44-31.32
			c3.12-10.73,8.49-36.2,8.49-36.2l18.63-0.78c0,0-5.17,21.27-7.41,30.54c-2.24,9.27-4.78,19.51-5.37,21.27
			c-0.58,1.74-0.11,3.9,0.66,3.9c0.01,0,0.02,0,0.03,0c2.83-0.2,7.02-0.49,10.05-0.78c1.57-0.15,2.73-2.24,3.61-4.39
			s5.21-14.82,7.32-22.93c2.73-10.54,7.22-28.39,7.22-28.39L280.12,161.59 M284.04,158.35l-4.09,0.24l-18.44,1.07l-2.2,0.13
			l-0.54,2.14c-0.04,0.18-4.52,17.96-7.21,28.37c-2.02,7.78-6.33,20.44-7.19,22.54c-0.71,1.72-1.2,2.36-1.4,2.57
			c-2.19,0.21-4.98,0.42-7.25,0.58c0.86-2.78,4.02-15.74,5.37-21.3c2.24-9.27,7.41-30.53,7.41-30.53l0.94-3.87l-3.98,0.17
			l-18.63,0.78l-2.33,0.1l-0.48,2.28c-0.05,0.25-5.38,25.48-8.43,35.98c-2.67,9.16-5.85,18.14-7.96,24.08
			c-1.19,3.35-2.05,5.77-2.48,7.23c-0.92,3.16-1.13,7.62,1.07,10.68c0.97,1.35,2.82,2.99,6.09,3.11c0.23,0.01,0.5,0.01,0.81,0.01
			c6.91,0,32.46-2.29,35.31-2.67c6.18-0.82,10.72-4.06,13.51-9.63c1.13-2.26,3.71-10.43,7.53-22.63c1.22-3.89,2.37-7.56,3.27-10.37
			c4.08-12.63,10.24-36.82,10.3-37.06L284.04,158.35L284.04,158.35z"/>
	</g>
	<g>
		
			<linearGradient id="SVGID_00000116935648115553848940000004192642963842620846_" gradientUnits="userSpaceOnUse" x1="299.2625" y1="177.8859" x2="296.1541" y2="230.1069">
			<stop  offset="1.385225e-07" style="stop-color:#FBB040"/>
			<stop  offset="1" style="stop-color:#E60000"/>
		</linearGradient>
		<path style="fill:url(#SVGID_00000116935648115553848940000004192642963842620846_);" d="M265.53,232.53
			c0.08-0.25,8.23-24.69,11.5-35.38c3.08-10.04,10.55-36.67,10.62-36.94l0.29-1.03l1.07-0.06c0.18-0.01,18.43-1.08,27.77-1.08
			c1.68,0,3.01,0.04,3.94,0.1c3.76,0.28,6.67,1.56,8.42,3.72c1.52,1.88,2.12,4.35,1.74,7.15c-0.71,5.15-4.45,18.23-6.2,23.76
			c-2.58,8.16-8.42,11.82-12.27,13.39c1.59,1.12,3.53,2.85,5.34,5.5c4.25,6.21,3.69,9.47,3.28,11.85c-0.09,0.54-0.17,1-0.19,1.44
			l-0.04,1.27l-23.9,3.1l0.73-2.25c0.61-1.89,1.99-7.45,1.06-10.52c-1.59-5.25-3.86-5.92-5.44-5.96l-0.1,0
			c-0.27,0-0.53,0.03-0.75,0.06c-0.56,1.65-1.9,5.67-3.24,9.82c-1.77,5.5-4.08,10.33-4.17,10.53l-0.34,0.71l-19.9,3.14
			L265.53,232.53z M297.96,193.77c0.67,0.01,1.45,0.01,2.23,0.01c1.02,0,2.04-0.01,2.8-0.04c2.22-0.09,5.67-1.67,6.15-3.15
			c0.75-2.34,1.52-5.48,2.1-8.6c0.25-1.33-0.08-2.76-0.86-3.73c-0.4-0.5-1.11-1.1-2.19-1.13c-1.06-0.03-2.18-0.04-3.21-0.04
			c-1.03,0-1.96,0.01-2.64,0.02c-0.57,2.01-1.8,6.36-2.31,8.52C299.55,187.64,298.56,191.48,297.96,193.77z"/>
		<path class="st1" d="M316.78,159.53c1.57,0,2.89,0.03,3.83,0.1c6.63,0.49,9.46,4.2,8.78,9.17c-0.68,4.98-4.31,17.72-6.15,23.51
			c-3.71,11.71-14.73,13.46-14.73,13.46s4.24,1.24,8,6.73c4.88,7.12,2.93,9.66,2.83,12.39l-20.29,2.63c0,0,2.34-7.22,1.07-11.41
			s-3.32-6.93-6.83-7.02c-0.05,0-0.09,0-0.14,0c-1.02,0-1.91,0.29-1.91,0.29s-1.76,5.17-3.51,10.63c-1.76,5.46-4.1,10.34-4.1,10.34
			L266.95,233c0,0,8.2-24.59,11.51-35.41c3.12-10.18,10.63-36.98,10.63-36.98S307.38,159.53,316.78,159.53 M300.19,195.29
			c1.04,0,2.08-0.01,2.86-0.04c2.34-0.1,6.73-1.76,7.51-4.2c0.78-2.44,1.56-5.66,2.15-8.78c0.59-3.12-1.27-6.54-4.49-6.63
			c-1.07-0.03-2.21-0.04-3.25-0.04c-2.08,0-3.77,0.04-3.77,0.04s-1.95,6.73-2.63,9.66s-2.54,9.95-2.54,9.95
			S298.11,195.29,300.19,195.29 M316.78,156.53c-9.38,0-27.1,1.04-27.85,1.08l-2.13,0.13l-0.58,2.06
			c-0.08,0.27-7.54,26.88-10.61,36.91c-3.27,10.67-11.41,35.1-11.49,35.34l-1.56,4.68l4.87-0.77l16.68-2.63l1.56-0.25l0.68-1.42
			c0.1-0.21,2.45-5.13,4.25-10.72c1.12-3.47,2.24-6.86,2.91-8.83c0.87,0.07,2.46,0.58,3.76,4.88c0.72,2.39-0.26,7.17-1.06,9.62
			l-1.45,4.5l4.69-0.61l20.29-2.63l2.52-0.33l0.09-2.54c0.01-0.34,0.08-0.76,0.17-1.24c0.57-3.29,0.73-6.76-3.52-12.96
			c-1.25-1.82-2.54-3.24-3.77-4.34c3.9-2.09,8.59-6.02,10.88-13.26c1.82-5.76,5.53-18.71,6.26-24.01c0.44-3.22-0.27-6.09-2.06-8.3
			c-1.4-1.74-4.19-3.89-9.47-4.27C319.84,156.57,318.52,156.53,316.78,156.53L316.78,156.53z M303.47,178.6
			c0.46,0,0.97-0.01,1.5-0.01c1.18,0,2.24,0.01,3.16,0.04c0.27,0.01,0.67,0.08,1.07,0.57c0.51,0.63,0.73,1.62,0.56,2.51
			c-0.57,3.06-1.32,6.13-2.05,8.42c-0.34,0.74-3.02,2.04-4.78,2.11c-0.65,0.03-1.57,0.04-2.74,0.04c-0.1,0-0.19,0-0.29,0
			c0.56-2.17,1.23-4.77,1.59-6.31C301.9,184.17,302.84,180.8,303.47,178.6L303.47,178.6z"/>
	</g>
	<g>
		
			<linearGradient id="SVGID_00000019644115648170274560000006631674192055555458_" gradientUnits="userSpaceOnUse" x1="354.6257" y1="174.6122" x2="354.6257" y2="222.7017">
			<stop  offset="1.385225e-07" style="stop-color:#FBB040"/>
			<stop  offset="1" style="stop-color:#E60000"/>
		</linearGradient>
		<path style="fill:url(#SVGID_00000019644115648170274560000006631674192055555458_);" d="M330.11,224.75
			c-1.48,0-2.74-0.64-3.64-1.86c-2.14-2.91-1.68-8.48-0.96-10.82c0.38-1.23,1.7-5.03,3.24-9.43c2.05-5.91,4.61-13.26,5.84-17.11
			c1.91-5.99,4.33-13.8,5.77-18.47l0.47-1.51c1.72-5.56,5.35-8.28,11.41-8.57c6.19-0.29,29.74-0.97,29.98-0.98l2.11-0.06
			l-4.98,15.66l-1.12-0.02c-1.54-0.03-3.29-0.04-5.13-0.04c-4.87,0-9.81,0.07-12.57,0.13c-3.68,0.08-5.7,0.94-7.19,5.59
			c-0.69,2.15-2.18,6.37-3.77,10.83c-2.16,6.08-4.6,12.98-4.98,14.61c-0.32,1.36-0.2,2.09-0.08,2.35c1.14,0,3.91-0.02,6.67-0.29
			c1.83-0.18,2.67-1.82,3.58-3.95c0.17-0.4,0.33-0.77,0.49-1.08c0.32-0.63,0.65-1.35,0.94-2l-5.78-0.19l5.1-14.7l20.13-0.7
			l-0.77,2.09c-0.18,0.49-4.43,12.1-6.66,17.34c-2.3,5.39-4.95,11.17-6.18,13.64c-0.96,1.93-3.92,6.53-10.56,7.64
			c-3.65,0.61-16.68,1.69-21.16,1.87L330.11,224.75z"/>
		<path class="st1" d="M382.27,157.49l-4,12.59c-1.54-0.03-3.31-0.04-5.15-0.04c-4.52,0-9.48,0.06-12.6,0.13
			c-4.39,0.1-6.93,1.46-8.59,6.63c-1.66,5.17-8.1,22.63-8.78,25.56c-0.68,2.93,0.2,4.2,1.17,4.2s4,0,7.02-0.29
			c3.41-0.33,4.39-4.1,5.27-5.85c0.88-1.76,1.85-4.1,1.85-4.1l-5.95-0.2l4.1-11.8l16.88-0.59c0,0-4.39,12-6.63,17.27
			c-2.24,5.27-4.88,11.02-6.15,13.56c-1.27,2.54-4.16,5.94-9.46,6.83c-3.51,0.59-16.29,1.66-20.98,1.85c-0.05,0-0.1,0-0.15,0
			c-4.36,0-4.03-7.94-3.16-10.73c0.88-2.83,6.93-19.8,9.07-26.54c2.15-6.73,4.98-15.9,6.24-20c1.27-4.1,3.8-7.22,10.05-7.51
			C358.56,158.17,382.27,157.49,382.27,157.49 M386.41,154.37l-4.23,0.12c-0.97,0.03-23.81,0.69-30.01,0.98
			c-6.69,0.31-10.87,3.46-12.77,9.62l-0.44,1.42c-1.45,4.69-3.88,12.53-5.8,18.55c-1.22,3.84-3.78,11.18-5.83,17.08
			c-1.6,4.6-2.86,8.23-3.25,9.48c-0.72,2.33-1.43,8.61,1.18,12.15c1.18,1.6,2.9,2.47,4.85,2.47c0.09,0,0.18,0,0.28-0.01
			c4.63-0.19,17.57-1.26,21.34-1.89c7.32-1.22,10.59-6.31,11.65-8.45c1.25-2.5,3.92-8.32,6.22-13.73
			c2.25-5.28,6.51-16.92,6.69-17.41l1.53-4.18l-4.45,0.15l-16.88,0.59l-2.06,0.07l-0.67,1.94l-4.1,11.8l-1.34,3.85l4.07,0.13
			l1.47,0.05c-0.16,0.34-0.32,0.69-0.47,1.06c-0.86,2-1.43,2.96-2.35,3.05c-1.86,0.18-3.74,0.24-5.08,0.27
			c0.02-0.15,0.06-0.31,0.1-0.5c0.36-1.56,2.9-8.71,4.94-14.46c1.58-4.47,3.08-8.69,3.78-10.87c1.22-3.81,2.52-4.48,5.8-4.55
			c2.75-0.06,7.68-0.13,12.54-0.13c1.95,0,3.66,0.01,5.1,0.04l2.23,0.04l0.68-2.13l4-12.59L386.41,154.37L386.41,154.37z"/>
	</g>
	<g>
		
			<linearGradient id="SVGID_00000084492055250691136830000013032154897448385448_" gradientUnits="userSpaceOnUse" x1="400.209" y1="172.9899" x2="398.0435" y2="214.136">
			<stop  offset="1.385225e-07" style="stop-color:#FBB040"/>
			<stop  offset="1" style="stop-color:#E60000"/>
		</linearGradient>
		<path style="fill:url(#SVGID_00000084492055250691136830000013032154897448385448_);" d="M370.55,215.63
			c0.04-0.1,4.35-10.11,10.31-26.17c3.42-9.2,10.73-32.28,10.81-32.52l0.32-1.01l37.51-1.39l-5.56,15.71l-18.53,0.88l-2.91,8.31
			l14.59-0.99l-5.88,14.02l-12.98,0.88l-3.02,7.04l18.84-2.06l-7.36,15.57l-37.15,4.08L370.55,215.63z"/>
		<path class="st1" d="M427.34,156.12l-4.49,12.68l-18.54,0.88l-4,11.41l14.44-0.98l-4.59,10.93l-12.98,0.88l-4.39,10.24l18.73-2.05
			l-5.85,12.39l-33.76,3.71c0,0,4.29-9.95,10.34-26.24c3.47-9.34,10.83-32.59,10.83-32.59L427.34,156.12 M431.64,152.96l-4.41,0.16
			l-34.24,1.27l-2.11,0.08l-0.64,2.01c-0.07,0.23-7.38,23.28-10.78,32.45c-5.95,16.02-10.24,26-10.28,26.1l-2.04,4.73l5.12-0.56
			l33.76-3.71l1.67-0.18l0.72-1.52l5.85-12.39l2.29-4.85l-5.33,0.58l-13.62,1.49l1.64-3.83l11.14-0.75l1.85-0.12l0.72-1.71
			l4.59-10.93l1.88-4.48l-4.85,0.33l-9.9,0.67l1.83-5.21L423,171.8l2.01-0.1l0.67-1.9l4.49-12.68L431.64,152.96L431.64,152.96z"/>
	</g>
	<g>
		
			<linearGradient id="SVGID_00000069367694550357436100000015632861614003015052_" gradientUnits="userSpaceOnUse" x1="442.1801" y1="175.6122" x2="440.9412" y2="210.3023">
			<stop  offset="1.385225e-07" style="stop-color:#FBB040"/>
			<stop  offset="1" style="stop-color:#E60000"/>
		</linearGradient>
		<path style="fill:url(#SVGID_00000069367694550357436100000015632861614003015052_);" d="M416,209.96
			c0.07-0.18,7.4-17.92,11.01-27.38c3.6-9.43,8.94-26.69,8.99-26.86l0.32-1.04l1.08-0.02c0.22,0,21.9-0.44,24.57-0.51l0.22,0
			c1.91,0,3.6,0.68,4.74,1.92c0.82,0.88,1.75,2.49,1.55,5.11c-0.32,4.21-5.67,19.54-7.58,22.94c-1.83,3.27-5.42,4.47-8.23,4.89
			c1.06,1.18,2.29,2.77,3.34,4.71c2.63,4.85-0.22,12.89-0.35,13.23l-0.31,0.86l-17.05,2.22l1.12-2.46c1.27-2.78,3.23-7.94,3.09-9.96
			c-0.13-1.81-2.11-2.92-2.75-3.23l-0.03,0l-7.77,16.4l-16.92,1.46L416,209.96z M443.98,179.64c0.78,0.01,1.69,0.01,2.51,0.01
			c1.42,0,1.97-0.02,2.19-0.03c0.67-0.04,2.16-0.77,2.57-1.83c0.63-1.61,2-6.16,2.35-7.69c0.3-1.3,0.24-1.8,0.19-1.96
			c-0.03,0-0.06-0.01-0.1-0.01c-1.39-0.05-4.56-0.07-6.24-0.07c-0.44,1.4-1.23,3.91-1.78,5.79
			C445.2,175.53,444.48,177.96,443.98,179.64z"/>
		<path class="st1" d="M462.2,155.66c2.64,0,5.09,1.62,4.8,5.42c-0.29,3.88-5.47,18.9-7.39,22.32c-2.23,3.98-7.9,4.33-9.82,4.33
			c-0.41,0-0.64-0.02-0.64-0.02s3.22,2.41,5.56,6.73c2.34,4.32-0.44,12-0.44,12l-13.46,1.76c0,0,3.44-7.54,3.22-10.68
			c-0.22-3.15-3.88-4.61-3.88-4.61l-1.32-0.07L431,209.37l-13.61,1.17c0,0,7.37-17.83,11.02-27.41c3.66-9.59,9.02-26.95,9.02-26.95
			s21.88-0.44,24.59-0.51C462.08,155.66,462.14,155.66,462.2,155.66 M446.5,181.15c1.01,0,1.89-0.01,2.28-0.03
			c1.17-0.07,3.22-1.1,3.88-2.78c0.66-1.68,2.05-6.29,2.41-7.9s0.66-3.73-1.32-3.8c-1.98-0.07-7.39-0.07-7.39-0.07
			s-1.32,4.1-2.12,6.88c-0.8,2.78-2.27,7.68-2.27,7.68S444.48,181.15,446.5,181.15 M462.2,152.66c-0.09,0-0.17,0-0.26,0
			c-2.67,0.07-24.35,0.51-24.56,0.51l-2.17,0.04l-0.64,2.07c-0.05,0.17-5.38,17.38-8.96,26.77c-3.6,9.44-10.92,27.16-10.99,27.34
			l-1.88,4.56l4.91-0.42l13.61-1.17l1.72-0.15l0.74-1.56l6.66-14.07c0.35,0.33,0.63,0.72,0.66,1.14c0.1,1.42-1.45,5.92-2.96,9.23
			l-2.24,4.92l5.36-0.7l13.46-1.76l1.81-0.24l0.62-1.72c0.33-0.92,3.16-9.1,0.26-14.45c-0.62-1.14-1.29-2.16-1.96-3.06
			c2.57-0.76,5.25-2.24,6.84-5.09c2.01-3.58,7.43-19.1,7.76-23.56c0.24-3.17-0.93-5.15-1.95-6.25
			C466.61,153.51,464.54,152.66,462.2,152.66L462.2,152.66z M445.99,178.15c0.4-1.34,0.82-2.78,1.14-3.88
			c0.42-1.46,0.99-3.31,1.43-4.71c1.13,0,2.51,0.01,3.63,0.03c-0.01,0.06-0.02,0.11-0.04,0.18c-0.33,1.45-1.68,5.94-2.28,7.47
			c-0.13,0.34-0.9,0.82-1.3,0.88c-0.1,0.01-0.56,0.02-2.07,0.02C446.33,178.15,446.16,178.15,445.99,178.15L445.99,178.15z"/>
	</g>
</g>
<g id="Layer_2">
	<g>
		
			<linearGradient id="SVGID_00000163053808118340476600000006922895516750473385_" gradientUnits="userSpaceOnUse" x1="109.4386" y1="134.2511" x2="93.4811" y2="52.3557">
			<stop  offset="1.385225e-07" style="stop-color:#FBB040"/>
			<stop  offset="1" style="stop-color:#E60000"/>
		</linearGradient>
		<path style="fill:url(#SVGID_00000163053808118340476600000006922895516750473385_);" d="M78.21,155.79
			c-0.04-0.4-3.72-40.52-10.88-62.9c-7.18-22.45-20.77-52.42-20.91-52.72l-1.1-2.41l2.63,0.3c0.57,0.06,57.15,6.51,65.08,7.6
			c10.74,1.48,17.38,5.38,19.74,11.59l0.14,0.37c2.72,7.15,5.79,15.26,6.93,23.98c0.73,5.58-1.82,9.54-4.41,11.82
			c4.41,1.63,12.04,5.71,14.08,14.9c3,13.49,4.56,22.71,4.93,29.01c0.62,10.77-4.99,17.1-16.23,18.3
			c-13.21,1.41-56.67,1.52-58.51,1.53l-1.37,0L78.21,155.79z M108.31,125.3c1.99,0.02,5.96,0.04,9.31,0.04
			c2.7,0,4.44-0.02,5.17-0.05c0.44-0.02,0.85-0.26,1.23-0.72c0.77-0.93,1.19-2.51,1.01-3.77c-0.2-1.39-0.72-3.74-1.18-5.82
			c-0.37-1.68-0.72-3.26-0.89-4.25c-0.03-0.18-0.77-4.35-4.46-4.59c-2.79-0.18-10.52-0.29-14.17-0.34c0.65,2.61,1.79,7.22,2.22,9.38
			C107.03,117.52,107.91,122.86,108.31,125.3z M97.74,83.08c3.46,0.11,13.77,0.45,15.26,0.45c0.09,0,0.33-0.13,0.6-0.49
			c0.59-0.79,0.88-2.03,0.64-2.82c-0.43-1.47-1.6-4.7-2.46-7.06c-0.32-0.9-0.61-1.68-0.81-2.24c-0.53-1.52-2.94-3.59-5.12-3.88
			c-1.92-0.26-9.2-0.6-12.85-0.75c0.73,2.41,1.9,6.28,2.31,7.58C95.8,75.42,97.16,80.75,97.74,83.08z"/>
		<path class="st1" d="M47.79,39.54c0,0,57.04,6.5,65.05,7.6c9.91,1.36,16.36,4.89,18.54,10.64c2.71,7.15,5.85,15.32,6.99,24.01
			c1.14,8.7-6.38,12.16-6.38,12.16s13.4,2.64,16.08,14.69c2.68,12.05,4.5,22.04,4.89,28.77c0.39,6.74-1.6,15.3-14.89,16.72
			c-13.29,1.42-58.36,1.52-58.36,1.52s-3.65-40.43-10.94-63.22C61.47,69.64,47.79,39.54,47.79,39.54 M113,85.03
			c1.83,0,3.29-3.17,2.68-5.23c-0.61-2.07-2.56-7.3-3.29-9.37c-0.73-2.07-3.65-4.5-6.33-4.87c-2.68-0.37-15.1-0.85-15.1-0.85
			s2.31,7.67,2.92,9.62c0.61,1.95,2.68,10.23,2.68,10.23S111.17,85.03,113,85.03 M117.62,126.84c2.34,0,4.39-0.01,5.24-0.05
			c2.56-0.12,4.02-3.65,3.65-6.21c-0.37-2.56-1.7-7.91-2.07-10.1c-0.37-2.19-2.07-5.6-5.84-5.84c-3.77-0.24-16.19-0.37-16.19-0.37
			s2.07,8.16,2.68,11.2c0.61,3.04,1.95,11.32,1.95,11.32S112.93,126.84,117.62,126.84 M42.86,35.96l2.19,4.82
			c0.14,0.3,13.69,30.2,20.85,52.56c7.11,22.22,10.78,62.18,10.81,62.58l0.25,2.74l2.75-0.01c1.85,0,45.38-0.12,58.67-1.54
			c11.99-1.28,18.23-8.34,17.57-19.87c-0.37-6.39-1.94-15.68-4.96-29.25c-1.89-8.52-8.22-12.94-12.94-15.11
			c2.21-2.63,3.95-6.47,3.29-11.48c-1.16-8.9-4.28-17.09-7.02-24.32l-0.14-0.37c-2.57-6.77-9.61-10.99-20.94-12.55
			c-7.95-1.09-62.78-7.34-65.11-7.61L42.86,35.96L42.86,35.96z M98.92,81.62c-0.67-2.62-1.74-6.82-2.17-8.2
			c-0.3-0.97-1.04-3.38-1.69-5.55c4.06,0.18,9.13,0.45,10.6,0.65c1.64,0.22,3.57,1.94,3.91,2.9c0.2,0.56,0.49,1.36,0.81,2.26
			c0.85,2.34,2.01,5.54,2.42,6.96c0.09,0.3-0.09,1-0.32,1.38C110.35,81.98,103.69,81.77,98.92,81.62L98.92,81.62z M109.59,123.81
			c-0.45-2.71-1.15-6.91-1.56-8.93c-0.35-1.73-1.13-4.98-1.77-7.56c3.95,0.06,9.81,0.16,12.15,0.31c2.52,0.16,3.06,3.21,3.08,3.34
			c0.17,1.03,0.53,2.63,0.9,4.33c0.45,2.05,0.97,4.38,1.16,5.71c0.17,1.17-0.47,2.56-0.87,2.79c-0.52,0.02-1.81,0.05-5.05,0.05
			C114.9,123.84,111.74,123.82,109.59,123.81L109.59,123.81z"/>
	</g>
	<g>
		
			<linearGradient id="SVGID_00000003063966306117839650000013968723274851580809_" gradientUnits="userSpaceOnUse" x1="194.3459" y1="131.0014" x2="187.1095" y2="54.4165">
			<stop  offset="1.385225e-07" style="stop-color:#FBB040"/>
			<stop  offset="1" style="stop-color:#E60000"/>
		</linearGradient>
		<path style="fill:url(#SVGID_00000003063966306117839650000013968723274851580809_);" d="M165.83,152.66
			c-0.07-0.32-6.86-32.57-11.43-50.71c-2.78-11.05-5.92-20.09-8.45-27.36c-1.67-4.8-2.99-8.6-3.73-11.6
			c-0.76-3.11-0.36-5.7,1.21-7.7c2.07-2.64,5.95-3.98,11.53-3.98c0.78,0,1.6,0.03,2.44,0.08c9.42,0.6,45.6,4.59,45.97,4.63
			l0.73,0.08l0.38,0.63c0.11,0.18,11.37,18.62,19.84,40.17c10.18,25.88,17.27,52.86,17.34,53.13l0.49,1.88h-26.75l-0.27-1.16
			c-0.08-0.34-1.96-8.33-2.56-11.24c-0.45-2.16-1.9-6.92-2.56-9.03h-19.71c0.6,2.21,1.56,5.78,2.04,7.46
			c0.74,2.59,2.86,13.3,2.95,13.76l0.35,1.77l-29.57,0.41L165.83,152.66z M201.07,107.23c-1.9-4.59-6.27-15.22-7.43-18.4
			c-1.15-3.15-3.55-8.6-4.46-10.65c-2.41-0.18-9.07-0.67-11.48-0.67c-0.18,0-0.34,0-0.46,0.01c-0.39,0.02-0.7,0.34-0.89,0.6
			c-0.57,0.76-0.86,2.04-0.65,2.92c0.44,1.89,2.13,8.32,3.38,12.18c0.98,3.05,3.34,10.87,4.2,13.71L201.07,107.23z"/>
		<path class="st1" d="M154.97,52.81c0.75,0,1.54,0.03,2.35,0.08c9.5,0.61,45.9,4.63,45.9,4.63s11.2,18.26,19.72,39.93
			c10.26,26.1,17.29,52.96,17.29,52.96H216.6c0,0-1.95-8.28-2.56-11.2c-0.61-2.92-2.92-10.23-2.92-10.23h-22.77
			c0,0,1.83,6.82,2.56,9.37c0.73,2.56,2.92,13.64,2.92,13.64l-26.54,0.37c0,0-6.82-32.38-11.44-50.77
			c-4.63-18.38-10.35-31.53-12.17-38.96C142.01,55.83,146.86,52.81,154.97,52.81 M203.33,108.77c0,0-6.82-16.44-8.28-20.45
			c-1.46-4.02-4.87-11.57-4.87-11.57s-9.44-0.74-12.48-0.74c-0.22,0-0.4,0-0.55,0.01c-2.19,0.12-3.41,3.29-2.92,5.36
			c0.49,2.07,2.19,8.52,3.41,12.3c1.22,3.77,4.5,14.73,4.5,14.73L203.33,108.77 M154.97,49.81c-6.07,0-10.35,1.53-12.71,4.55
			c-1.28,1.64-2.58,4.52-1.49,8.98c0.76,3.07,2.08,6.9,3.77,11.74c2.52,7.24,5.65,16.25,8.41,27.24
			c4.56,18.12,11.35,50.33,11.42,50.65l0.51,2.42l2.47-0.03l26.54-0.37l3.6-0.05l-0.7-3.53c-0.09-0.46-2.22-11.23-2.98-13.88
			c-0.36-1.25-0.98-3.55-1.53-5.55h16.64c0.72,2.34,1.82,6.04,2.19,7.84c0.61,2.93,2.49,10.94,2.57,11.28l0.54,2.31h2.38h23.62h3.89
			l-0.98-3.76c-0.07-0.27-7.19-27.33-17.4-53.3c-8.52-21.67-19.84-40.22-19.96-40.4L205,54.69l-1.46-0.16
			c-1.49-0.16-36.58-4.03-46.03-4.64C156.63,49.84,155.78,49.81,154.97,49.81L154.97,49.81z M177.55,79.01c0.05,0,0.1,0,0.16,0
			c2.11,0,7.61,0.39,10.47,0.6c1.07,2.42,3.06,6.98,4.06,9.73c1.01,2.78,4.45,11.17,6.58,16.35l-14.42-0.25
			c-1.02-3.38-2.99-9.91-3.89-12.69c-1.14-3.54-2.84-9.91-3.34-12.06C177.04,80.17,177.3,79.33,177.55,79.01L177.55,79.01z"/>
	</g>
	<g>
		
			<linearGradient id="SVGID_00000007423207376057494130000017815100151323268748_" gradientUnits="userSpaceOnUse" x1="312.5685" y1="132.2105" x2="309.8456" y2="49.0071">
			<stop  offset="1.385225e-07" style="stop-color:#FBB040"/>
			<stop  offset="1" style="stop-color:#E60000"/>
		</linearGradient>
		<path style="fill:url(#SVGID_00000007423207376057494130000017815100151323268748_);" d="M264.36,149.96
			c-14.57,0-18.84-11.55-20.89-17.1c-1.29-3.5-3.84-10.65-6.31-17.56c-1.54-4.33-3.03-8.49-4.07-11.37
			c-1.36-3.77-3.55-9.26-5.68-14.58c-2.04-5.1-4.15-10.38-5.52-14.15c-1.4-3.83-0.95-7.68,1.26-10.84c2.13-3.04,5.62-4.93,9.11-4.93
			l0.2,0c5.84,0.12,37.03,3.4,38.35,3.54l0.76,0.08l0.38,0.66c0.15,0.26,3.69,6.39,4.79,8.6c1.06,2.13,6.36,11.4,6.41,11.49
			l1.37,2.39l-2.75-0.15c-0.15-0.01-14.61-0.8-20.89-0.8c-1.33,0-1.96,0.04-2.25,0.07c-0.84,0.09-1.43,0.4-1.81,0.96
			c-0.57,0.85-0.57,2.1-0.32,2.97c0.58,1.98,3.56,10.22,4.83,13.52c1.19,3.09,5.81,14.53,7.05,17.49c0.77,1.84,3.59,2.84,8.4,2.97
			c3.69,0.1,22.69,0.2,29.13,0.23c-1.6-4.53-5.64-16.02-9.52-27.09c-4.05-11.56-13.33-28.95-13.42-29.13l-1.33-2.48l26.47,2.68
			l0.38,0.69c0.27,0.49,6.75,12.15,8.58,16.18c1.11,2.45,3.67,7.75,5.47,11.44l5.11-25.22l24.42,2.08l-6.33,33.01
			c3.6,2.25,17.39,10.92,23.9,15.44c7.5,5.2,29.19,22.16,29.41,22.33l3.45,2.7l-36.98-0.14l-0.43-0.4
			c-0.07-0.07-7.44-6.85-18.4-13.71c-5.73-3.58-10.46-5.85-13.31-7.08c0.79,2.38,1.82,5.52,2.28,7.09
			c1.95,6.69,4.26,14.48,4.26,14.48l0.56,1.87l-1.95,0.05c-0.59,0.02-58.87,1.58-73.93,1.7L264.36,149.96z"/>
		<path class="st1" d="M232.26,60.92c0.06,0,0.11,0,0.17,0c5.84,0.12,38.23,3.53,38.23,3.53s3.65,6.33,4.75,8.52
			c1.1,2.19,6.45,11.57,6.45,11.57s-14.58-0.81-20.97-0.8c-1.06,0-1.9,0.02-2.41,0.07c-3.53,0.37-4.02,3.77-3.41,5.84
			c0.61,2.07,3.65,10.47,4.87,13.64c1.22,3.17,5.84,14.61,7.06,17.53c1.22,2.92,5.23,3.77,9.74,3.9c4.5,0.12,31.29,0.24,31.29,0.24
			s-5.25-14.89-10.23-29.1c-4.14-11.81-13.51-29.34-13.51-29.34l22.89,2.31c0,0,6.7,12.05,8.52,16.07s7.43,15.46,7.43,15.46
			l5.72-28.24l21.43,1.83l-6.21,32.38c0,0,17.17,10.71,24.71,15.95c7.55,5.23,29.34,22.28,29.34,22.28l-32.02-0.12
			c0,0-7.4-6.86-18.63-13.88c-9.74-6.09-16.56-8.4-16.56-8.4s2.51,7.44,3.29,10.1c1.95,6.7,4.26,14.49,4.26,14.49
			s-58.68,1.58-73.9,1.7c-0.07,0-0.14,0-0.21,0c-13.59,0-17.45-10.62-19.51-16.19c-2.07-5.6-7.67-21.43-10.35-28.85
			c-2.68-7.43-8.4-21.06-11.2-28.73C220.53,67.08,226.47,60.92,232.26,60.92 M232.26,57.92L232.26,57.92
			c-3.97,0-7.94,2.14-10.34,5.57c-2.46,3.52-2.99,7.97-1.44,12.21c1.38,3.79,3.5,9.08,5.54,14.19c2.12,5.3,4.31,10.78,5.66,14.53
			c1.04,2.89,2.52,7.04,4.07,11.37c2.47,6.92,5.02,14.07,6.29,17.51l0.03,0.07c2.17,5.87,6.68,18.08,22.3,18.08l0.23,0
			c15.07-0.12,73.37-1.69,73.96-1.71l3.91-0.11l-1.11-3.75c-0.02-0.08-2.33-7.86-4.26-14.47c-0.27-0.92-0.73-2.36-1.22-3.88
			c2.67,1.29,6.11,3.11,10.02,5.56c10.83,6.77,18.11,13.47,18.18,13.54l0.86,0.79l1.17,0.01l32.02,0.12l8.76,0.03l-6.9-5.4
			c-0.89-0.7-21.95-17.16-29.48-22.38c-6.18-4.29-18.51-12.06-23.09-14.94l5.82-30.37l0.63-3.27l-3.32-0.28l-21.43-1.83l-2.66-0.23
			l-0.53,2.62l-3.96,19.55c-1.38-2.86-2.77-5.78-3.52-7.41c-1.85-4.08-8.35-15.79-8.63-16.29l-0.76-1.37l-1.56-0.16l-22.89-2.31
			l-5.6-0.57l2.65,4.97c0.09,0.17,9.31,17.47,13.33,28.92c3.4,9.69,6.92,19.7,8.81,25.08c-7.74-0.04-23.63-0.13-26.96-0.22
			c-5.66-0.15-6.82-1.49-7.05-2.05c-1.23-2.95-5.84-14.37-7.03-17.45c-1.25-3.26-4.24-11.51-4.79-13.4
			c-0.17-0.58-0.12-1.35,0.12-1.71c0.05-0.07,0.17-0.25,0.72-0.31c0.21-0.02,0.77-0.06,2.1-0.06c6.23,0,20.66,0.79,20.8,0.8
			l5.51,0.3l-2.74-4.79c-1.84-3.22-5.54-9.74-6.37-11.42c-1.12-2.25-4.68-8.42-4.83-8.68l-0.76-1.32l-1.52-0.16
			c-1.33-0.14-32.58-3.42-38.48-3.55L232.26,57.92L232.26,57.92L232.26,57.92z"/>
	</g>
	<g>
		
			<linearGradient id="SVGID_00000071538439846307130720000015070378711653942933_" gradientUnits="userSpaceOnUse" x1="384.5495" y1="126.7551" x2="379.8797" y2="65.0465">
			<stop  offset="1.385225e-07" style="stop-color:#FBB040"/>
			<stop  offset="1" style="stop-color:#E60000"/>
		</linearGradient>
		<path style="fill:url(#SVGID_00000071538439846307130720000015070378711653942933_);" d="M404.17,141.14
			c-0.2-0.15-20.54-15.34-30.57-23.15c-6.48-5.04-21.34-15.44-21.49-15.54l-0.77-0.54l5.12-31.27l10.57,14.62l21.48,0.61l0.43,0.52
			c0.09,0.11,8.97,10.72,13.83,17.88c4.87,7.18,11.88,21.27,12.17,21.86l1.08,2.19l-15.81-0.12l9.61,17.17L404.17,141.14z"/>
		<path class="st1" d="M357.34,74.44l8.89,12.3l21.55,0.61c0,0,8.87,10.57,13.74,17.76c4.87,7.18,12.07,21.69,12.07,21.69
			l-15.95-0.12l7.43,13.27c0,0-20.41-15.24-30.55-23.13c-6.59-5.12-21.56-15.59-21.56-15.59L357.34,74.44 M355.54,66.83l-1.17,7.12
			L350,100.73l-0.3,1.86l1.55,1.08c0.15,0.1,14.98,10.48,21.43,15.49c10.05,7.82,30.39,23.01,30.6,23.16l11.3,8.44l-6.89-12.31
			l-4.91-8.77l10.79,0.08l4.88,0.04l-2.17-4.37c-0.3-0.6-7.35-14.77-12.28-22.04c-4.9-7.23-13.56-17.56-13.92-18l-0.87-1.03
			l-1.35-0.04l-20.07-0.57l-8.02-11.1L355.54,66.83L355.54,66.83z"/>
	</g>
	<g>
		
			<linearGradient id="SVGID_00000176744295697415460110000013772746120307049905_" gradientUnits="userSpaceOnUse" x1="419.3555" y1="124.5595" x2="399.6397" y2="59.271">
			<stop  offset="1.385225e-07" style="stop-color:#FBB040"/>
			<stop  offset="1" style="stop-color:#E60000"/>
		</linearGradient>
		<path style="fill:url(#SVGID_00000176744295697415460110000013772746120307049905_);" d="M421.65,127.46l-0.41-0.78
			c-0.05-0.09-4.87-9.19-10.2-17.97c-5.33-8.78-12.39-18.94-12.46-19.04l-1.73-2.48l10.72,0.45l0.42,0.62
			c0.05,0.08,5.36,7.82,11.45,17.62c6.11,9.83,10.92,19.49,10.97,19.59l1.1,2.22L421.65,127.46z"/>
		<path class="st1" d="M399.8,88.8l6.95,0.29c0,0,5.27,7.68,11.41,17.56c6.15,9.88,10.9,19.46,10.9,19.46l-6.51-0.15
			c0,0-4.83-9.12-10.24-18.05C406.9,99,399.8,88.8,399.8,88.8 M393.89,85.55l3.46,4.97c0.07,0.1,7.11,10.22,12.41,18.96
			c5.3,8.74,10.11,17.81,10.16,17.9l0.82,1.56l1.76,0.04l6.51,0.15l4.96,0.11l-2.21-4.44c-0.2-0.4-4.89-9.83-11.04-19.71
			c-6.11-9.82-11.43-17.6-11.49-17.67l-0.85-1.24l-1.5-0.06l-6.95-0.29L393.89,85.55L393.89,85.55z"/>
	</g>
	<g>
		
			<linearGradient id="SVGID_00000052078907147494995790000015232642952057028237_" gradientUnits="userSpaceOnUse" x1="435.1646" y1="123.4775" x2="418.0793" y2="61.2615">
			<stop  offset="1.385225e-07" style="stop-color:#FBB040"/>
			<stop  offset="1" style="stop-color:#E60000"/>
		</linearGradient>
		<path style="fill:url(#SVGID_00000052078907147494995790000015232642952057028237_);" d="M437.46,128.02l-0.4-0.73
			c-0.03-0.05-2.61-4.71-8.2-15.04c-4.89-9.03-13.04-21.83-13.12-21.96l-1.59-2.49l9.71,0.63l0.41,0.58
			c0.06,0.08,5.95,8.42,12.05,18.22c6.12,9.84,10.36,18.95,10.41,19.04l1.04,2.25L437.46,128.02z"/>
		<path class="st1" d="M417,89.49l6.05,0.39c0,0,5.85,8.27,12,18.15c6.15,9.88,10.32,18.88,10.32,18.88l-7-0.34
			c0,0-2.54-4.59-8.2-15.02C425.2,102.36,417,89.49,417,89.49 M411.29,86.11l3.17,4.99c0.08,0.13,8.2,12.89,13.06,21.87
			c5.6,10.33,8.18,15,8.21,15.05l0.81,1.46l1.67,0.08l7,0.34l4.95,0.24l-2.09-4.5c-0.17-0.37-4.32-9.28-10.49-19.2
			c-6.12-9.84-12.04-18.21-12.1-18.29l-0.83-1.17l-1.43-0.09l-6.05-0.39L411.29,86.11L411.29,86.11z"/>
	</g>
	<g>
		
			<linearGradient id="SVGID_00000147179029222617989380000006552404512405123514_" gradientUnits="userSpaceOnUse" x1="448.0658" y1="119.4758" x2="438.7231" y2="69.2189">
			<stop  offset="1.385225e-07" style="stop-color:#FBB040"/>
			<stop  offset="1" style="stop-color:#E60000"/>
		</linearGradient>
		<path style="fill:url(#SVGID_00000147179029222617989380000006552404512405123514_);" d="M453.66,128.81l-0.38-0.88
			c-0.04-0.1-4.27-9.82-9.56-18.55c-5.32-8.77-12.09-18.25-12.16-18.34l-1.83-2.56l8.75,0.52l0.42,0.58
			c0.05,0.07,5.27,7.35,11.37,17.16c6.12,9.83,11.03,19.99,11.08,20.09l1.07,2.22L453.66,128.81z"/>
		<path class="st1" d="M432.78,90.17l4.9,0.29c0,0,5.17,7.2,11.32,17.07s11,19.95,11,19.95l-5.34-0.15c0,0-4.24-9.8-9.66-18.73
			C439.59,99.68,432.78,90.17,432.78,90.17 M426.68,86.8l3.66,5.11c0.07,0.09,6.8,9.53,12.09,18.25c5.24,8.64,9.43,18.27,9.47,18.37
			l0.76,1.75l1.91,0.05l5.34,0.15l4.92,0.13l-2.14-4.44c-0.2-0.42-4.99-10.33-11.16-20.23c-6.13-9.85-11.38-17.17-11.43-17.24
			l-0.83-1.16l-1.42-0.09l-4.9-0.29L426.68,86.8L426.68,86.8z"/>
	</g>
	<g>
		
			<linearGradient id="SVGID_00000110446326915274690870000015100114744102825630_" gradientUnits="userSpaceOnUse" x1="461.8005" y1="122.1025" x2="458.289" y2="69.1104">
			<stop  offset="1.385225e-07" style="stop-color:#FBB040"/>
			<stop  offset="1" style="stop-color:#E60000"/>
		</linearGradient>
		<path style="fill:url(#SVGID_00000110446326915274690870000015100114744102825630_);" d="M469.57,129.56l-0.4-0.68
			c-0.05-0.09-5.28-8.92-10.63-17.74c-5.34-8.8-12.03-18.97-12.09-19.07l-1.65-2.5l8.63,0.52l0.41,0.62
			c0.05,0.07,4.87,7.23,10.96,17.02c6.11,9.83,11.14,19.93,11.19,20.03l1.16,2.35L469.57,129.56z"/>
		<path class="st1" d="M447.71,91.24l4.9,0.29c0,0,4.78,7.1,10.93,16.98c6.15,9.88,11.12,19.9,11.12,19.9l-4.2-0.29
			c0,0-5.22-8.83-10.63-17.76C454.41,101.44,447.71,91.24,447.71,91.24 M441.91,87.89l3.29,5c0.07,0.1,6.74,10.25,12.06,19.03
			c5.34,8.81,10.56,17.64,10.62,17.73l0.8,1.36l1.57,0.11l4.2,0.29l5.22,0.36l-2.33-4.69c-0.21-0.41-5.11-10.27-11.26-20.15
			c-6.1-9.81-10.94-17-10.99-17.07l-0.83-1.23l-1.48-0.09l-4.9-0.29L441.91,87.89L441.91,87.89z"/>
	</g>
</g>
</svg>
