<?xml version="1.0" encoding="utf-8"?>
<!-- Generator: Adobe Illustrator 26.0.1, SVG Export Plug-In . SVG Version: 6.00 Build 0)  -->
<svg version="1.1" id="Layer_1" xmlns="http://www.w3.org/2000/svg" xmlns:xlink="http://www.w3.org/1999/xlink" x="0px" y="0px"
	 viewBox="0 0 495.2 338.3" style="enable-background:new 0 0 495.2 338.3;" xml:space="preserve">
<style type="text/css">
	.st0{fill:#FFBC00;}
	.st1{fill:#42BEC1;}
	.st2{fill:url(#SVGID_1_);}
	.st3{fill:url(#SVGID_00000054263194770775188090000004356808947667674024_);}
	.st4{fill:url(#SVGID_00000149356576030838282890000000684795175528651143_);}
	.st5{fill:url(#SVGID_00000064344853980884664530000015518921346912739234_);}
	.st6{fill:url(#SVGID_00000057840088928199061990000006476815446902188459_);}
	.st7{fill:url(#SVGID_00000142150572682274692480000009389958663643299484_);}
	.st8{fill:url(#SVGID_00000101080524129583997070000007960275389451172509_);}
	.st9{fill:url(#SVGID_00000145736768847023623090000000357698676531605129_);}
	.st10{fill:url(#SVGID_00000101091553271825366760000000830515226620308876_);}
	.st11{fill:url(#SVGID_00000115513179409953756550000003370229373808422025_);}
	.st12{fill:url(#SVGID_00000047765244489504059860000005172237857546148262_);}
	.st13{fill:url(#SVGID_00000101782763568380816860000004868642997961901972_);}
	.st14{fill:url(#SVGID_00000172422292638059064330000009130382527199108257_);}
	.st15{fill:url(#SVGID_00000038405098262213671510000002126603338369935787_);}
	.st16{fill:url(#SVGID_00000031923586567018809660000001056309112557558167_);}
	.st17{fill:url(#SVGID_00000144324124452161491080000003117474710517894019_);}
	.st18{fill:url(#SVGID_00000174593833507985388330000012285015166984706473_);}
	.st19{fill:#FBB040;}
</style>
<g id="Layer_3">
	<g>
		<path class="st0" d="M60.3,210c0-0.1,3.1-10.4,4.4-16.1c1-4.4,2.5-12,3.2-15.4l-10.7,0.1l0.6-13l34.3-0.3l-1.3,12.9l-9.8,0.1
			c-0.5,2.6-1.7,9.2-3.2,15.4c-2.3,10.1-4.8,16.6-4.9,16.9l-0.3,0.9L59.7,212L60.3,210z"/>
		<path class="st1" d="M90.2,166.9l-1,9.9l-9.7,0.1c0,0-1.5,8.4-3.4,16.5c-2.3,10.1-4.8,16.7-4.8,16.7l-9.7,0.3
			c0,0,3.1-10.4,4.4-16.2s3.5-17.3,3.5-17.3l-11,0.1l0.4-9.9L90.2,166.9 M93.6,163.8l-3.4,0L59,164.1l-2.8,0l-0.1,2.8l-0.4,9.9
			l-0.1,3.2l3.2,0L66,180c-0.8,3.8-2,9.9-2.8,13.6c-1.3,5.7-4.3,15.9-4.3,16.1l-1.2,4l4.1-0.1l9.7-0.3l2-0.1l0.7-1.9
			c0.1-0.3,2.6-6.9,4.9-17.1c1.3-5.5,2.4-11.1,2.9-14.2l7.2-0.1l2.7,0l0.3-2.6l1-9.9L93.6,163.8L93.6,163.8z"/>
	</g>
	<g>
		<path class="st0" d="M95.8,209.3c-1.6,0-3-0.7-4-1.9c-1.6-2-1.9-5.2-1.4-7.2c0.2-1,0.6-2.5,1-4.2c0.7-2.7,1.5-6.1,2.1-8.8
			c0.9-4.4,1.5-8.6,2-12.6c0.6-4.8,5-10.1,11.8-10.2l3.4-0.1c4.2-0.1,7.8-0.2,11.9-0.2c2.4,0,4.5,0.8,5.9,2.4
			c1.6,1.8,2.4,4.4,2.2,7.3c-0.3,3.7-0.8,5.9-1.4,9c-0.3,1.3-0.6,2.8-0.9,4.6c-0.8,4.1-1.6,7.8-2.7,11.7c-1.2,4.6-4.7,9.4-9.1,9.7
			C113.2,209,99.5,209.3,95.8,209.3z M106.2,175.6c-0.3,2.3-1,7.1-1.4,10c-0.4,2.9-1.4,8.4-2,11.4l12.3-0.4
			c0.5-2.1,1.5-6.6,2.2-11.1c0.8-4.5,1.3-8.1,1.6-10.2L106.2,175.6z"/>
		<path class="st1" d="M122.6,165.5c5.1,0,6.9,4.2,6.6,8.1c-0.4,5.1-1.2,7.3-2.3,13.5c-0.7,3.5-1.5,7.2-2.6,11.6
			c-1.2,4.4-4.4,8.3-7.8,8.6c-3.4,0.3-17,0.6-20.6,0.6c-3.7,0-4.5-4.7-3.9-7.3c0.6-2.6,2.2-8.8,3.1-13c0.9-4.2,1.5-8.3,2.1-12.7
			c0.6-4.4,4.5-8.8,10.4-8.9C113.2,165.7,117.5,165.5,122.6,165.5 M101.9,198.6C101.9,198.6,101.9,198.6,101.9,198.6l13.8-0.4
			c0.4,0,0.7-0.3,0.8-0.6c0.4-1.7,1.5-6.7,2.3-11.7c0.8-5.1,1.5-9.1,1.8-11.1c0.1-0.5-0.3-0.9-0.8-0.9c0,0,0,0,0,0l-14.2,0.3
			c-0.4,0-0.7,0.3-0.8,0.7c-0.3,1.9-1,7.4-1.5,10.6c-0.5,3.2-1.7,9.7-2.2,12.2C101,198.1,101.4,198.6,101.9,198.6 M122.6,162.5
			c-4.1,0-7.8,0.1-11.9,0.2l-3.3,0.1c-7.7,0.2-12.6,6.1-13.3,11.5c-0.5,4-1.1,8.2-2,12.5c-0.5,2.6-1.4,6-2,8.7
			c-0.4,1.8-0.8,3.3-1,4.3c-0.6,2.5-0.2,6.1,1.7,8.5c1.3,1.6,3.1,2.5,5.2,2.5c3.7,0,17.4-0.3,20.9-0.6c5.3-0.5,9.1-5.9,10.4-10.9
			c1.1-3.9,1.9-7.7,2.7-11.8c0.4-1.8,0.7-3.3,0.9-4.6c0.7-3.1,1.1-5.4,1.4-9.2c0.3-3.3-0.7-6.3-2.6-8.4
			C127.9,163.5,125.4,162.5,122.6,162.5L122.6,162.5z M107.5,177.1l9.7-0.2c-0.3,2.1-0.8,5-1.4,8.4c-0.6,3.8-1.4,7.5-1.9,9.9
			l-9.3,0.3c0.6-3.1,1.3-7.3,1.7-9.6C106.6,183.4,107.1,179.7,107.5,177.1L107.5,177.1z"/>
	</g>
	<g>
		
			<linearGradient id="SVGID_1_" gradientUnits="userSpaceOnUse" x1="50.3834" y1="115.1154" x2="50.8108" y2="75.367" gradientTransform="matrix(1 0 0 -1 0 340)">
			<stop  offset="1.385225e-07" style="stop-color:#FBB040"/>
			<stop  offset="1" style="stop-color:#E60000"/>
		</linearGradient>
		<path class="st2" d="M34.9,266.6c0-0.1,4.4-11.6,6.5-19.1c1.4-4.9,2.7-9.3,3.4-11.8l-7.2,0.6l2.9-12.6l26.7-2.7l-3.4,13.4
			l-7.2,0.6c-0.7,2.4-2.5,8.6-4,13.6c-1.9,6.4-6.1,17.2-6.3,17.6l-0.3,0.8L34,269L34.9,266.6z"/>
		<path class="st1" d="M65.2,222.8L62.6,233l-7.2,0.6c0,0-2.4,8.2-4.3,14.6c-1.9,6.4-6.2,17.5-6.2,17.5l-8.6,1.4
			c0,0,4.4-11.6,6.6-19.2s4-13.9,4-13.9l-7.3,0.7l2.2-9.6L65.2,222.8 M69.2,219.4l-4.3,0.4l-23.5,2.3l-2.2,0.2l-0.5,2.1l-2.2,9.6
			l-0.9,4l4.1-0.4l3-0.3c-0.7,2.5-1.7,6-2.8,9.7c-2.1,7.4-6.5,18.8-6.5,18.9l-1.8,4.9l5.1-0.8l8.6-1.4l1.7-0.3l0.6-1.6
			c0.2-0.5,4.4-11.2,6.3-17.7c1.3-4.5,2.9-9.8,3.7-12.7l5.1-0.4l2.1-0.2l0.5-2.1l2.6-10.2L69.2,219.4L69.2,219.4z"/>
	</g>
	<g>
		
			<linearGradient id="SVGID_00000073723889153384598080000000210004723777065614_" gradientUnits="userSpaceOnUse" x1="77.7364" y1="112.2847" x2="79.8527" y2="80.5392" gradientTransform="matrix(1 0 0 -1 0 340)">
			<stop  offset="1.385225e-07" style="stop-color:#FBB040"/>
			<stop  offset="1" style="stop-color:#E60000"/>
		</linearGradient>
		<path style="fill:url(#SVGID_00000073723889153384598080000000210004723777065614_);" d="M59.4,262.6c0-0.1,5.4-14.4,7.6-21.8
			c2.2-7.5,5.3-18.8,5.3-18.9l0.3-1l10.7-1l-0.9,2.3c0,0-1.7,4.4-2.7,8c-0.4,1.5-1,3.8-1.5,5.4l6.5-0.4c0.4-1.2,1-3.3,1.8-6.1
			c1.2-4.2,2.7-9.4,2.7-9.4l0.3-1l9.3-0.4l-0.6,2.1c0,0-3,9.7-5.9,19.2c-2.9,9.4-6.3,19.9-6.3,20l-0.3,0.8l-10.5,2.1l0.9-2.5
			c0-0.1,2.1-6,3-8.8c0.5-1.7,1.5-4.6,2.2-6.6l-5.8,0.5c-0.5,1.4-1.5,4.4-2.5,7.2c-1.3,4-3.2,9.5-3.2,9.5l-0.3,0.8l-11,2.6
			L59.4,262.6z"/>
		<path class="st1" d="M96.8,219.8c0,0-3,9.7-5.9,19.2s-6.3,20-6.3,20l-7.1,1.4c0,0,2.1-6,3-8.8s2.8-8.8,2.8-8.8l-9.1,0.8
			c0,0-1.5,4.2-2.8,8.2c-1.3,4-3.2,9.5-3.2,9.5l-7.4,1.8c0,0,5.4-14.3,7.6-21.9s5.3-18.9,5.3-18.9l7.2-0.7c0,0-1.8,4.5-2.8,8.2
			c-0.7,2.6-2.1,7.4-2.1,7.4l9.7-0.6c0,0,0.9-2.9,2.1-7.1c1.2-4.2,2.7-9.4,2.7-9.4L96.8,219.8 M101,216.6l-4.3,0.2l-6.2,0.3
			l-2.1,0.1l-0.6,2c0,0.1-1.6,5.2-2.7,9.4c-0.6,2.1-1.1,3.8-1.5,5l-3.4,0.2c0.3-1.2,0.7-2.4,0.9-3.4c1-3.5,2.7-7.9,2.7-7.9l1.8-4.5
			l-4.8,0.4l-7.2,0.7l-2.1,0.2l-0.6,2c0,0.1-3.2,11.4-5.3,18.9c-2.1,7.4-7.5,21.6-7.5,21.7l-2,5.3l5.5-1.3l7.4-1.8l1.6-0.4l0.5-1.6
			c0-0.1,1.9-5.5,3.2-9.6c0.8-2.3,1.6-4.7,2.1-6.3l2.6-0.2c-0.5,1.6-1.1,3.3-1.4,4.5c-0.8,2.7-2.9,8.7-3,8.7l-1.7,5l5.2-1l7.1-1.4
			l1.7-0.3l0.6-1.7c0-0.1,3.5-10.6,6.4-20.1c2.9-9.4,5.9-19.1,5.9-19.2L101,216.6L101,216.6z"/>
	</g>
	<g>
		
			<linearGradient id="SVGID_00000063616624489149072730000017186898189359645861_" gradientUnits="userSpaceOnUse" x1="107.5087" y1="112.7611" x2="109.2015" y2="92.4476" gradientTransform="matrix(1 0 0 -1 0 340)">
			<stop  offset="1.385225e-07" style="stop-color:#FBB040"/>
			<stop  offset="1" style="stop-color:#E60000"/>
		</linearGradient>
		<path style="fill:url(#SVGID_00000063616624489149072730000017186898189359645861_);" d="M92.8,256.9c0-0.1,4.6-11.8,7.2-19.5
			c2.6-7.8,5.4-19,5.5-19.1l0.3-1.1l19.2-1.3l-2.6,9.7l-9.6,0.2c-0.2,0.6-0.4,1.4-0.5,2.1c-0.1,0.6-0.4,1.6-0.6,2.5l8.3-0.3
			l-2.5,9.3l-8.8,0.3c-0.3,1-0.8,2.6-1.2,3.6c-0.2,0.7-0.7,2-1.1,3.1l9.4-0.7l-0.8,2.2c0,0-1,2.8-1.8,4.9s-1,2.8-1.1,2.9l-0.3,0.7
			l-20,3L92.8,256.9z"/>
		<path class="st1" d="M122.9,217.5l-1.8,6.6l-9.6,0.2c0,0-0.5,1.9-0.8,3.2s-1.1,4.4-1.1,4.4l8.3-0.3l-1.7,6.2l-8.7,0.3
			c0,0-0.9,3.1-1.5,4.6s-1.8,5.2-1.8,5.2l9.4-0.7c0,0-1,2.8-1.8,4.9c-0.7,2.1-1,2.7-1,2.7l-16.7,2.5c0,0,4.5-11.7,7.2-19.6
			s5.5-19.2,5.5-19.2L122.9,217.5 M126.9,214.2l-4.2,0.3l-16,1.1l-2.2,0.1l-0.5,2.1c0,0.1-2.9,11.3-5.4,19
			c-2.6,7.7-7.1,19.4-7.1,19.5l-1.9,4.8l5.1-0.8l16.7-2.5l1.5-0.2l0.7-1.4c0.1-0.2,0.4-0.9,1.2-3.1c0.7-2.1,1.7-4.8,1.7-4.8l1.6-4.4
			l-4.6,0.3l-4.8,0.3c0.1-0.4,0.2-0.7,0.3-0.9c0.2-0.7,0.6-1.7,0.8-2.6l6.6-0.2l2.2-0.1l0.6-2.1l1.7-6.2l1-3.9l-4,0.1l-4.3,0.1
			c0.1-0.2,0.1-0.4,0.1-0.6c0.1-0.3,0.1-0.6,0.2-0.9l7.3-0.2l2.2-0.1l0.6-2.2l1.8-6.6L126.9,214.2L126.9,214.2z"/>
	</g>
	<g>
		
			<linearGradient id="SVGID_00000124139550783950517010000007293601630295958420_" gradientUnits="userSpaceOnUse" x1="158.1855" y1="140.5102" x2="157.5776" y2="93.0955" gradientTransform="matrix(1 0 0 -1 0 340)">
			<stop  offset="1.385225e-07" style="stop-color:#FBB040"/>
			<stop  offset="1" style="stop-color:#E60000"/>
		</linearGradient>
		<path style="fill:url(#SVGID_00000124139550783950517010000007293601630295958420_);" d="M124.1,251.7c0.1-0.3,9.7-28.2,13.4-44.3
			c3.7-16.1,6.7-40.9,6.7-41.2l0.1-1.3l1.3-0.1c0.2,0,22.4-0.9,32.1-0.9c1.6,0,2.8,0,3.6,0.1c3.8,0.2,7.2,1.8,9.3,4.2
			c1.5,1.7,2.1,3.7,2,5.8c-0.2,3.1-2.4,11.8-4.7,20.8c-1.5,6-6.4,9.1-10,10.7c3.1,1.7,5.8,4.6,4.8,8.5c-1.6,6.2-6.8,20.1-8.4,24.5
			c-2.1,5.4-5.6,8.5-10.8,9.5c-4,0.8-36.4,5.5-37.8,5.7l-2.4,0.4L124.1,251.7z M156.4,219.2c-0.5,1.6-1.4,4.9-2.1,6.9
			c-0.5,1.6-1.1,3.7-1.5,5.2c2.8-0.1,6.1-0.3,6.9-0.5c1.7-0.3,2-1.2,2.1-1.5c0.4-1,1-3.2,1.6-5.1l0.6-2c0.2-0.7,0.8-2.7,0.5-3.1
			c0,0-0.2-0.1-0.7-0.1c-0.4,0-0.7,0-1.1,0C160.6,219,157.9,219.1,156.4,219.2z M163.3,185.7c-0.3,1.6-0.9,4.6-1.2,6.3
			c-0.2,1.6-0.8,4.3-1.2,6.1c2.6-0.1,6.9-0.2,8-0.3c0.5,0,1.5-0.1,2-2.6c0.3-1.2,0.6-2.7,1-4.2c0.4-1.8,0.9-3.6,1-4.3
			c0-0.1,0-0.3-0.2-0.6c-0.2-0.2-0.6-0.5-1.3-0.5h-0.1C170.3,185.7,165.6,185.7,163.3,185.7z"/>
		<path class="st1" d="M177.8,165.4c1.5,0,2.7,0,3.6,0.1c5.4,0.4,10.2,3.7,9.9,8.4c-0.2,2.9-2.4,11.8-4.7,20.6
			c-2.2,8.8-12.8,10.9-12.8,10.9s9.1,2.5,7.6,8.3c-1.5,5.8-6.2,18.7-8.4,24.3s-5.7,7.8-9.7,8.6c-4,0.8-37.8,5.7-37.8,5.7
			s9.7-28.1,13.5-44.5s6.7-41.4,6.7-41.4S167.9,165.4,177.8,165.4 M159.1,199.7c0,0,8.3-0.3,9.9-0.4s2.8-1.2,3.4-3.8
			s1.9-7.3,2.1-8.6c0.2-1.2-1-2.8-3-2.8c-0.1,0-0.1,0-0.2,0c-1.4,0.1-9.2,0.1-9.2,0.1s-1.1,5.1-1.5,7.6
			C160.2,194.4,159.1,199.7,159.1,199.7 M150.9,232.9c0,0,7.6-0.3,9.2-0.6c1.6-0.3,2.7-1.1,3.2-2.4s1.5-4.7,2.1-6.9
			c0.7-2.2,1.8-5.4-1.5-5.5c-0.4,0-0.7,0-1.1,0c-3.2,0-7.5,0.3-7.5,0.3s-1.5,5.1-2.3,7.9C152.1,228.5,150.9,232.9,150.9,232.9
			 M177.8,162.4c-9.8,0-31.3,0.9-32.2,1l-2.6,0.1l-0.3,2.5c0,0.2-2.9,25-6.7,41c-3.7,16.1-13.3,43.9-13.4,44.2l-1.6,4.6l4.9-0.7
			c1.4-0.2,33.9-4.9,37.9-5.7c5.7-1.1,9.6-4.5,11.9-10.4c1.7-4.4,6.9-18.4,8.5-24.6c1-3.8-0.8-6.7-3.3-8.7c3.4-1.9,7.1-5.2,8.5-10.5
			c2.7-10.5,4.5-18.1,4.8-21.1c0.2-2.5-0.6-4.9-2.3-6.9c-2.3-2.7-6.2-4.4-10.3-4.7C180.7,162.4,179.4,162.4,177.8,162.4L177.8,162.4
			z M164.6,187.2c2.4,0,5.9,0,6.9-0.1c-0.2,0.9-0.6,2.3-0.9,3.5c-0.4,1.5-0.8,3.1-1,4.3c-0.2,1.1-0.5,1.4-0.6,1.4l0,0c0,0,0,0-0.1,0
			c-0.9,0.1-3.7,0.2-6.1,0.2c0.3-1.5,0.6-3.2,0.8-4.3C163.8,190.9,164.2,188.8,164.6,187.2L164.6,187.2z M157.6,220.6
			c1.5-0.1,3.5-0.2,5.2-0.2c0.1,0,0.1,0,0.2,0c-0.1,0.5-0.3,1-0.4,1.4l-0.1,0.2c-0.2,0.5-0.3,1.1-0.5,1.7c-0.6,1.9-1.2,4.1-1.6,5.1
			c-0.1,0.2-0.4,0.4-0.9,0.5c-0.5,0.1-2.4,0.2-4.6,0.4c0.3-1.1,0.6-2.2,0.9-3.1C156.3,224.9,157.1,222.4,157.6,220.6L157.6,220.6z"
			/>
	</g>
	<g>
		
			<linearGradient id="SVGID_00000088844685810840768430000000466034708064887993_" gradientUnits="userSpaceOnUse" x1="219.1631" y1="151.2301" x2="220.3795" y2="100.4414" gradientTransform="matrix(1 0 0 -1 0 340)">
			<stop  offset="1.385225e-07" style="stop-color:#FBB040"/>
			<stop  offset="1" style="stop-color:#E60000"/>
		</linearGradient>
		<path style="fill:url(#SVGID_00000088844685810840768430000000466034708064887993_);" d="M188.4,243.2c-0.3,0-0.5,0-0.8,0
			c-2.1-0.1-3.8-0.9-4.9-2.5c-1.9-2.6-1.7-6.6-0.9-9.4c0.4-1.4,1.3-3.8,2.4-7.1c2.1-6,5.3-15,8-24.2c3.1-10.6,8.4-35.8,8.5-36.1
			l0.2-1.1l21.8-0.9l-0.5,1.9c0,0-5.2,21.3-7.4,30.5c-1.1,4.4-4.6,19.1-5.4,21.4c-0.2,0.7-0.2,1.4-0.1,1.9c2.4-0.2,6.4-0.4,9.3-0.7
			c0.2,0,1.1-0.3,2.4-3.5c0.9-2.2,5.2-14.7,7.2-22.7c2.7-10.4,7.2-28.2,7.2-28.4l0.3-1.1l21.6-1.3l-0.5,2c-0.1,0.2-6.2,24.4-10.3,37
			c-0.9,2.8-2.1,6.5-3.3,10.4c-3.1,9.9-6.3,20.1-7.4,22.4c-2.6,5.1-6.7,8.1-12.4,8.8C220.8,240.9,195.1,243.2,188.4,243.2
			L188.4,243.2z"/>
		<path class="st1" d="M255.5,161.6c0,0-6.1,24.2-10.2,36.9c-3.1,9.7-9.1,29.5-10.6,32.6c-1.6,3.1-4.6,7.1-11.2,8
			c-2.9,0.4-28.4,2.6-34.9,2.6c-0.3,0-0.5,0-0.7,0c-5.2-0.2-5.6-5.9-4.4-9.9s6.3-17.2,10.4-31.3c3.1-10.7,8.5-36.2,8.5-36.2
			l18.6-0.8c0,0-5.2,21.3-7.4,30.5c-2.2,9.3-4.8,19.5-5.4,21.3c-0.6,1.7-0.1,3.9,0.7,3.9c0,0,0,0,0,0c2.8-0.2,7-0.5,10.1-0.8
			c1.6-0.1,2.7-2.2,3.6-4.4s5.2-14.8,7.3-22.9c2.7-10.5,7.2-28.4,7.2-28.4L255.5,161.6 M259.4,158.4l-4.1,0.2l-18.4,1.1l-2.2,0.1
			l-0.5,2.1c0,0.2-4.5,18-7.2,28.4c-2,7.8-6.3,20.4-7.2,22.5c-0.7,1.7-1.2,2.4-1.4,2.6c-2.2,0.2-5,0.4-7.2,0.6
			c0.9-2.8,4-15.7,5.4-21.3c2.2-9.3,7.4-30.5,7.4-30.5l0.9-3.9l-4,0.2l-18.6,0.8l-2.3,0.1l-0.5,2.3c-0.1,0.2-5.4,25.5-8.4,36
			c-2.7,9.2-5.9,18.1-8,24.1c-1.2,3.4-2.1,5.8-2.5,7.2c-0.9,3.2-1.1,7.6,1.1,10.7c1,1.4,2.8,3,6.1,3.1c0.2,0,0.5,0,0.8,0
			c6.9,0,32.5-2.3,35.3-2.7c6.2-0.8,10.7-4.1,13.5-9.6c1.1-2.3,3.7-10.4,7.5-22.6c1.2-3.9,2.4-7.6,3.3-10.4
			c4.1-12.6,10.2-36.8,10.3-37.1L259.4,158.4L259.4,158.4z"/>
	</g>
	<g>
		
			<linearGradient id="SVGID_00000104704971820682924400000013232126684981245103_" gradientUnits="userSpaceOnUse" x1="274.604" y1="162.1141" x2="271.4956" y2="109.8931" gradientTransform="matrix(1 0 0 -1 0 340)">
			<stop  offset="1.385225e-07" style="stop-color:#FBB040"/>
			<stop  offset="1" style="stop-color:#E60000"/>
		</linearGradient>
		<path style="fill:url(#SVGID_00000104704971820682924400000013232126684981245103_);" d="M240.9,232.5c0.1-0.2,8.2-24.7,11.5-35.4
			c3.1-10,10.5-36.7,10.6-36.9l0.3-1l1.1-0.1c0.2,0,18.4-1.1,27.8-1.1c1.7,0,3,0,3.9,0.1c3.8,0.3,6.7,1.6,8.4,3.7
			c1.5,1.9,2.1,4.4,1.7,7.1c-0.7,5.1-4.5,18.2-6.2,23.8c-2.6,8.2-8.4,11.8-12.3,13.4c1.6,1.1,3.5,2.9,5.3,5.5
			c4.2,6.2,3.7,9.5,3.3,11.9c-0.1,0.5-0.2,1-0.2,1.4l0,1.3l-23.9,3.1l0.7-2.2c0.6-1.9,2-7.4,1.1-10.5c-1.6-5.2-3.9-5.9-5.4-6h-0.1
			c-0.3,0-0.5,0-0.8,0.1c-0.6,1.6-1.9,5.7-3.2,9.8c-1.8,5.5-4.1,10.3-4.2,10.5l-0.3,0.7l-19.9,3.1L240.9,232.5z M273.3,193.8
			c0.7,0,1.5,0,2.2,0c1,0,2,0,2.8,0c2.2-0.1,5.7-1.7,6.1-3.1c0.8-2.3,1.5-5.5,2.1-8.6c0.2-1.3-0.1-2.8-0.9-3.7
			c-0.4-0.5-1.1-1.1-2.2-1.1c-1.1,0-2.2,0-3.2,0s-2,0-2.6,0c-0.6,2-1.8,6.4-2.3,8.5C274.9,187.6,273.9,191.5,273.3,193.8z"/>
		<path class="st1" d="M292.1,159.5c1.6,0,2.9,0,3.8,0.1c6.6,0.5,9.5,4.2,8.8,9.2c-0.7,5-4.3,17.7-6.1,23.5
			c-3.7,11.7-14.7,13.5-14.7,13.5s4.2,1.2,8,6.7c4.9,7.1,2.9,9.7,2.8,12.4l-20.3,2.6c0,0,2.3-7.2,1.1-11.4s-3.3-6.9-6.8-7
			c0,0-0.1,0-0.1,0c-1,0-1.9,0.3-1.9,0.3s-1.8,5.2-3.5,10.6c-1.8,5.5-4.1,10.3-4.1,10.3l-16.7,2.7c0,0,8.2-24.6,11.5-35.4
			c3.1-10.2,10.6-37,10.6-37S282.7,159.5,292.1,159.5 M275.5,195.3c1,0,2.1,0,2.9,0c2.3-0.1,6.7-1.8,7.5-4.2s1.6-5.7,2.1-8.8
			s-1.3-6.5-4.5-6.6c-1.1,0-2.2,0-3.2,0c-2.1,0-3.8,0-3.8,0s-2,6.7-2.6,9.7s-2.5,9.9-2.5,9.9S273.5,195.3,275.5,195.3 M292.1,156.5
			c-9.4,0-27.1,1-27.9,1.1l-2.1,0.1l-0.6,2.1c-0.1,0.3-7.5,26.9-10.6,36.9c-3.3,10.7-11.4,35.1-11.5,35.3l-1.6,4.7l4.9-0.8l16.7-2.6
			l1.6-0.2l0.7-1.4c0.1-0.2,2.5-5.1,4.2-10.7c1.1-3.5,2.2-6.9,2.9-8.8c0.9,0.1,2.5,0.6,3.8,4.9c0.7,2.4-0.3,7.2-1.1,9.6l-1.5,4.5
			l4.7-0.6l20.3-2.6l2.5-0.3l0.1-2.5c0-0.3,0.1-0.8,0.2-1.2c0.6-3.3,0.7-6.8-3.5-13c-1.2-1.8-2.5-3.2-3.8-4.3
			c3.9-2.1,8.6-6,10.9-13.3c1.8-5.8,5.5-18.7,6.3-24c0.4-3.2-0.3-6.1-2.1-8.3c-1.4-1.7-4.2-3.9-9.5-4.3
			C295.2,156.6,293.9,156.5,292.1,156.5L292.1,156.5z M278.8,178.6c0.5,0,1,0,1.5,0c1.2,0,2.2,0,3.2,0c0.3,0,0.7,0.1,1.1,0.6
			c0.5,0.6,0.7,1.6,0.6,2.5c-0.6,3.1-1.3,6.1-2,8.4c-0.3,0.7-3,2-4.8,2.1c-0.6,0-1.6,0-2.7,0c-0.1,0-0.2,0-0.3,0
			c0.6-2.2,1.2-4.8,1.6-6.3C277.2,184.2,278.2,180.8,278.8,178.6L278.8,178.6z"/>
	</g>
	<g>
		
			<linearGradient id="SVGID_00000169542656982597877050000015164658976130301604_" gradientUnits="userSpaceOnUse" x1="329.9695" y1="165.3878" x2="329.9695" y2="117.2983" gradientTransform="matrix(1 0 0 -1 0 340)">
			<stop  offset="1.385225e-07" style="stop-color:#FBB040"/>
			<stop  offset="1" style="stop-color:#E60000"/>
		</linearGradient>
		<path style="fill:url(#SVGID_00000169542656982597877050000015164658976130301604_);" d="M305.5,224.8c-1.5,0-2.7-0.6-3.6-1.9
			c-2.1-2.9-1.7-8.5-1-10.8c0.4-1.2,1.7-5,3.2-9.4c2-5.9,4.6-13.3,5.8-17.1c1.9-6,4.3-13.8,5.8-18.5l0.5-1.5
			c1.7-5.6,5.4-8.3,11.4-8.6c6.2-0.3,29.7-1,30-1l2.1-0.1l-5,15.7l-1.1,0c-1.5,0-3.3,0-5.1,0c-4.9,0-9.8,0.1-12.6,0.1
			c-3.7,0.1-5.7,0.9-7.2,5.6c-0.7,2.1-2.2,6.4-3.8,10.8c-2.2,6.1-4.6,13-5,14.6c-0.3,1.4-0.2,2.1-0.1,2.4c1.1,0,3.9,0,6.7-0.3
			c1.8-0.2,2.7-1.8,3.6-3.9c0.2-0.4,0.3-0.8,0.5-1.1c0.3-0.6,0.6-1.4,0.9-2l-5.8-0.2l5.1-14.7l20.1-0.7l-0.8,2.1
			c-0.2,0.5-4.4,12.1-6.7,17.3c-2.3,5.4-5,11.2-6.2,13.6c-1,1.9-3.9,6.5-10.6,7.6c-3.6,0.6-16.7,1.7-21.2,1.9L305.5,224.8z"/>
		<path class="st1" d="M357.6,157.5l-4,12.6c-1.5,0-3.3,0-5.1,0c-4.5,0-9.5,0.1-12.6,0.1c-4.4,0.1-6.9,1.5-8.6,6.6
			s-8.1,22.6-8.8,25.6s0.2,4.2,1.2,4.2s4,0,7-0.3c3.4-0.3,4.4-4.1,5.3-5.9c0.9-1.8,1.9-4.1,1.9-4.1l-6-0.2l4.1-11.8l16.9-0.6
			c0,0-4.4,12-6.6,17.3s-4.9,11-6.1,13.6s-4.2,5.9-9.5,6.8c-3.5,0.6-16.3,1.7-21,1.9c0,0-0.1,0-0.1,0c-4.4,0-4-7.9-3.2-10.7
			c0.9-2.8,6.9-19.8,9.1-26.5c2.1-6.7,5-15.9,6.2-20c1.3-4.1,3.8-7.2,10-7.5C333.9,158.2,357.6,157.5,357.6,157.5 M361.8,154.4
			l-4.2,0.1c-1,0-23.8,0.7-30,1c-6.7,0.3-10.9,3.5-12.8,9.6l-0.4,1.4c-1.5,4.7-3.9,12.5-5.8,18.6c-1.2,3.8-3.8,11.2-5.8,17.1
			c-1.6,4.6-2.9,8.2-3.2,9.5c-0.7,2.3-1.4,8.6,1.2,12.1c1.2,1.6,2.9,2.5,4.9,2.5c0.1,0,0.2,0,0.3,0c4.6-0.2,17.6-1.3,21.3-1.9
			c7.3-1.2,10.6-6.3,11.6-8.4c1.2-2.5,3.9-8.3,6.2-13.7c2.2-5.3,6.5-16.9,6.7-17.4l1.5-4.2l-4.5,0.1l-16.9,0.6l-2.1,0.1l-0.7,1.9
			l-4.1,11.8l-1.3,3.9l4.1,0.1l1.5,0.1c-0.2,0.3-0.3,0.7-0.5,1.1c-0.9,2-1.4,3-2.4,3.1c-1.9,0.2-3.7,0.2-5.1,0.3
			c0-0.1,0.1-0.3,0.1-0.5c0.4-1.6,2.9-8.7,4.9-14.5c1.6-4.5,3.1-8.7,3.8-10.9c1.2-3.8,2.5-4.5,5.8-4.6c2.8-0.1,7.7-0.1,12.5-0.1
			c2,0,3.7,0,5.1,0l2.2,0l0.7-2.1l4-12.6L361.8,154.4L361.8,154.4z"/>
	</g>
	<g>
		
			<linearGradient id="SVGID_00000076572919874906864730000009278387574282548114_" gradientUnits="userSpaceOnUse" x1="375.5584" y1="167.0097" x2="373.3928" y2="125.8636" gradientTransform="matrix(1 0 0 -1 0 340)">
			<stop  offset="1.385225e-07" style="stop-color:#FBB040"/>
			<stop  offset="1" style="stop-color:#E60000"/>
		</linearGradient>
		<path style="fill:url(#SVGID_00000076572919874906864730000009278387574282548114_);" d="M345.9,215.6c0-0.1,4.4-10.1,10.3-26.2
			c3.4-9.2,10.7-32.3,10.8-32.5l0.3-1l37.5-1.4l-5.6,15.7l-18.5,0.9l-2.9,8.3l14.6-1l-5.9,14l-13,0.9l-3,7l18.8-2.1l-7.4,15.6
			l-37.1,4.1L345.9,215.6z"/>
		<path class="st1" d="M402.7,156.1l-4.5,12.7l-18.5,0.9l-4,11.4l14.4-1l-4.6,10.9l-13,0.9l-4.4,10.2l18.7-2.1l-5.9,12.4l-33.8,3.7
			c0,0,4.3-9.9,10.3-26.2c3.5-9.3,10.8-32.6,10.8-32.6L402.7,156.1 M407,153l-4.4,0.2l-34.2,1.3l-2.1,0.1l-0.6,2
			c-0.1,0.2-7.4,23.3-10.8,32.4c-6,16-10.2,26-10.3,26.1l-2,4.7l5.1-0.6l33.8-3.7l1.7-0.2l0.7-1.5l5.9-12.4l2.3-4.9l-5.3,0.6
			l-13.6,1.5l1.6-3.8l11.1-0.8l1.9-0.1l0.7-1.7l4.6-10.9l1.9-4.5l-4.9,0.3l-9.9,0.7l1.8-5.2l16.5-0.8l2-0.1l0.7-1.9l4.5-12.7
			L407,153L407,153z"/>
	</g>
	<g>
		
			<linearGradient id="SVGID_00000159443654269208704310000004740293482894570152_" gradientUnits="userSpaceOnUse" x1="417.5103" y1="164.3882" x2="416.2713" y2="129.6981" gradientTransform="matrix(1 0 0 -1 0 340)">
			<stop  offset="1.385225e-07" style="stop-color:#FBB040"/>
			<stop  offset="1" style="stop-color:#E60000"/>
		</linearGradient>
		<path style="fill:url(#SVGID_00000159443654269208704310000004740293482894570152_);" d="M391.4,210c0.1-0.2,7.4-17.9,11-27.4
			c3.6-9.4,8.9-26.7,9-26.9l0.3-1l1.1,0c0.2,0,21.9-0.4,24.6-0.5h0.2c1.9,0,3.6,0.7,4.7,1.9c0.8,0.9,1.8,2.5,1.5,5.1
			c-0.3,4.2-5.7,19.5-7.6,22.9c-1.8,3.3-5.4,4.5-8.2,4.9c1.1,1.2,2.3,2.8,3.3,4.7c2.6,4.9-0.2,12.9-0.4,13.2l-0.3,0.9l-17,2.2
			l1.1-2.5c1.3-2.8,3.2-7.9,3.1-10c-0.1-1.8-2.1-2.9-2.8-3.2h0l-7.8,16.4l-16.9,1.5L391.4,210z M419.3,179.6c0.8,0,1.7,0,2.5,0
			c1.4,0,2,0,2.2,0c0.7,0,2.2-0.8,2.6-1.8c0.6-1.6,2-6.2,2.4-7.7c0.3-1.3,0.2-1.8,0.2-2c0,0-0.1,0-0.1,0c-1.4-0.1-4.6-0.1-6.2-0.1
			c-0.4,1.4-1.2,3.9-1.8,5.8C420.5,175.5,419.8,178,419.3,179.6z"/>
		<path class="st1" d="M437.5,155.7c2.6,0,5.1,1.6,4.8,5.4c-0.3,3.9-5.5,18.9-7.4,22.3c-2.2,4-7.9,4.3-9.8,4.3c-0.4,0-0.6,0-0.6,0
			s3.2,2.4,5.6,6.7c2.3,4.3-0.4,12-0.4,12l-13.5,1.8c0,0,3.4-7.5,3.2-10.7c-0.2-3.1-3.9-4.6-3.9-4.6l-1.3-0.1l-7.8,16.5l-13.6,1.2
			c0,0,7.4-17.8,11-27.4c3.7-9.6,9-26.9,9-26.9s21.9-0.4,24.6-0.5C437.4,155.7,437.5,155.7,437.5,155.7 M421.8,181.1
			c1,0,1.9,0,2.3,0c1.2-0.1,3.2-1.1,3.9-2.8s2-6.3,2.4-7.9s0.7-3.7-1.3-3.8s-7.4-0.1-7.4-0.1s-1.3,4.1-2.1,6.9s-2.3,7.7-2.3,7.7
			S419.8,181.1,421.8,181.1 M437.5,152.7c-0.1,0-0.2,0-0.3,0c-2.7,0.1-24.4,0.5-24.6,0.5l-2.2,0l-0.6,2.1c0,0.2-5.4,17.4-9,26.8
			c-3.6,9.4-10.9,27.2-11,27.3l-1.9,4.6l4.9-0.4l13.6-1.2l1.7-0.1l0.7-1.6l6.7-14.1c0.4,0.3,0.6,0.7,0.7,1.1c0.1,1.4-1.5,5.9-3,9.2
			l-2.2,4.9l5.4-0.7l13.5-1.8l1.8-0.2l0.6-1.7c0.3-0.9,3.2-9.1,0.3-14.4c-0.6-1.1-1.3-2.2-2-3.1c2.6-0.8,5.2-2.2,6.8-5.1
			c2-3.6,7.4-19.1,7.8-23.6c0.2-3.2-0.9-5.1-2-6.2C442,153.5,439.9,152.7,437.5,152.7L437.5,152.7z M421.3,178.1
			c0.4-1.3,0.8-2.8,1.1-3.9c0.4-1.5,1-3.3,1.4-4.7c1.1,0,2.5,0,3.6,0c0,0.1,0,0.1,0,0.2c-0.3,1.4-1.7,5.9-2.3,7.5
			c-0.1,0.3-0.9,0.8-1.3,0.9c-0.1,0-0.6,0-2.1,0C421.7,178.1,421.5,178.1,421.3,178.1L421.3,178.1z"/>
	</g>
</g>
<g id="Layer_2_00000101817105424435374690000000512314557723501756_">
	<g>
		
			<linearGradient id="SVGID_00000012455986683886979560000000233300729577358734_" gradientUnits="userSpaceOnUse" x1="87.7695" y1="205.7468" x2="71.8119" y2="287.6422" gradientTransform="matrix(1 0 0 -1 0 340)">
			<stop  offset="1.385225e-07" style="stop-color:#FBB040"/>
			<stop  offset="1" style="stop-color:#E60000"/>
		</linearGradient>
		<path style="fill:url(#SVGID_00000012455986683886979560000000233300729577358734_);" d="M56.5,155.8c0-0.4-3.7-40.5-10.9-62.9
			c-7.2-22.4-20.8-52.4-20.9-52.7l-1.1-2.4l2.6,0.3c0.6,0.1,57.2,6.5,65.1,7.6c10.7,1.5,17.4,5.4,19.7,11.6l0.1,0.4
			c2.7,7.1,5.8,15.3,6.9,24c0.7,5.6-1.8,9.5-4.4,11.8c4.4,1.6,12,5.7,14.1,14.9c3,13.5,4.6,22.7,4.9,29c0.6,10.8-5,17.1-16.2,18.3
			c-13.2,1.4-56.7,1.5-58.5,1.5h-1.4L56.5,155.8z M86.7,125.3c2,0,6,0,9.3,0c2.7,0,4.4,0,5.2-0.1c0.4,0,0.8-0.3,1.2-0.7
			c0.8-0.9,1.2-2.5,1-3.8c-0.2-1.4-0.7-3.7-1.2-5.8c-0.4-1.7-0.7-3.3-0.9-4.2c0-0.2-0.8-4.3-4.5-4.6c-2.8-0.2-10.5-0.3-14.2-0.3
			c0.7,2.6,1.8,7.2,2.2,9.4C85.4,117.5,86.2,122.9,86.7,125.3z M76.1,83.1c3.5,0.1,13.8,0.4,15.3,0.4c0.1,0,0.3-0.1,0.6-0.5
			c0.6-0.8,0.9-2,0.6-2.8c-0.4-1.5-1.6-4.7-2.5-7.1c-0.3-0.9-0.6-1.7-0.8-2.2c-0.5-1.5-2.9-3.6-5.1-3.9c-1.9-0.3-9.2-0.6-12.8-0.8
			c0.7,2.4,1.9,6.3,2.3,7.6C74.2,75.4,75.5,80.8,76.1,83.1z"/>
		<path class="st1" d="M26.1,39.5c0,0,57,6.5,65.1,7.6c9.9,1.4,16.4,4.9,18.5,10.6c2.7,7.2,5.8,15.3,7,24c1.1,8.7-6.4,12.2-6.4,12.2
			s13.4,2.6,16.1,14.7c2.7,12.1,4.5,22,4.9,28.8c0.4,6.7-1.6,15.3-14.9,16.7s-58.4,1.5-58.4,1.5s-3.7-40.4-11-63.2
			C39.8,69.6,26.1,39.5,26.1,39.5 M91.3,85c1.8,0,3.3-3.2,2.7-5.2c-0.6-2.1-2.6-7.3-3.3-9.4s-3.7-4.5-6.3-4.9s-15.1-0.8-15.1-0.8
			s2.3,7.7,2.9,9.6c0.6,1.9,2.7,10.2,2.7,10.2S89.5,85,91.3,85 M96,126.8c2.3,0,4.4,0,5.2-0.1c2.6-0.1,4-3.7,3.7-6.2
			c-0.4-2.6-1.7-7.9-2.1-10.1s-2.1-5.6-5.8-5.8s-16.2-0.4-16.2-0.4s2.1,8.2,2.7,11.2s1.9,11.3,1.9,11.3S91.3,126.8,96,126.8
			 M21.2,36l2.2,4.8c0.1,0.3,13.7,30.2,20.9,52.6c7.1,22.2,10.8,62.2,10.8,62.6l0.2,2.7l2.8,0c1.8,0,45.4-0.1,58.7-1.5
			c12-1.3,18.2-8.3,17.6-19.9c-0.4-6.4-1.9-15.7-5-29.2c-1.9-8.5-8.2-12.9-12.9-15.1c2.2-2.6,3.9-6.5,3.3-11.5
			c-1.2-8.9-4.3-17.1-7-24.3l-0.1-0.4c-2.6-6.8-9.6-11-20.9-12.5c-7.9-1.1-62.8-7.3-65.1-7.6L21.2,36L21.2,36z M77.3,81.6
			c-0.7-2.6-1.7-6.8-2.2-8.2c-0.3-1-1-3.4-1.7-5.6c4.1,0.2,9.1,0.4,10.6,0.7c1.6,0.2,3.6,1.9,3.9,2.9c0.2,0.6,0.5,1.4,0.8,2.3
			c0.8,2.3,2,5.5,2.4,7c0.1,0.3-0.1,1-0.3,1.4C88.7,82,82,81.8,77.3,81.6L77.3,81.6z M87.9,123.8c-0.4-2.7-1.2-6.9-1.6-8.9
			c-0.3-1.7-1.1-5-1.8-7.6c3.9,0.1,9.8,0.2,12.2,0.3c2.5,0.2,3.1,3.2,3.1,3.3c0.2,1,0.5,2.6,0.9,4.3c0.4,2.1,1,4.4,1.2,5.7
			c0.2,1.2-0.5,2.6-0.9,2.8c-0.5,0-1.8,0.1-5.1,0.1C93.2,123.8,90.1,123.8,87.9,123.8L87.9,123.8z"/>
	</g>
	<g>
		
			<linearGradient id="SVGID_00000178192709311407236160000000379551456032645036_" gradientUnits="userSpaceOnUse" x1="172.6771" y1="208.9976" x2="165.4407" y2="285.5825" gradientTransform="matrix(1 0 0 -1 0 340)">
			<stop  offset="1.385225e-07" style="stop-color:#FBB040"/>
			<stop  offset="1" style="stop-color:#E60000"/>
		</linearGradient>
		<path style="fill:url(#SVGID_00000178192709311407236160000000379551456032645036_);" d="M144.2,152.7
			c-0.1-0.3-6.9-32.6-11.4-50.7c-2.8-11.1-5.9-20.1-8.4-27.4c-1.7-4.8-3-8.6-3.7-11.6c-0.8-3.1-0.4-5.7,1.2-7.7
			c2.1-2.6,5.9-4,11.5-4c0.8,0,1.6,0,2.4,0.1c9.4,0.6,45.6,4.6,46,4.6l0.7,0.1l0.4,0.6c0.1,0.2,11.4,18.6,19.8,40.2
			c10.2,25.9,17.3,52.9,17.3,53.1l0.5,1.9h-26.8l-0.3-1.2c-0.1-0.3-2-8.3-2.6-11.2c-0.4-2.2-1.9-6.9-2.6-9h-19.7
			c0.6,2.2,1.6,5.8,2,7.5c0.7,2.6,2.9,13.3,2.9,13.8l0.4,1.8l-29.6,0.4L144.2,152.7z M179.4,107.2c-1.9-4.6-6.3-15.2-7.4-18.4
			c-1.1-3.2-3.6-8.6-4.5-10.7c-2.4-0.2-9.1-0.7-11.5-0.7c-0.2,0-0.3,0-0.5,0c-0.4,0-0.7,0.3-0.9,0.6c-0.6,0.8-0.9,2-0.6,2.9
			c0.4,1.9,2.1,8.3,3.4,12.2c1,3.1,3.3,10.9,4.2,13.7L179.4,107.2z"/>
		<path class="st1" d="M133.3,52.8c0.8,0,1.5,0,2.4,0.1c9.5,0.6,45.9,4.6,45.9,4.6s11.2,18.3,19.7,39.9c10.3,26.1,17.3,53,17.3,53
			H195c0,0-1.9-8.3-2.6-11.2s-2.9-10.2-2.9-10.2h-22.8c0,0,1.8,6.8,2.6,9.4c0.7,2.6,2.9,13.6,2.9,13.6l-26.5,0.4
			c0,0-6.8-32.4-11.4-50.8c-4.6-18.4-10.3-31.5-12.2-39C120.3,55.8,125.2,52.8,133.3,52.8 M181.7,108.8c0,0-6.8-16.4-8.3-20.5
			c-1.5-4-4.9-11.6-4.9-11.6s-9.4-0.7-12.5-0.7c-0.2,0-0.4,0-0.6,0c-2.2,0.1-3.4,3.3-2.9,5.4s2.2,8.5,3.4,12.3
			c1.2,3.8,4.5,14.7,4.5,14.7L181.7,108.8 M133.3,49.8c-6.1,0-10.3,1.5-12.7,4.5c-1.3,1.6-2.6,4.5-1.5,9c0.8,3.1,2.1,6.9,3.8,11.7
			c2.5,7.2,5.7,16.2,8.4,27.2c4.6,18.1,11.4,50.3,11.4,50.7l0.5,2.4l2.5,0l26.5-0.4l3.6-0.1l-0.7-3.5c-0.1-0.5-2.2-11.2-3-13.9
			c-0.4-1.2-1-3.6-1.5-5.6h16.6c0.7,2.3,1.8,6,2.2,7.8c0.6,2.9,2.5,10.9,2.6,11.3l0.5,2.3h2.4h23.6h3.9l-1-3.8
			c-0.1-0.3-7.2-27.3-17.4-53.3c-8.5-21.7-19.8-40.2-20-40.4l-0.8-1.2l-1.5-0.2c-1.5-0.2-36.6-4-46-4.6
			C135,49.8,134.1,49.8,133.3,49.8L133.3,49.8z M155.9,79c0.1,0,0.1,0,0.2,0c2.1,0,7.6,0.4,10.5,0.6c1.1,2.4,3.1,7,4.1,9.7
			c1,2.8,4.4,11.2,6.6,16.3l-14.4-0.2c-1-3.4-3-9.9-3.9-12.7c-1.1-3.5-2.8-9.9-3.3-12.1C155.4,80.2,155.6,79.3,155.9,79L155.9,79z"
			/>
	</g>
	<g>
		
			<linearGradient id="SVGID_00000139274893878440604880000007893711548378999983_" gradientUnits="userSpaceOnUse" x1="290.9094" y1="207.7895" x2="288.1864" y2="290.9929" gradientTransform="matrix(1 0 0 -1 0 340)">
			<stop  offset="1.385225e-07" style="stop-color:#FBB040"/>
			<stop  offset="1" style="stop-color:#E60000"/>
		</linearGradient>
		<path style="fill:url(#SVGID_00000139274893878440604880000007893711548378999983_);" d="M242.7,150c-14.6,0-18.8-11.6-20.9-17.1
			c-1.3-3.5-3.8-10.7-6.3-17.6c-1.5-4.3-3-8.5-4.1-11.4c-1.4-3.8-3.6-9.3-5.7-14.6c-2-5.1-4.1-10.4-5.5-14.2
			c-1.4-3.8-0.9-7.7,1.3-10.8c2.1-3,5.6-4.9,9.1-4.9h0.2c5.8,0.1,37,3.4,38.4,3.5l0.8,0.1l0.4,0.7c0.1,0.3,3.7,6.4,4.8,8.6
			c1.1,2.1,6.4,11.4,6.4,11.5l1.4,2.4l-2.8-0.2c-0.1,0-14.6-0.8-20.9-0.8c-1.3,0-2,0-2.2,0.1c-0.8,0.1-1.4,0.4-1.8,1
			c-0.6,0.8-0.6,2.1-0.3,3c0.6,2,3.6,10.2,4.8,13.5c1.2,3.1,5.8,14.5,7.1,17.5c0.8,1.8,3.6,2.8,8.4,3c3.7,0.1,22.7,0.2,29.1,0.2
			c-1.6-4.5-5.6-16-9.5-27.1c-4-11.6-13.3-28.9-13.4-29.1l-1.3-2.5l26.5,2.7l0.4,0.7c0.3,0.5,6.8,12.2,8.6,16.2
			c1.1,2.4,3.7,7.8,5.5,11.4l5.1-25.2l24.4,2.1l-6.3,33c3.6,2.2,17.4,10.9,23.9,15.4c7.5,5.2,29.2,22.2,29.4,22.3l3.5,2.7l-37-0.1
			l-0.4-0.4c-0.1-0.1-7.4-6.9-18.4-13.7c-5.7-3.6-10.5-5.8-13.3-7.1c0.8,2.4,1.8,5.5,2.3,7.1c2,6.7,4.3,14.5,4.3,14.5l0.6,1.9
			l-2,0.1c-0.6,0-58.9,1.6-73.9,1.7L242.7,150z"/>
		<path class="st1" d="M210.6,60.9c0.1,0,0.1,0,0.2,0c5.8,0.1,38.2,3.5,38.2,3.5s3.6,6.3,4.8,8.5s6.5,11.6,6.5,11.6
			s-14.6-0.8-21-0.8c-1.1,0-1.9,0-2.4,0.1c-3.5,0.4-4,3.8-3.4,5.8s3.6,10.5,4.9,13.6s5.8,14.6,7.1,17.5s5.2,3.8,9.7,3.9
			c4.5,0.1,31.3,0.2,31.3,0.2s-5.2-14.9-10.2-29.1C272,84,262.6,66.5,262.6,66.5l22.9,2.3c0,0,6.7,12.1,8.5,16.1s7.4,15.5,7.4,15.5
			l5.7-28.2l21.4,1.8l-6.2,32.4c0,0,17.2,10.7,24.7,15.9c7.5,5.2,29.3,22.3,29.3,22.3l-32-0.1c0,0-7.4-6.9-18.6-13.9
			c-9.7-6.1-16.6-8.4-16.6-8.4s2.5,7.4,3.3,10.1c2,6.7,4.3,14.5,4.3,14.5s-58.7,1.6-73.9,1.7c-0.1,0-0.1,0-0.2,0
			c-13.6,0-17.4-10.6-19.5-16.2c-2.1-5.6-7.7-21.4-10.4-28.8c-2.7-7.4-8.4-21.1-11.2-28.7C198.9,67.1,204.8,60.9,210.6,60.9
			 M210.6,57.9L210.6,57.9c-4,0-7.9,2.1-10.3,5.6c-2.5,3.5-3,8-1.4,12.2c1.4,3.8,3.5,9.1,5.5,14.2c2.1,5.3,4.3,10.8,5.7,14.5
			c1,2.9,2.5,7,4.1,11.4c2.5,6.9,5,14.1,6.3,17.5l0,0.1c2.2,5.9,6.7,18.1,22.3,18.1h0.2c15.1-0.1,73.4-1.7,74-1.7l3.9-0.1l-1.1-3.8
			c0-0.1-2.3-7.9-4.3-14.5c-0.3-0.9-0.7-2.4-1.2-3.9c2.7,1.3,6.1,3.1,10,5.6c10.8,6.8,18.1,13.5,18.2,13.5l0.9,0.8l1.2,0l32,0.1
			l8.8,0l-6.9-5.4c-0.9-0.7-22-17.2-29.5-22.4c-6.2-4.3-18.5-12.1-23.1-14.9l5.8-30.4l0.6-3.3l-3.3-0.3l-21.4-1.8l-2.7-0.2l-0.5,2.6
			l-4,19.5c-1.4-2.9-2.8-5.8-3.5-7.4c-1.9-4.1-8.4-15.8-8.6-16.3l-0.8-1.4l-1.6-0.2L263,63.5l-5.6-0.6l2.6,5
			c0.1,0.2,9.3,17.5,13.3,28.9c3.4,9.7,6.9,19.7,8.8,25.1c-7.7,0-23.6-0.1-27-0.2c-5.7-0.2-6.8-1.5-7.1-2.1
			c-1.2-2.9-5.8-14.4-7-17.4c-1.2-3.3-4.2-11.5-4.8-13.4c-0.2-0.6-0.1-1.3,0.1-1.7c0.1-0.1,0.2-0.2,0.7-0.3c0.2,0,0.8-0.1,2.1-0.1
			c6.2,0,20.7,0.8,20.8,0.8l5.5,0.3l-2.7-4.8c-1.8-3.2-5.5-9.7-6.4-11.4c-1.1-2.2-4.7-8.4-4.8-8.7l-0.8-1.3l-1.5-0.2
			c-1.3-0.1-32.6-3.4-38.5-3.5L210.6,57.9L210.6,57.9L210.6,57.9z"/>
	</g>
	<g>
		
			<linearGradient id="SVGID_00000176764594470749811690000005387804747860034217_" gradientUnits="userSpaceOnUse" x1="362.9008" y1="213.2457" x2="358.231" y2="274.9543" gradientTransform="matrix(1 0 0 -1 0 340)">
			<stop  offset="1.385225e-07" style="stop-color:#FBB040"/>
			<stop  offset="1" style="stop-color:#E60000"/>
		</linearGradient>
		<path style="fill:url(#SVGID_00000176764594470749811690000005387804747860034217_);" d="M382.5,141.1
			c-0.2-0.1-20.5-15.3-30.6-23.2c-6.5-5-21.3-15.4-21.5-15.5l-0.8-0.5l5.1-31.3l10.6,14.6l21.5,0.6l0.4,0.5
			c0.1,0.1,9,10.7,13.8,17.9c4.9,7.2,11.9,21.3,12.2,21.9l1.1,2.2l-15.8-0.1l9.6,17.2L382.5,141.1z"/>
		<path class="st1" d="M335.7,74.4l8.9,12.3l21.5,0.6c0,0,8.9,10.6,13.7,17.8c4.9,7.2,12.1,21.7,12.1,21.7l-16-0.1l7.4,13.3
			c0,0-20.4-15.2-30.5-23.1c-6.6-5.1-21.6-15.6-21.6-15.6L335.7,74.4 M333.9,66.8l-1.2,7.1l-4.4,26.8l-0.3,1.9l1.5,1.1
			c0.1,0.1,15,10.5,21.4,15.5c10,7.8,30.4,23,30.6,23.2l11.3,8.4l-6.9-12.3l-4.9-8.8l10.8,0.1l4.9,0l-2.2-4.4
			c-0.3-0.6-7.4-14.8-12.3-22c-4.9-7.2-13.6-17.6-13.9-18l-0.9-1l-1.4,0l-20.1-0.6l-8-11.1L333.9,66.8L333.9,66.8z"/>
	</g>
	<g>
		
			<linearGradient id="SVGID_00000125568128808342511940000003688401148458747544_" gradientUnits="userSpaceOnUse" x1="397.6904" y1="215.4385" x2="377.9745" y2="280.727" gradientTransform="matrix(1 0 0 -1 0 340)">
			<stop  offset="1.385225e-07" style="stop-color:#FBB040"/>
			<stop  offset="1" style="stop-color:#E60000"/>
		</linearGradient>
		<path style="fill:url(#SVGID_00000125568128808342511940000003688401148458747544_);" d="M400,127.5l-0.4-0.8
			c0-0.1-4.9-9.2-10.2-18c-5.3-8.8-12.4-18.9-12.5-19l-1.7-2.5l10.7,0.4l0.4,0.6c0,0.1,5.4,7.8,11.5,17.6c6.1,9.8,10.9,19.5,11,19.6
			l1.1,2.2L400,127.5z"/>
		<path class="st1" d="M378.1,88.8l7,0.3c0,0,5.3,7.7,11.4,17.6c6.1,9.9,10.9,19.5,10.9,19.5l-6.5-0.2c0,0-4.8-9.1-10.2-18
			C385.2,99,378.1,88.8,378.1,88.8 M372.2,85.6l3.5,5c0.1,0.1,7.1,10.2,12.4,19c5.3,8.7,10.1,17.8,10.2,17.9l0.8,1.6l1.8,0l6.5,0.1
			l5,0.1l-2.2-4.4c-0.2-0.4-4.9-9.8-11-19.7c-6.1-9.8-11.4-17.6-11.5-17.7l-0.9-1.2l-1.5-0.1l-7-0.3L372.2,85.6L372.2,85.6z"/>
	</g>
	<g>
		
			<linearGradient id="SVGID_00000047762967620373449510000003935903847473574323_" gradientUnits="userSpaceOnUse" x1="413.5063" y1="216.5226" x2="396.4211" y2="278.7386" gradientTransform="matrix(1 0 0 -1 0 340)">
			<stop  offset="1.385225e-07" style="stop-color:#FBB040"/>
			<stop  offset="1" style="stop-color:#E60000"/>
		</linearGradient>
		<path style="fill:url(#SVGID_00000047762967620373449510000003935903847473574323_);" d="M415.8,128l-0.4-0.7
			c0-0.1-2.6-4.7-8.2-15c-4.9-9-13-21.8-13.1-22l-1.6-2.5l9.7,0.6l0.4,0.6c0.1,0.1,6,8.4,12,18.2c6.1,9.8,10.4,19,10.4,19l1,2.2
			L415.8,128z"/>
		<path class="st1" d="M395.3,89.5l6,0.4c0,0,5.9,8.3,12,18.2s10.3,18.9,10.3,18.9l-7-0.3c0,0-2.5-4.6-8.2-15
			C403.5,102.4,395.3,89.5,395.3,89.5 M389.6,86.1l3.2,5c0.1,0.1,8.2,12.9,13.1,21.9c5.6,10.3,8.2,15,8.2,15.1l0.8,1.5l1.7,0.1
			l7,0.3l5,0.2l-2.1-4.5c-0.2-0.4-4.3-9.3-10.5-19.2c-6.1-9.8-12-18.2-12.1-18.3L403,87l-1.4-0.1l-6-0.4L389.6,86.1L389.6,86.1z"/>
	</g>
	<g>
		
			<linearGradient id="SVGID_00000173847620759051392720000016194264205882457011_" gradientUnits="userSpaceOnUse" x1="426.4062" y1="220.524" x2="417.0636" y2="270.7809" gradientTransform="matrix(1 0 0 -1 0 340)">
			<stop  offset="1.385225e-07" style="stop-color:#FBB040"/>
			<stop  offset="1" style="stop-color:#E60000"/>
		</linearGradient>
		<path style="fill:url(#SVGID_00000173847620759051392720000016194264205882457011_);" d="M432,128.8l-0.4-0.9
			c0-0.1-4.3-9.8-9.6-18.5c-5.3-8.8-12.1-18.2-12.2-18.3l-1.8-2.6l8.8,0.5l0.4,0.6c0,0.1,5.3,7.3,11.4,17.2c6.1,9.8,11,20,11.1,20.1
			l1.1,2.2L432,128.8z"/>
		<path class="st1" d="M411.1,90.2l4.9,0.3c0,0,5.2,7.2,11.3,17.1s11,19.9,11,19.9l-5.3-0.2c0,0-4.2-9.8-9.7-18.7
			C417.9,99.7,411.1,90.2,411.1,90.2 M405,86.8l3.7,5.1c0.1,0.1,6.8,9.5,12.1,18.2c5.2,8.6,9.4,18.3,9.5,18.4l0.8,1.8l1.9,0.1
			l5.3,0.1l4.9,0.1l-2.1-4.4c-0.2-0.4-5-10.3-11.2-20.2c-6.1-9.8-11.4-17.2-11.4-17.2l-0.8-1.2l-1.4-0.1l-4.9-0.3L405,86.8L405,86.8
			z"/>
	</g>
	<g>
		
			<linearGradient id="SVGID_00000011721447459525099420000007795108633504554625_" gradientUnits="userSpaceOnUse" x1="440.1277" y1="217.8965" x2="436.6161" y2="270.8886" gradientTransform="matrix(1 0 0 -1 0 340)">
			<stop  offset="1.385225e-07" style="stop-color:#FBB040"/>
			<stop  offset="1" style="stop-color:#E60000"/>
		</linearGradient>
		<path style="fill:url(#SVGID_00000011721447459525099420000007795108633504554625_);" d="M447.9,129.6l-0.4-0.7
			c0-0.1-5.3-8.9-10.6-17.7c-5.3-8.8-12-19-12.1-19.1l-1.6-2.5l8.6,0.5l0.4,0.6c0,0.1,4.9,7.2,11,17c6.1,9.8,11.1,19.9,11.2,20
			l1.2,2.4L447.9,129.6z"/>
		<path class="st1" d="M426,91.2l4.9,0.3c0,0,4.8,7.1,10.9,17s11.1,19.9,11.1,19.9l-4.2-0.3c0,0-5.2-8.8-10.6-17.8
			C432.8,101.4,426,91.2,426,91.2 M420.2,87.9l3.3,5c0.1,0.1,6.7,10.2,12.1,19c5.3,8.8,10.6,17.6,10.6,17.7l0.8,1.4l1.6,0.1l4.2,0.3
			l5.2,0.4l-2.3-4.7c-0.2-0.4-5.1-10.3-11.3-20.2c-6.1-9.8-10.9-17-11-17.1l-0.8-1.2l-1.5-0.1l-4.9-0.3L420.2,87.9L420.2,87.9z"/>
	</g>
</g>
<g id="Layer_2">
	<path class="st1" d="M435.8,220c0.9,2.1,1.6,3.8,2.1,5.1c0.5,1.3,1.1,2.9,1.7,4.6c0.6,1.7,1.2,3.5,1.6,5.4c0.5,1.8,0.9,3.4,1.2,4.6
		l-3.9,0.7c-0.6-2.1-1.1-3.9-1.6-5.6c-0.5-1.6-1-3.3-1.6-4.8c-0.6-1.6-1.2-3.2-1.9-4.8c-0.7-1.6-1.3-3.1-1.9-4.3l1-0.3l-0.5,0.1
		L435.8,220 M436.4,218.9l-0.7,0.1l-3.7,0.6l0,0l-0.6,0.2l-1.1,0.3l0.5,1c0.6,1.2,1.2,2.7,1.9,4.3c0.7,1.6,1.3,3.2,1.9,4.8
		c0.6,1.6,1.1,3.2,1.5,4.8c0.5,1.6,1,3.5,1.6,5.6l0.2,0.8l0.9-0.1l3.9-0.7l1-0.2l-0.2-1c-0.3-1.2-0.7-2.7-1.2-4.6
		c-0.5-1.9-1-3.7-1.7-5.5c-0.6-1.8-1.2-3.3-1.7-4.6c-0.5-1.3-1.2-3.1-2.1-5.2L436.4,218.9L436.4,218.9z"/>
	<g>
		<path class="st19" d="M45,309c-0.3-1.4-0.8-3-1.4-4.8c-0.6-1.8-1.2-3.6-1.8-5.4c-0.6-1.7-1.3-3.5-2-5.3c-0.7-1.8-1.6-3.6-2.6-5.6
			l-4.4,0.6c0.1,0.2,0.4,0.9,0.9,2.1c0.5,1.2,1.2,2.8,1.9,4.7c0.8,1.9,1.5,4,2.2,6.1c0.7,2.2,1.3,4.1,1.8,5.8
			c0.5,1.7,1.1,4.5,2.1,8.6l0.1,0l12.4-2l0.1-0.1c-0.4-2.1-0.8-4.1-1.3-5.9L45,309z"/>
	</g>
	<g>
		<path class="st19" d="M60,306.8c-0.1-0.8-0.6-2.7-1.4-5.7l7.4-1.2c-0.6-2.1-1.1-4-1.6-5.5l-7.4,1.1c-0.4-1.2-1-2.7-1.6-4.5
			l7.4-1.1c-0.4-1.3-1.2-3.2-2.4-5.7l-7.2,1.2l-4,0.7c1.3,3.6,2.3,6.3,3,8.2s1.3,3.7,1.8,5.5c0.6,1.8,1.1,3.7,1.6,5.8
			c0.5,2.1,1.1,4.6,1.7,7.7l0,0.1l11.5-1.9c-0.3-1.9-0.7-3.8-1.1-5.7L60,306.8z"/>
	</g>
	<g>
		<path class="st19" d="M82,294.6c-0.7-2.1-1.4-4-2.1-5.8c-0.7-1.8-1.4-3.3-2-4.5c-0.6-1.2-1.2-2.3-1.8-3.4c-2.6,0.2-4.6,0.4-6,0.6
			c-1.4,0.2-2.3,0.4-2.7,0.5c-0.4,0.1-0.8,0.7-1,1.8c-0.2,1.1-0.1,2.5,0.5,4.2c0.6,1.7,1.2,3.5,1.9,5.2c0.6,1.7,1.2,3.4,1.7,5.1
			c0.5,1.7,1,3.4,1.4,5.1c0.5,1.7,1,3.9,1.5,6.4l4.1-0.7l-0.8-4l-1-3.7l4-0.5l0.7,2.4l1.2,5.1l4-0.7c-0.7-3.1-1.3-5.6-1.8-7.4
			C83.3,298.6,82.7,296.6,82,294.6z M73.9,296c-1.3-3.6-2.1-5.9-2.4-6.8c-0.3-0.9-0.4-1.6-0.3-2.1c0.1-0.5,1.1-0.8,3.1-0.9
			c0.9,2.1,1.5,3.6,1.9,4.4c0.4,0.9,0.9,2.4,1.6,4.7L73.9,296z"/>
	</g>
	<g>
		<path class="st19" d="M94.5,284.2c-0.4-2-0.9-4-1.4-6.1l-4.5,0.7c0.6,2.6,1.1,4.9,1.5,6.7c0.4,1.9,0.7,3.7,1,5.6
			c0.3,1.9,0.4,4.8,0.4,8.8c-1.5-5.4-2.9-9.6-4-12.6c-1.2-3-2.2-5.6-3.2-7.8l-4.4,0.7l0.1,0.2c0-0.1,0.2,0.4,0.7,1.5
			c0.5,1.1,1.1,2.8,2.1,5c0.9,2.3,2,5.2,3.2,9c1.2,3.7,2.4,7.5,3.5,11.3l5.8-1c0.4-1.6,0.7-3.8,0.8-6.7c0.1-2.9,0-5.7-0.4-8.4
			C95.2,288.5,94.9,286.1,94.5,284.2z"/>
	</g>
	<g>
		<path class="st19" d="M107.1,298.2c-0.1-0.8-0.6-2.7-1.4-5.7l7.4-1.2c-0.6-2.1-1.1-4-1.6-5.5l-7.4,1.1c-0.4-1.2-1-2.7-1.6-4.5
			l7.4-1.1c-0.4-1.3-1.2-3.2-2.4-5.7l-7.2,1.2l-4,0.7c1.3,3.6,2.3,6.3,3,8.2c0.7,1.9,1.3,3.7,1.8,5.5c0.6,1.8,1.1,3.7,1.6,5.8
			c0.5,2.1,1.1,4.6,1.7,7.7l0,0.1l11.5-1.9c-0.3-1.9-0.7-3.8-1.1-5.7L107.1,298.2z"/>
	</g>
	<g>
		<path class="st19" d="M132.3,282.2c-0.8-2.5-2-5.8-3.5-10.1l-4,0.7c1.8,5.2,3.1,9,3.7,11.4c-4.3-4-7.5-7.5-9.5-10.3l-4,0.7
			c1,2.3,2.3,4.5,3.9,6.4c1.7,1.9,3,3.4,3.9,4.2c1,0.9,2,1.9,3.2,3c1.2,1.1,2.8,2.5,4.7,4.2l1.9,7.6l0,0.1l4.2-0.7
			c-0.7-3.2-1.4-6.2-2.2-9.1C133.9,287.4,133.1,284.7,132.3,282.2z"/>
	</g>
	<g>
		<path class="st19" d="M152,287.3c-0.5-1.7-1.1-3.7-1.9-6c-0.8-2.3-1.6-4.6-2.5-6.7c-0.9-2.1-1.6-3.5-2.3-4.1
			c-0.7-0.6-1.5-0.8-2.4-0.7c-0.9,0.1-2.3,0.3-4.2,0.6c-1.9,0.3-3.2,0.5-3.8,0.7c-0.7,0.1-1.1,0.4-1.3,0.9c-0.2,0.4-0.2,1,0,1.6
			c0.2,0.6,0.8,2.2,1.7,4.6c0.9,2.4,1.6,4.4,2.1,5.9c0.5,1.5,0.9,2.9,1.3,4.1c0.3,1.2,0.9,3.7,1.8,7.4c0,0.2,0.1,0.5,0.4,1
			c0.2,0.5,0.5,1,1,1.4c0.4,0.4,1,0.6,1.8,0.4c0.8-0.1,2.3-0.4,4.5-0.7c2.2-0.3,3.6-0.6,4.1-0.7c0.5-0.1,0.9-0.4,1.1-0.9
			c0.2-0.5,0.4-1,0.4-1.6s-0.1-1.5-0.4-2.8C152.9,290.5,152.5,289,152,287.3z M148.5,291.8c0,0.3-0.2,0.5-0.3,0.5
			c-0.2,0.1-0.6,0.1-1.4,0.2c-0.8,0.1-1.3,0.2-1.6,0.2c-0.3,0-0.5-0.1-0.7-0.3c-0.2-0.3-0.4-0.6-0.5-0.9c-0.1-0.3-0.2-0.6-0.2-0.6
			c-0.7-2.3-1.1-3.9-1.3-4.7c-0.2-0.8-0.5-1.6-0.8-2.6c-0.3-1-0.8-2.2-1.3-3.8c-0.6-1.5-0.9-2.5-1-2.9c-0.1-0.4-0.2-0.7-0.1-1
			c0-0.3,0.2-0.4,0.4-0.5c0.2-0.1,0.7-0.1,1.3-0.3c0.7-0.1,1.1-0.2,1.5-0.2c0.3,0,0.6,0.1,0.9,0.5c0.3,0.4,0.7,1.3,1.2,2.6
			c0.5,1.4,1,2.8,1.5,4.3c0.5,1.5,0.9,2.8,1.3,3.8c0.3,1.1,0.6,2,0.8,2.8c0.2,0.8,0.4,1.4,0.4,1.8
			C148.6,291.1,148.6,291.5,148.5,291.8z"/>
	</g>
	<g>
		<path class="st19" d="M166.7,279.5c-0.6-1.8-2.3-6-4.9-12.6l-4.5,0.7c1.7,3.7,3.2,7.1,4.3,10.2c1.2,3.1,2,5.7,2.5,7.7
			c0.5,2,0.7,3.1,0.4,3.4c-0.3,0.2-0.6,0.3-1.1,0.4c-0.4,0.1-0.9,0.1-1.2,0.1c-0.4,0-0.7-0.1-1.1-0.5c-0.3-0.3-0.8-1.5-1.3-3.6
			c-0.5-2-1.1-3.9-1.7-5.7c-0.6-1.8-1.2-3.6-1.9-5.5c-0.7-1.8-1.6-3.9-2.7-6.1l-4.3,0.8c0.6,1.3,1.1,2.6,1.6,3.8
			c0.5,1.3,1.1,2.9,1.8,4.8c0.8,1.9,1.3,3.5,1.7,4.7c0.4,1.2,0.8,2.6,1.3,4.3c0.5,1.6,0.9,3.3,1.3,5.1c0.4,1.7,0.9,2.9,1.7,3.4
			c0.7,0.5,1.8,0.6,3.3,0.4c1.4-0.3,2.9-0.5,4.5-0.8c1.5-0.3,2.5-1.1,2.8-2.5c0.3-1.4,0.2-3.4-0.5-6
			C168,283.5,167.3,281.3,166.7,279.5z"/>
	</g>
	<g>
		<path class="st19" d="M181.8,278.1c-0.1-0.9-0.2-1.6-0.3-2.2c-0.1-0.6-0.5-1.6-1-3.2c-0.5-1.6-1.1-3-1.6-4.2c-0.5-1.2-1-2-1.5-2.5
			c-0.5-0.4-0.9-0.8-1.3-1c-0.4-0.2-1.3-0.3-2.8-0.1c-1.5,0.2-4.2,0.5-8.2,1.1c0.8,1.8,1.6,3.8,2.4,6c0.8,2.2,1.6,4.3,2.2,6.4
			c0.7,2.1,1.2,4.2,1.8,6.3c0.5,2.1,1.2,5.1,2.1,9l4.6-0.8c-1-4.2-1.7-6.9-2.1-8.3c1.6,1.1,2.8,2.1,3.6,3.1c0.8,1,1.8,2.5,3,4.5
			l4.6-0.8c-1.8-4.1-4.1-7.6-6.9-10.3C181.4,280,181.9,279,181.8,278.1z M176.6,277.6c-0.3,0.2-1.1,0.5-2.3,0.7
			c-1.1-3.3-2-5.9-2.8-7.8c1.6-0.3,2.6-0.2,3.1,0.1c0.5,0.3,0.9,1,1.4,2.2c0.5,1.2,0.8,1.9,0.9,2.3c0.1,0.4,0.2,0.9,0.2,1.4
			C177.1,277,176.9,277.4,176.6,277.6z"/>
	</g>
	<g>
		<path class="st19" d="M205.3,277.4c-0.6-1.7-1.2-3.6-1.8-5.4c-0.7-1.9-1.3-3.5-1.9-5c-0.6-1.5-1.5-3.5-2.8-6.1l-4.4,0.7
			c0.6,1,1.2,2.4,1.9,4c0.7,1.6,1.5,3.7,2.5,6.2l-3.7,0.5c-0.7-2-1.3-3.5-1.8-4.7c-0.5-1.2-1.3-3-2.4-5.4l0.2,0l-1.6,0.3l-3,0.5
			c0.8,2,1.4,3.6,2,5c0.5,1.4,1.1,2.9,1.7,4.6c0.6,1.7,1.2,3.5,1.8,5.2c0.6,1.7,1.1,3.4,1.5,5c0.4,1.6,1,4.1,1.7,7.4l0.1,0l4.3-0.7
			c-0.7-3.3-1.2-5.7-1.5-7c-0.3-1.4-0.7-2.8-1.1-4.3l3.7-0.5c0.5,1.7,1,3.2,1.4,4.6c0.4,1.4,0.9,3.6,1.6,6.6l4.2-0.7
			c-0.4-2.2-0.8-4.1-1.2-5.6C206.3,280.8,205.8,279.2,205.3,277.4z"/>
	</g>
	<g>
		<path class="st19" d="M220,270.7c-0.6-1.8-2.3-6-4.9-12.6l-4.5,0.7c1.7,3.7,3.2,7.1,4.3,10.2c1.2,3.1,2,5.7,2.5,7.7
			c0.5,2,0.7,3.1,0.4,3.4c-0.3,0.2-0.6,0.3-1.1,0.4c-0.4,0.1-0.9,0.1-1.2,0.1c-0.4,0-0.7-0.1-1.1-0.5c-0.3-0.3-0.8-1.5-1.3-3.6
			c-0.5-2-1.1-3.9-1.7-5.7c-0.6-1.8-1.2-3.6-1.9-5.5c-0.7-1.8-1.6-3.9-2.7-6.1l-4.3,0.8c0.6,1.3,1.1,2.6,1.6,3.8
			c0.5,1.3,1.1,2.9,1.8,4.8c0.8,1.9,1.3,3.5,1.7,4.7c0.4,1.2,0.8,2.6,1.3,4.3c0.5,1.6,0.9,3.3,1.3,5.1s0.9,2.9,1.7,3.4
			c0.7,0.5,1.8,0.6,3.3,0.4c1.4-0.3,2.9-0.5,4.5-0.8c1.5-0.3,2.5-1.1,2.8-2.5c0.3-1.4,0.2-3.4-0.5-6
			C221.3,274.7,220.7,272.5,220,270.7z"/>
	</g>
	<g>
		<path class="st19" d="M236.1,266.8c-0.6-1.8-1.2-3.3-1.7-4.6c-0.5-1.3-1.5-3.7-3-7.2l-4.4,0.7c0.7,1.6,1.6,3.3,2.3,5.3
			c0.5,1.3,0.9,2.4,1.2,3.4l-8-8l-3.7,0.6c0,0,0.2,0.6,0.7,1.7c0.5,1.1,1.1,2.6,1.8,4.4c0.7,1.8,1.4,3.8,2.2,6
			c0.8,2.2,1.4,4.4,2,6.6c0.6,2.2,1.2,5,2,8.5l0.1,0.1l4.2-0.7c-0.3-1.6-0.6-2.9-0.8-3.8c-0.2-0.9-0.8-3.1-1.5-6.6l7.4,9.5l3.5-0.6
			c-0.5-2.6-1.2-5.3-2-8.3C237.4,271,236.7,268.6,236.1,266.8z"/>
	</g>
	<g>
		<path class="st19" d="M256.4,275.2c-0.5-1.7-0.9-3-1.2-4.1c-0.3-1-1.1-3.4-2.5-7.1c-0.8,0.1-1.5,0.2-2,0.2
			c-0.6,0.1-1.1,0.2-1.6,0.2c-0.5,0.1-1.2,0.2-1.9,0.4l1.7,5.1c0.8-0.1,1.2-0.1,1.4,0c0.2,0.1,0.4,0.5,0.6,1.2
			c0.1,0.2,0.1,0.3,0.2,0.5c0,0,0,0.2,0,0.2c0.2,0.9,0.1,1.4-0.3,1.4c-0.5,0.1-1,0.1-1.4,0.2c-1.5,0.3-1.5-0.5-1.5-0.6
			c-0.1-0.2-0.2-0.6-0.3-0.8c-0.1-0.2-0.3-0.5-0.4-1c-0.2-0.5-0.4-1.2-0.8-2.2c-0.3-1-0.8-2.2-1.3-3.7c-0.5-1.5-1-2.7-1.5-3.6
			c-0.4-0.9-0.7-1.7-0.7-2.3c0-0.6,0.6-1,1.9-1.2c1.3-0.1,3.1-0.4,5.4-0.7l-0.2-0.7l-0.3-0.9l-1.7-3.9c-2.5,0.3-4.5,0.5-6,0.7
			c-1.5,0.2-2.6,0.4-3.3,0.5c-0.7,0.2-1.1,0.6-1.4,1.4c-0.2,0.8-0.3,1.4-0.1,1.9c0.1,0.5,0.3,0.9,0.5,1.3c0.2,0.4,0.4,1,0.8,2
			c0.4,0.9,0.8,2.1,1.4,3.6c0.6,1.5,1.2,3.3,1.9,5.4c0.7,2.2,1.3,4,1.8,5.6c0.5,1.6,0.8,2.7,1.1,3.3c0.3,0.7,0.6,1.2,0.9,1.6
			c0.3,0.4,0.7,0.7,1,0.8c0.4,0.1,0.7,0.1,1.1,0.1c0.3-0.1,0.6-0.1,0.6-0.1c0.1,0,1.3-0.2,3.6-0.6c2.4-0.4,3.8-0.8,4.5-1.2
			C256.9,277.9,256.9,276.8,256.4,275.2z"/>
	</g>
	<g>
		<path class="st19" d="M264,271.4c-0.1-0.8-0.6-2.7-1.4-5.7l7.4-1.2c-0.6-2.1-1.1-4-1.6-5.5L261,260c-0.4-1.2-1-2.7-1.6-4.5
			l7.4-1.1c-0.4-1.3-1.2-3.2-2.4-5.7l-7.2,1.2l-4,0.7c1.3,3.6,2.3,6.3,3,8.2c0.7,1.9,1.3,3.7,1.8,5.5c0.6,1.8,1.1,3.7,1.6,5.8
			c0.5,2.1,1.1,4.6,1.7,7.7l0,0.1l11.5-1.9c-0.3-1.9-0.7-3.8-1.1-5.7L264,271.4z"/>
	</g>
	<g>
		<path class="st19" d="M284,260c-0.1-0.9-0.2-1.6-0.3-2.2c-0.1-0.6-0.5-1.6-1-3.2c-0.5-1.6-1.1-3-1.6-4.2c-0.5-1.2-1-2-1.5-2.5
			c-0.5-0.4-0.9-0.8-1.3-1c-0.4-0.2-1.3-0.3-2.8-0.1c-1.5,0.2-4.2,0.5-8.2,1.1c0.8,1.8,1.6,3.8,2.4,6c0.8,2.2,1.6,4.3,2.2,6.4
			c0.6,2.1,1.2,4.2,1.8,6.3c0.5,2.1,1.2,5.1,2.1,9l4.6-0.8c-1-4.2-1.7-6.9-2.1-8.3c1.6,1.1,2.8,2.1,3.6,3.1c0.8,1,1.8,2.5,3,4.5
			l4.6-0.8c-1.8-4.1-4.1-7.6-6.9-10.3C283.6,261.9,284.1,260.9,284,260z M278.8,259.5c-0.3,0.2-1.1,0.5-2.3,0.7
			c-1.1-3.3-2-5.9-2.8-7.8c1.6-0.3,2.6-0.2,3.1,0.1c0.5,0.3,0.9,1,1.4,2.2c0.5,1.2,0.8,1.9,0.9,2.3c0.1,0.4,0.2,0.9,0.2,1.4
			C279.3,258.9,279.1,259.3,278.8,259.5z"/>
	</g>
	<g>
		<path class="st19" d="M298.5,257.8c-0.8-2.3-1.5-4.4-2.3-6.2c-0.7-1.8-1.8-4.4-3.3-7.6l-4.3,0.6c0.5,1,1,2.1,1.5,3.2
			c0.5,1.1,1,2.5,1.6,4.1c0.6,1.6,1.2,3.2,1.8,5c0.6,1.7,1.1,3.4,1.6,4.9c0.5,1.5,0.9,3,1.3,4.5c0.4,1.5,0.8,3.4,1.2,5.6l4.2-0.7
			c-0.6-2.6-1.1-4.9-1.6-6.9C299.8,262.3,299.2,260.1,298.5,257.8z"/>
	</g>
	<g>
		<path class="st19" d="M314,253c-0.6-1.8-1.2-3.3-1.7-4.6c-0.5-1.3-1.5-3.7-3-7.2l-4.4,0.7c0.7,1.6,1.5,3.3,2.3,5.3
			c0.8,2,1.9,4.9,3.1,8.7l-9.9-13.3l-3.7,0.6c0,0,0.2,0.6,0.7,1.7c0.5,1.1,1.1,2.6,1.8,4.4c0.7,1.8,1.4,3.8,2.2,6
			c0.8,2.2,1.4,4.4,2,6.6c0.6,2.2,1.2,5,2,8.5l0.1,0.1l4.2-0.7c-0.3-1.6-0.6-2.9-0.8-3.8c-0.2-0.9-0.8-3.1-1.5-6.5l7.4,9.5l3.5-0.6
			c-0.5-2.6-1.2-5.3-2-8.3C315.3,257.2,314.6,254.8,314,253z"/>
	</g>
	<g>
		<path class="st19" d="M331,251.4c-0.6-1.8-1.5-4-2.6-6.9l4.7-0.8c-0.6-1.4-1.4-3.4-2.4-5.9l-12.5,2.1l-0.7,0.1
			c0.6,1.2,1.4,3.2,2.6,6l3.9-0.6c1.2,2.5,2.3,5.4,3.3,8.6c1,3.2,2.2,7.4,3.6,12.5l4.4-0.7c-1.1-4.5-1.9-7.6-2.5-9.2
			C332.2,254.9,331.6,253.1,331,251.4z"/>
	</g>
	<g>
		<path class="st19" d="M351.5,252.1c-0.6-1.7-1.2-3.6-1.8-5.4c-0.7-1.9-1.3-3.5-1.9-5c-0.6-1.5-1.5-3.5-2.8-6.1l-4.5,0.7
			c0.6,1,1.2,2.4,1.9,4c0.7,1.6,1.5,3.7,2.5,6.2l-3.7,0.5c-0.7-2-1.3-3.5-1.8-4.7c-0.5-1.2-1.3-3-2.4-5.4l0.2,0l-1.6,0.3l-3,0.5
			c0.8,2,1.4,3.6,2,5c0.5,1.4,1.1,2.9,1.7,4.6c0.6,1.7,1.2,3.5,1.8,5.2c0.6,1.7,1.1,3.4,1.5,5c0.4,1.6,1,4.1,1.7,7.4l0.1,0l4.3-0.7
			c-0.7-3.3-1.2-5.7-1.5-7c-0.3-1.3-0.7-2.8-1.1-4.3l3.7-0.5c0.5,1.7,1,3.2,1.4,4.6c0.4,1.4,0.9,3.6,1.6,6.6l4.2-0.7
			c-0.4-2.2-0.8-4.1-1.2-5.6C352.5,255.5,352.1,253.8,351.5,252.1z"/>
	</g>
	<g>
		<path class="st19" d="M359.7,255.6c-0.1-0.8-0.6-2.7-1.4-5.7l7.4-1.2c-0.6-2.1-1.1-4-1.6-5.5l-7.4,1.1c-0.4-1.2-1-2.7-1.6-4.5
			l7.4-1.1c-0.4-1.3-1.2-3.2-2.4-5.7l-7.2,1.2l-4,0.7c1.3,3.6,2.3,6.3,3,8.2c0.7,1.9,1.3,3.7,1.8,5.5c0.6,1.8,1.1,3.7,1.6,5.8
			c0.5,2.1,1.1,4.6,1.7,7.7l0,0.1l11.5-1.9c-0.3-1.9-0.7-3.8-1.1-5.7L359.7,255.6z"/>
	</g>
	<g>
		<path class="st19" d="M385.1,242.8c-0.2-0.6-0.6-1.8-1.2-3.7c-0.7-1.9-1.3-3.5-1.8-4.9c-0.5-1.4-1.2-2.4-1.9-3.1
			c-0.7-0.7-2.1-0.9-4.1-0.6l-7.9,1.3c0-0.1,0.2,0.6,0.8,1.9c0.5,1.4,1.2,3,1.9,5c0.8,2,1.5,4.1,2.3,6.5c0.8,2.4,1.4,4.5,1.9,6.5
			c0.5,2,1.1,4.4,1.7,7.2l0.1,0l4.1-0.7l-0.6-3l-1.5-6c3.6-0.5,5.6-0.9,5.9-1.2s0.5-0.7,0.7-1.4c0.1-0.6,0.1-1.3,0-1.9
			C385.4,244,385.3,243.4,385.1,242.8z M381,243.3c-0.1,0-1.3,0.2-3.6,0.6c-0.1-0.2-0.4-1.1-1-2.6c-0.5-1.6-1.2-3.3-2-5.2l0-0.1
			c2-0.4,3.1-0.6,3.5-0.5c0.4,0.1,0.7,0.4,0.9,1.1c0.3,0.7,0.7,1.8,1.3,3.3c0.6,1.5,0.9,2.4,0.9,2.8
			C381.1,243,381.1,243.3,381,243.3z"/>
	</g>
	<g>
		<path class="st19" d="M400.4,240.8c-0.7-2.1-1.4-4-2.1-5.8c-0.7-1.8-1.4-3.3-2-4.5c-0.6-1.2-1.2-2.3-1.8-3.4
			c-2.6,0.2-4.6,0.4-6,0.6c-1.4,0.2-2.3,0.4-2.7,0.5c-0.4,0.1-0.8,0.7-1,1.8c-0.2,1.1-0.1,2.5,0.5,4.2c0.6,1.7,1.2,3.5,1.9,5.2
			c0.6,1.7,1.2,3.4,1.7,5.1c0.5,1.7,1,3.4,1.4,5.1c0.5,1.7,1,3.9,1.5,6.4l4.1-0.7l-0.8-4l-1-3.7l4-0.5l0.7,2.4l1.2,5.1l4-0.7
			c-0.7-3.1-1.3-5.6-1.8-7.4C401.6,244.8,401,242.9,400.4,240.8z M392.3,242.3c-1.3-3.6-2.1-5.9-2.4-6.8c-0.3-0.9-0.4-1.6-0.3-2.1
			c0.1-0.5,1.1-0.8,3.1-0.9c0.9,2.1,1.5,3.6,1.9,4.4c0.4,0.9,0.9,2.4,1.6,4.7L392.3,242.3z"/>
	</g>
	<g>
		<path class="st19" d="M416.5,238.1c-0.7-1.4-1.6-2.1-2.8-2.2c-1.2-0.1-2.3-0.1-3.3,0.1c-1.1,0.2-1.8,0.2-2.2,0
			c-0.4-0.2-0.7-0.4-1-0.8c-0.3-0.4-0.6-1-1-2c-0.4-1-0.6-1.7-0.7-2.2c-0.1-0.5,0.1-0.8,0.7-1c0.6-0.2,1.3-0.2,2-0.2
			c0.7,0.1,1.4,0.8,2.1,2.3l4.1-0.8c-0.5-1.4-1-2.6-1.4-3.7c-0.5-1.1-1.1-2-1.9-2.5c-0.8-0.6-1.9-0.7-3.3-0.5
			c-0.5,0-1.5,0.1-3.2,0.4c-1.6,0.3-2.7,0.5-3.2,0.8c-0.5,0.2-0.9,0.7-1.1,1.3c-0.2,0.6-0.2,1.2,0,1.9c0.2,0.7,0.6,1.7,1.1,3
			c0.5,1.3,1,2.9,1.7,4.7c0.6,1.8,1.3,3.1,1.9,3.7c0.6,0.6,1.4,0.9,2.4,0.8c0.9-0.1,2-0.2,3-0.3c1.1-0.1,1.9-0.1,2.5,0.1
			c0.6,0.1,1.2,1.1,1.7,2.8c0.5,1.7,0.4,2.8-0.3,3.2c-2.1,0.3-3.2,0.4-3.4,0.3c-0.2-0.2-0.4-0.4-0.5-0.8c-0.2-0.3-0.4-1.2-0.8-2.5
			l-3.9,0.6l0.5,2.6c1.1,4.3,3.2,6.1,6.4,5.4l5-0.8c1.3-0.9,1.9-1.8,1.9-2.9c0-1-0.3-2.7-0.9-5.1
			C417.8,241.4,417.1,239.5,416.5,238.1z"/>
	</g>
	<g>
		<path class="st19" d="M428,234.9c-0.6-1.8-1.5-4-2.6-6.9l4.7-0.8c-0.6-1.4-1.4-3.4-2.4-5.9l-12.5,2.1l-0.7,0.1
			c0.6,1.2,1.4,3.2,2.6,6l3.9-0.6c1.2,2.5,2.3,5.4,3.3,8.6c1,3.2,2.2,7.4,3.6,12.5l4.4-0.7c-1.1-4.5-1.9-7.6-2.5-9.2
			C429.2,238.4,428.6,236.6,428,234.9z"/>
	</g>
	<g>
		<polygon class="st19" points="442.8,242.3 439,242.9 439,243.2 440,248.3 443.9,247.7 		"/>
	</g>
	<g>
		<path class="st19" d="M441.2,235.1c-0.5-1.8-1-3.6-1.6-5.4c-0.6-1.7-1.2-3.3-1.7-4.6c-0.5-1.3-1.2-3-2.1-5.1l-3.7,0.6l0.5-0.1
			l-1,0.3c0.6,1.3,1.2,2.7,1.9,4.3c0.7,1.6,1.3,3.2,1.9,4.8c0.6,1.6,1.1,3.2,1.6,4.8c0.5,1.6,1,3.5,1.6,5.6l3.9-0.7
			C442.1,238.5,441.7,236.9,441.2,235.1z"/>
	</g>
	<path class="st1" d="M37.2,287.9c1,2,1.9,3.9,2.6,5.6c0.7,1.8,1.4,3.5,2,5.3c0.6,1.7,1.2,3.5,1.8,5.4c0.6,1.8,1,3.4,1.4,4.8
		l8.1-1.2c0.5,1.8,0.9,3.8,1.3,5.9l-0.1,0.1l-12.4,2l-0.1,0c-0.9-4.1-1.6-6.9-2.1-8.6c-0.5-1.7-1.1-3.7-1.8-5.8
		c-0.7-2.2-1.5-4.2-2.2-6.1c-0.8-1.9-1.4-3.5-1.9-4.7c-0.5-1.2-0.8-1.9-0.9-2.1L37.2,287.9 M37.8,286.9l-0.7,0.1l-4.4,0.6l-1.3,0.2
		l0.5,1.2c0.1,0.2,0.4,0.9,0.9,2.1c0.5,1.2,1.1,2.7,1.9,4.7c0.8,1.9,1.5,3.9,2.2,6.1c0.7,2.1,1.3,4.1,1.8,5.8
		c0.5,1.7,1.2,4.6,2.1,8.7L41,317l1.4-0.3l12-2l0.5-0.1l0.6-0.1l-0.1-0.7l-0.1-0.3c-0.4-2.1-0.8-4.1-1.3-6l-0.2-0.8l-0.9,0.1
		l-7.2,1.1c-0.3-1.2-0.7-2.6-1.2-4c-0.6-1.8-1.2-3.6-1.8-5.4c-0.6-1.7-1.3-3.5-2-5.3c-0.7-1.8-1.6-3.7-2.6-5.7L37.8,286.9
		L37.8,286.9z"/>
	<path class="st1" d="M60.3,284.3c1.1,2.4,1.9,4.3,2.4,5.7l-7.4,1.1c0.7,1.8,1.2,3.3,1.6,4.5l7.4-1.1c0.5,1.6,1.1,3.4,1.6,5.5
		l-7.4,1.2c0.8,3,1.3,4.9,1.4,5.7l7.6-1.1c0.4,1.9,0.8,3.8,1.1,5.7l-11.5,1.9l0-0.1c-0.6-3.1-1.2-5.6-1.7-7.7c-0.5-2-1.1-4-1.6-5.8
		c-0.6-1.8-1.2-3.6-1.8-5.5c-0.7-1.9-1.6-4.6-3-8.2l4-0.7L60.3,284.3 M60.9,283.2l-0.7,0.1l-7.2,1.2l-4,0.7l-1.2,0.2l0.4,1.1
		c1.3,3.5,2.3,6.3,3,8.2c0.6,1.8,1.3,3.7,1.8,5.5c0.6,1.8,1.1,3.7,1.6,5.7c0.5,2,1.1,4.6,1.7,7.6l0,0.1l0.2,1l1-0.2l11.5-1.9l1-0.2
		l-0.2-1c-0.3-1.9-0.7-3.9-1.1-5.8l-0.2-0.9l-0.9,0.1l-6.7,1c-0.2-0.9-0.5-2.1-1-3.8l6.3-1l1.1-0.2l-0.3-1c-0.6-2.1-1.1-4-1.7-5.6
		l-0.3-0.8l-0.8,0.1l-6.6,1c-0.3-0.8-0.6-1.7-1-2.6l6.2-0.9l1.1-0.2l-0.3-1.1c-0.4-1.4-1.2-3.3-2.4-5.8L60.9,283.2L60.9,283.2z"/>
	<path class="st1" d="M76,280.9c0.6,1.1,1.2,2.2,1.8,3.4c0.6,1.2,1.3,2.7,2,4.5c0.7,1.8,1.4,3.7,2.1,5.8c0.7,2.1,1.3,4,1.8,5.9
		c0.5,1.9,1.1,4.4,1.8,7.4l-4,0.7l-1.2-5.1l-0.7-2.4l-4,0.5l1,3.7l0.8,4l-4.1,0.7c-0.5-2.5-1-4.7-1.5-6.4c-0.5-1.7-0.9-3.4-1.4-5.1
		c-0.5-1.7-1.1-3.4-1.7-5.1c-0.6-1.7-1.3-3.5-1.9-5.2c-0.6-1.7-0.8-3.2-0.5-4.2c0.2-1.1,0.6-1.7,1-1.8c0.4-0.1,1.4-0.3,2.7-0.5
		C71.4,281.3,73.4,281.1,76,280.9 M73.9,296l3.9-0.6c-0.7-2.3-1.2-3.9-1.6-4.7c-0.4-0.9-1-2.3-1.9-4.4c-2,0.1-3.1,0.4-3.1,0.9
		c-0.1,0.5,0,1.2,0.3,2.1C71.8,290.1,72.6,292.4,73.9,296 M76.6,279.9l-0.6,0c-2.6,0.2-4.7,0.4-6,0.6c-1.4,0.2-2.3,0.4-2.8,0.5
		c-1.1,0.3-1.5,1.6-1.7,2.5c-0.3,1.3-0.1,2.8,0.6,4.8c0.6,1.8,1.2,3.5,1.9,5.2c0.6,1.7,1.2,3.4,1.7,5.1c0.5,1.7,1,3.4,1.4,5.1
		c0.4,1.7,0.9,3.8,1.5,6.4l0.2,0.9l0.9-0.2l4.1-0.7l1-0.2l-0.2-1l-0.8-4l0,0l0,0l-0.7-2.6l2.1-0.3l0.5,1.6l1.2,5.1l0.2,0.9l0.9-0.1
		l4-0.7l1-0.2l-0.2-1c-0.7-3.1-1.3-5.6-1.8-7.5c-0.5-1.9-1.1-3.9-1.8-5.9c-0.7-2.1-1.4-4-2.1-5.8c-0.7-1.8-1.4-3.4-2-4.5
		c-0.6-1.2-1.2-2.4-1.9-3.5L76.6,279.9L76.6,279.9z M72.2,287.5c0.2-0.1,0.7-0.2,1.6-0.3c0.8,1.8,1.3,3,1.6,3.8
		c0.3,0.7,0.7,1.9,1.2,3.6l-2.1,0.3c-1.2-3.1-1.9-5.2-2.1-6C72.3,288.2,72.2,287.8,72.2,287.5L72.2,287.5z"/>
	<path class="st1" d="M93.1,278.1c0.5,2.1,1,4.1,1.4,6.1c0.4,2,0.8,4.3,1.1,7c0.4,2.7,0.5,5.5,0.4,8.4c-0.1,2.9-0.4,5.1-0.8,6.7
		l-5.8,1c-1.1-3.8-2.3-7.6-3.5-11.3c-1.2-3.7-2.3-6.7-3.2-9c-0.9-2.3-1.6-3.9-2.1-5c-0.4-1-0.7-1.5-0.7-1.5c0,0,0,0,0,0l-0.1-0.2
		l4.4-0.7c1,2.2,2.1,4.8,3.2,7.8c1.2,3,2.5,7.2,4,12.6c0-4-0.1-6.9-0.4-8.8c-0.3-1.9-0.6-3.8-1-5.6c-0.4-1.9-0.9-4.1-1.5-6.7
		L93.1,278.1 M93.8,277l-0.9,0.1l-4.5,0.7l-1,0.2l0.2,1c0.6,2.6,1.1,4.8,1.5,6.7c0.4,1.8,0.7,3.7,1,5.6c0.1,0.4,0.1,0.8,0.2,1.3
		c-0.7-2.2-1.4-4.1-1.9-5.6c-1.2-3-2.3-5.6-3.3-7.9l-0.3-0.7l-0.7,0.1l-4.4,0.7l-1.2,0.2l0.5,1.2l0.1,0.2l0.4,0.8
		c0.1,0.2,0.2,0.4,0.3,0.7c0.5,1.1,1.1,2.7,2.1,5c0.9,2.2,2,5.2,3.2,8.9c1.2,3.7,2.4,7.5,3.5,11.3l0.2,0.8l0.8-0.1l5.8-1l0.6-0.1
		l0.2-0.6c0.4-1.7,0.7-3.9,0.8-6.9c0.1-2.9,0-5.8-0.4-8.6c-0.4-2.7-0.7-5.1-1.1-7.1c-0.4-2-0.9-4-1.4-6.1L93.8,277L93.8,277z"/>
	<path class="st1" d="M107.4,275.6c1.1,2.4,1.9,4.3,2.4,5.7l-7.4,1.1c0.7,1.8,1.2,3.3,1.6,4.5l7.4-1.1c0.5,1.6,1.1,3.4,1.6,5.5
		l-7.4,1.2c0.8,3,1.3,4.9,1.4,5.7l7.6-1.1c0.4,1.9,0.8,3.8,1.1,5.7l-11.5,1.9l0-0.1c-0.6-3-1.2-5.6-1.7-7.7c-0.5-2-1.1-4-1.6-5.8
		c-0.6-1.8-1.2-3.6-1.8-5.5c-0.7-1.9-1.6-4.6-3-8.2l4-0.7L107.4,275.6 M107.9,274.6l-0.7,0.1l-7.2,1.2l-4,0.7l-1.2,0.2l0.4,1.1
		c1.3,3.5,2.3,6.3,3,8.2c0.7,1.9,1.3,3.7,1.8,5.5c0.6,1.8,1.1,3.7,1.6,5.7c0.5,2,1.1,4.6,1.7,7.6l0,0.1l0.2,1l1-0.2l11.5-1.9l1-0.2
		l-0.2-1c-0.3-1.9-0.7-3.9-1.1-5.8l-0.2-0.9l-0.9,0.1l-6.7,1c-0.2-0.9-0.5-2.1-1-3.8l6.3-1l1.1-0.2l-0.3-1c-0.6-2.1-1.1-4-1.7-5.6
		l-0.3-0.8l-0.8,0.1l-6.6,1c-0.3-0.8-0.6-1.7-1-2.6l6.2-0.9l1.1-0.2l-0.3-1.1c-0.4-1.4-1.2-3.3-2.4-5.8L107.9,274.6L107.9,274.6z"/>
	<path class="st1" d="M128.8,272.2c1.5,4.2,2.7,7.6,3.5,10.1c0.8,2.5,1.6,5.2,2.4,8.1c0.8,2.9,1.5,6,2.2,9.1l-4.2,0.7l0-0.1
		l-1.9-7.6c-2-1.7-3.5-3.1-4.7-4.2c-1.2-1.1-2.3-2.1-3.2-3c-1-0.9-2.3-2.3-3.9-4.2c-1.7-1.9-3-4.1-3.9-6.4l4-0.7
		c2,2.9,5.2,6.3,9.5,10.3c-0.7-2.4-1.9-6.2-3.7-11.4L128.8,272.2 M129.4,271.1l-0.8,0.1l-4,0.7l-1.1,0.2l0.4,1.1
		c1.1,3.1,1.9,5.7,2.6,7.8c-2.9-2.9-5.1-5.4-6.7-7.6l-0.3-0.5l-0.6,0.1l-4,0.7l-1.2,0.2l0.5,1.1c1,2.4,2.4,4.6,4.1,6.7
		c1.7,2,3,3.4,4,4.3c1,0.9,2,1.9,3.2,3c1.2,1.1,2.7,2.4,4.5,4l1.7,7.1l0.3,1.2l0.8-0.1l4.2-0.7l1-0.2l-0.2-1
		c-0.7-3.2-1.4-6.3-2.2-9.2c-0.8-2.9-1.6-5.7-2.4-8.1c-0.8-2.5-2-5.9-3.5-10.1L129.4,271.1L129.4,271.1z"/>
	<path class="st1" d="M143.3,269.8c0.7,0,1.4,0.2,2,0.7c0.7,0.6,1.4,1.9,2.3,4.1c0.9,2.1,1.7,4.4,2.5,6.7c0.8,2.3,1.5,4.4,1.9,6
		c0.5,1.7,0.9,3.2,1.2,4.4c0.3,1.3,0.5,2.2,0.4,2.8s-0.2,1.1-0.4,1.6c-0.2,0.5-0.6,0.8-1.1,0.9c-0.5,0.1-1.9,0.3-4.1,0.7
		c-2.2,0.3-3.7,0.6-4.5,0.7c-0.2,0-0.4,0-0.5,0c-0.5,0-1-0.2-1.3-0.5c-0.4-0.4-0.8-0.9-1-1.4c-0.2-0.5-0.3-0.9-0.4-1
		c-0.9-3.7-1.5-6.2-1.8-7.4c-0.3-1.2-0.8-2.6-1.3-4.1c-0.5-1.5-1.2-3.5-2.1-5.9c-0.9-2.4-1.5-3.9-1.7-4.6c-0.2-0.6-0.2-1.2,0-1.6
		c0.2-0.4,0.6-0.7,1.3-0.9c0.7-0.1,1.9-0.4,3.8-0.7c1.9-0.3,3.3-0.5,4.2-0.6C143,269.8,143.2,269.8,143.3,269.8 M145.1,292.8
		c0,0,0.1,0,0.1,0c0.3,0,0.8-0.1,1.6-0.2c0.8-0.1,1.3-0.2,1.4-0.2c0.2-0.1,0.3-0.2,0.3-0.5c0-0.3,0-0.6,0-1c0-0.4-0.2-1-0.4-1.8
		c-0.2-0.8-0.5-1.7-0.8-2.8c-0.3-1.1-0.7-2.3-1.3-3.8c-0.5-1.5-1-2.9-1.5-4.3c-0.5-1.4-0.9-2.2-1.2-2.6c-0.3-0.4-0.6-0.5-0.9-0.5
		c0,0,0,0-0.1,0c-0.3,0-0.8,0.1-1.5,0.2c-0.7,0.1-1.1,0.2-1.3,0.3c-0.2,0.1-0.4,0.2-0.4,0.5c0,0.3,0,0.6,0.1,1
		c0.1,0.4,0.5,1.4,1,2.9c0.6,1.5,1,2.8,1.3,3.8c0.3,1,0.6,1.8,0.8,2.6c0.2,0.8,0.7,2.3,1.3,4.7c0,0.1,0.1,0.3,0.2,0.6
		c0.1,0.3,0.3,0.6,0.5,0.9C144.7,292.6,144.9,292.8,145.1,292.8 M143.3,268.8c-0.2,0-0.4,0-0.6,0c-0.9,0.1-2.3,0.3-4.3,0.6
		c-1.9,0.3-3.2,0.5-3.9,0.7c-1.2,0.3-1.7,0.9-1.9,1.4c-0.3,0.7-0.3,1.4,0,2.3c0.2,0.7,0.8,2.2,1.7,4.6c0.9,2.4,1.6,4.3,2.1,5.9
		c0.5,1.5,0.9,2.9,1.2,4.1c0.3,1.2,0.9,3.7,1.8,7.3c0,0.2,0.1,0.5,0.4,1.2c0.3,0.7,0.7,1.2,1.2,1.7c0.5,0.5,1.2,0.7,1.9,0.7
		c0.2,0,0.4,0,0.7-0.1c0.7-0.1,2.2-0.3,4.5-0.7c2.3-0.3,3.6-0.6,4.2-0.7c0.8-0.2,1.4-0.7,1.8-1.4c0.3-0.6,0.5-1.3,0.5-2
		c0-0.7-0.1-1.7-0.5-3.1c-0.3-1.3-0.7-2.7-1.2-4.5c-0.5-1.7-1.2-3.8-2-6.1c-0.8-2.4-1.7-4.6-2.5-6.8c-1-2.3-1.8-3.8-2.6-4.4
		C145.1,269.1,144.3,268.8,143.3,268.8L143.3,268.8z M140.1,276.3c0.2,0,0.5-0.1,0.9-0.2c0.6-0.1,1-0.2,1.3-0.2c0,0,0.1,0.1,0.1,0.2
		c0.1,0.1,0.4,0.6,1.1,2.4c0.5,1.4,1,2.8,1.5,4.3c0.5,1.5,0.9,2.8,1.2,3.8c0.3,1.1,0.6,2,0.8,2.8c0.3,0.9,0.4,1.4,0.4,1.6
		c0,0.2,0,0.4,0,0.6c-0.2,0-0.5,0.1-0.9,0.1c-0.6,0.1-1.1,0.1-1.4,0.2c-0.1-0.2-0.2-0.4-0.3-0.6c-0.1-0.3-0.2-0.5-0.2-0.6
		c-0.7-2.4-1.1-3.9-1.3-4.7c-0.2-0.8-0.5-1.6-0.8-2.6c-0.3-1-0.8-2.3-1.3-3.8c-0.5-1.5-0.9-2.5-1-2.9
		C140.2,276.5,140.2,276.3,140.1,276.3L140.1,276.3z"/>
	<path class="st1" d="M161.8,266.9c2.6,6.6,4.3,10.8,4.9,12.6c0.6,1.8,1.3,4,2,6.7c0.7,2.6,0.8,4.6,0.5,6c-0.3,1.4-1.3,2.2-2.8,2.5
		c-1.5,0.3-3,0.5-4.5,0.8c-0.5,0.1-1,0.1-1.4,0.1c-0.8,0-1.4-0.2-1.9-0.5c-0.7-0.5-1.3-1.7-1.7-3.4c-0.4-1.7-0.8-3.4-1.3-5.1
		c-0.5-1.6-0.9-3.1-1.3-4.3c-0.4-1.2-1-2.8-1.7-4.7c-0.8-1.9-1.4-3.5-1.8-4.8c-0.5-1.3-1-2.6-1.6-3.8l4.3-0.8c1.1,2.2,2,4.3,2.7,6.1
		c0.7,1.8,1.3,3.7,1.9,5.5c0.6,1.8,1.2,3.7,1.7,5.7c0.5,2,1,3.2,1.3,3.6c0.3,0.3,0.6,0.5,1,0.5c0,0,0.1,0,0.1,0
		c0.4,0,0.8-0.1,1.2-0.1c0.4-0.1,0.8-0.2,1.1-0.4c0.3-0.2,0.2-1.3-0.4-3.4c-0.5-2-1.4-4.6-2.5-7.7c-1.2-3.1-2.6-6.5-4.3-10.2
		L161.8,266.9 M162.4,265.8l-0.8,0.1l-4.5,0.7l-1.3,0.2l0.5,1.2c1.7,3.7,3.2,7.1,4.3,10.2c1.1,3.1,2,5.6,2.5,7.6
		c0.4,1.5,0.5,2.2,0.5,2.5c-0.1,0-0.3,0.1-0.4,0.1c-0.4,0.1-0.8,0.1-1.1,0.1c0,0,0,0,0,0c-0.1,0-0.2-0.1-0.3-0.2
		c-0.1-0.1-0.4-0.6-1.1-3.1c-0.5-2-1.1-4-1.7-5.8c-0.6-1.8-1.2-3.6-1.9-5.5c-0.7-1.9-1.6-4-2.7-6.2L154,267l-0.7,0.1L149,268
		l-1.2,0.2l0.5,1.1c0.6,1.2,1.1,2.5,1.6,3.8c0.5,1.3,1.1,2.9,1.8,4.8c0.7,1.9,1.3,3.5,1.7,4.6c0.4,1.2,0.8,2.6,1.3,4.3
		c0.5,1.6,0.9,3.3,1.3,5c0.4,2,1.1,3.3,2.1,4c0.6,0.5,1.5,0.7,2.4,0.7c0.5,0,1-0.1,1.6-0.2c1.4-0.3,2.9-0.5,4.5-0.8
		c1.9-0.3,3.2-1.4,3.6-3.2c0.4-1.6,0.2-3.7-0.5-6.5c-0.7-2.6-1.4-4.9-2-6.7c-0.7-1.8-2.3-6.1-4.9-12.6L162.4,265.8L162.4,265.8z"/>
	<path class="st1" d="M174.8,264.8c0.6,0,1,0.1,1.3,0.2c0.4,0.2,0.8,0.6,1.3,1c0.5,0.4,1,1.3,1.5,2.5c0.5,1.2,1.1,2.6,1.6,4.2
		c0.5,1.6,0.9,2.6,1,3.2c0.1,0.6,0.3,1.3,0.3,2.2c0.1,0.9-0.4,2-1.4,3.2c2.7,2.8,5,6.2,6.9,10.3l-4.6,0.8c-1.2-2.1-2.2-3.6-3-4.5
		c-0.8-1-2-2-3.6-3.1c0.4,1.3,1.1,4.1,2.1,8.3l-4.6,0.8c-0.8-3.8-1.5-6.8-2.1-9c-0.5-2.1-1.1-4.3-1.8-6.3c-0.7-2.1-1.4-4.2-2.2-6.4
		c-0.8-2.2-1.6-4.2-2.4-6c4-0.6,6.7-1,8.2-1.1C173.9,264.8,174.4,264.8,174.8,264.8 M174.3,278.3c1.2-0.2,2-0.4,2.3-0.7
		c0.3-0.2,0.5-0.6,0.4-1.1c0-0.5-0.1-1-0.2-1.4c-0.1-0.4-0.4-1.2-0.9-2.3c-0.5-1.2-0.9-1.9-1.4-2.2c-0.2-0.2-0.6-0.2-1.2-0.2
		c-0.5,0-1.1,0.1-1.9,0.2C172.3,272.4,173.2,275,174.3,278.3 M174.8,263.8c-0.5,0-1,0-1.6,0.1c-1.5,0.2-4.3,0.5-8.2,1.1l-1.3,0.2
		l0.5,1.2c0.8,1.8,1.6,3.8,2.4,5.9c0.8,2.2,1.5,4.3,2.2,6.3c0.6,2.1,1.2,4.2,1.8,6.3c0.5,2.1,1.2,5.1,2.1,8.9l0.2,0.9l0.9-0.1
		l4.6-0.8l1-0.2l-0.3-1c-0.6-2.3-1-4.1-1.4-5.5c0.5,0.4,0.9,0.8,1.2,1.2c0.8,0.9,1.7,2.4,2.9,4.4l0.3,0.6l0.7-0.1l4.6-0.8l1.2-0.2
		l-0.5-1.1c-1.7-3.9-3.9-7.3-6.5-10c0.8-1.1,1.1-2.2,1.1-3.1c-0.1-1-0.2-1.7-0.3-2.4c-0.2-0.6-0.5-1.7-1-3.3c-0.5-1.6-1.1-3-1.6-4.3
		c-0.6-1.4-1.2-2.3-1.7-2.8c-0.5-0.5-1-0.9-1.5-1.1C176.2,264,175.6,263.8,174.8,263.8L174.8,263.8z M172.8,271.3c0.2,0,0.3,0,0.5,0
		c0.5,0,0.7,0.1,0.7,0.1c0.1,0.1,0.5,0.4,1,1.7c0.6,1.4,0.8,2,0.9,2.2c0.1,0.3,0.2,0.7,0.2,1.2c0,0,0,0.3-0.1,0.3
		c0,0-0.2,0.2-1.1,0.3C174.2,274.9,173.5,272.9,172.8,271.3L172.8,271.3z"/>
	<path class="st1" d="M198.8,260.9c1.2,2.6,2.2,4.6,2.8,6.1c0.6,1.5,1.2,3.2,1.9,5c0.7,1.9,1.3,3.7,1.8,5.4c0.6,1.7,1,3.4,1.4,5
		c0.4,1.6,0.8,3.5,1.2,5.6l-4.2,0.7c-0.7-3-1.3-5.2-1.6-6.6c-0.4-1.4-0.8-3-1.4-4.6l-3.7,0.5c0.4,1.5,0.8,3,1.1,4.3
		c0.3,1.3,0.8,3.7,1.5,7l-4.3,0.7l-0.1,0c-0.7-3.3-1.3-5.8-1.7-7.4c-0.4-1.6-0.9-3.3-1.5-5c-0.6-1.7-1.2-3.4-1.8-5.2
		c-0.6-1.7-1.2-3.3-1.7-4.6c-0.5-1.3-1.2-3-2-5l3-0.5l1.4-0.2l0,0c1.1,2.4,1.9,4.2,2.4,5.4c0.5,1.2,1.1,2.8,1.8,4.7l3.7-0.5
		c-0.9-2.5-1.7-4.6-2.5-6.2c-0.7-1.6-1.4-3-1.9-4L198.8,260.9 M199.3,259.8l-0.7,0.1l-4.4,0.7l-1.3,0.2l0.6,1.2
		c0.5,1,1.2,2.3,1.9,3.9c0.6,1.4,1.3,3,2,5l-1.8,0.2c-0.6-1.6-1.1-3-1.5-4c-0.5-1.2-1.3-3-2.4-5.4l-0.3-0.7l-0.5,0.1l-1.6,0.3
		l-3,0.5l-1.2,0.2l0.4,1.1c0.8,2,1.4,3.6,2,5c0.5,1.3,1.1,2.9,1.7,4.6c0.6,1.7,1.2,3.4,1.8,5.1c0.6,1.7,1.1,3.3,1.5,4.9
		c0.4,1.6,1,4.1,1.7,7.4l0.2,0.9l0.9-0.1l0.1,0l4.3-0.7l1-0.2l-0.2-1c-0.7-3.4-1.2-5.7-1.5-7c-0.2-1-0.5-2.1-0.8-3.3l1.8-0.2
		c0.4,1.4,0.8,2.6,1.1,3.8c0.4,1.4,0.9,3.6,1.6,6.6l0.2,0.9l0.9-0.1l4.2-0.7l1-0.2l-0.2-1c-0.4-2.2-0.8-4.1-1.2-5.7
		c-0.4-1.6-0.9-3.3-1.4-5c-0.6-1.8-1.2-3.6-1.8-5.4c-0.7-1.9-1.3-3.6-1.9-5.1c-0.6-1.5-1.6-3.6-2.8-6.2L199.3,259.8L199.3,259.8z"/>
	<path class="st1" d="M215.1,258.1c2.6,6.6,4.3,10.8,4.9,12.6c0.6,1.8,1.3,4,2,6.7c0.7,2.6,0.8,4.6,0.5,6c-0.3,1.4-1.3,2.2-2.8,2.5
		c-1.5,0.3-3,0.5-4.5,0.8c-0.5,0.1-1,0.1-1.4,0.1c-0.8,0-1.4-0.2-1.9-0.5c-0.7-0.5-1.3-1.7-1.7-3.4s-0.8-3.4-1.3-5.1
		c-0.5-1.6-0.9-3.1-1.3-4.3c-0.4-1.2-1-2.8-1.7-4.7c-0.8-1.9-1.4-3.5-1.8-4.8c-0.5-1.3-1-2.6-1.6-3.8l4.3-0.8c1.1,2.2,2,4.3,2.7,6.1
		c0.7,1.8,1.3,3.7,1.9,5.5c0.6,1.8,1.2,3.7,1.7,5.7c0.5,2,1,3.2,1.3,3.6c0.3,0.3,0.6,0.5,1,0.5c0,0,0.1,0,0.1,0
		c0.4,0,0.8-0.1,1.2-0.1c0.4-0.1,0.8-0.2,1.1-0.4c0.3-0.2,0.2-1.3-0.4-3.4c-0.5-2-1.4-4.6-2.5-7.7c-1.2-3.1-2.6-6.5-4.3-10.2
		L215.1,258.1 M215.7,257l-0.8,0.1l-4.5,0.7l-1.3,0.2l0.5,1.2c1.7,3.7,3.2,7.1,4.3,10.2c1.1,3.1,2,5.6,2.5,7.6
		c0.4,1.5,0.5,2.2,0.5,2.5c-0.1,0-0.3,0.1-0.4,0.1c-0.4,0.1-0.8,0.1-1.1,0.1c0,0,0,0,0,0c-0.1,0-0.2-0.1-0.3-0.2
		c-0.1-0.1-0.4-0.6-1.1-3.1c-0.5-2-1.1-4-1.7-5.8c-0.6-1.8-1.3-3.6-1.9-5.5c-0.7-1.9-1.6-4-2.7-6.2l-0.3-0.7l-0.7,0.1l-4.3,0.8
		l-1.2,0.2l0.5,1.1c0.6,1.2,1.1,2.5,1.6,3.8c0.5,1.3,1.1,2.9,1.8,4.8c0.7,1.9,1.3,3.5,1.7,4.6c0.4,1.2,0.8,2.6,1.3,4.3
		c0.5,1.6,0.9,3.3,1.3,5c0.4,2,1.1,3.3,2.1,4c0.6,0.5,1.5,0.7,2.4,0.7c0.5,0,1-0.1,1.6-0.2c1.4-0.3,2.9-0.5,4.5-0.8
		c1.9-0.3,3.2-1.4,3.6-3.2c0.4-1.6,0.2-3.7-0.5-6.5c-0.7-2.6-1.4-4.9-2-6.7c-0.6-1.8-2.3-6.1-4.9-12.6L215.7,257L215.7,257z"/>
	<path class="st1" d="M231.4,255c1.5,3.5,2.5,5.9,3,7.2c0.5,1.3,1.1,2.8,1.7,4.6c0.6,1.8,1.3,4.2,2.1,7.2c0.8,3,1.5,5.8,2,8.3
		l-3.5,0.6l-7.4-9.5c0.8,3.4,1.3,5.6,1.5,6.6c0.2,0.9,0.5,2.2,0.8,3.8l-4.2,0.7l-0.1-0.1c-0.7-3.5-1.4-6.3-2-8.5
		c-0.6-2.2-1.3-4.4-2-6.6c-0.8-2.2-1.5-4.2-2.2-6c-0.7-1.8-1.3-3.3-1.8-4.4c-0.5-1.1-0.7-1.7-0.7-1.7l3.7-0.6l8,8
		c-0.4-0.9-0.8-2.1-1.2-3.4c-0.7-2-1.6-3.8-2.3-5.3L231.4,255 M232,254l-0.7,0.1l-4.4,0.7l-1.3,0.2l0.5,1.2l0.3,0.7
		c0.5,1.1,1.1,2.4,1.7,3.8l-4.9-4.9l-0.4-0.4l-0.5,0.1l-3.7,0.6l-0.5,0.1l-0.8,0.1c0,0,0.4,1.1,1.2,2.8c0.5,1.1,1.1,2.6,1.7,4.3
		c0.7,1.8,1.4,3.8,2.1,6c0.8,2.2,1.4,4.3,2,6.5c0.6,2.2,1.2,5,2,8.5l0,0.2l0.2,0.8l0.4-0.1l0.6-0.1l4.2-0.7l1-0.2l-0.2-1
		c-0.3-1.7-0.6-2.9-0.8-3.9c-0.1-0.4-0.3-1.2-0.5-2.2l4.7,6l0.4,0.5l0.6-0.1l3.5-0.6l1-0.2l-0.2-1c-0.5-2.6-1.2-5.4-2-8.4
		c-0.8-3-1.5-5.4-2.2-7.2c-0.6-1.8-1.2-3.4-1.7-4.6c-0.5-1.3-1.5-3.7-3-7.2L232,254L232,254z"/>
	<path class="st1" d="M247.8,251.9l1.7,3.9l0.3,0.9l0.2,0.7c-2.3,0.3-4.1,0.5-5.4,0.7c-1.3,0.1-1.9,0.5-1.9,1.2
		c0,0.6,0.3,1.4,0.7,2.3c0.4,0.9,0.9,2.1,1.5,3.6c0.5,1.5,1,2.7,1.3,3.7c0.3,1,0.6,1.7,0.8,2.2c0.2,0.5,0.3,0.8,0.4,1
		c0.1,0.2,0.2,0.6,0.3,0.8c0.1,0.1,0.1,0.7,0.9,0.7c0.2,0,0.4,0,0.6-0.1c0.3-0.1,0.8-0.1,1.4-0.2c0.4-0.1,0.6-0.6,0.3-1.4
		c0,0,0,0,0,0c0,0-0.1-0.2,0-0.2c0,0,0,0,0,0c0-0.2-0.1-0.3-0.2-0.5c-0.2-0.7-0.4-1.1-0.6-1.2c-0.1-0.1-0.3-0.1-0.5-0.1
		c-0.2,0-0.5,0-0.9,0.1l-1.7-5.1c0.8-0.2,1.4-0.3,1.9-0.4c0.5-0.1,1.1-0.2,1.6-0.2c0.6-0.1,1.2-0.2,2-0.2c1.4,3.7,2.3,6.1,2.5,7.1
		c0.3,1,0.6,2.4,1.2,4.1c0.5,1.7,0.5,2.7-0.1,3.2c-0.6,0.4-2.1,0.9-4.5,1.2c-2.4,0.4-3.6,0.6-3.6,0.6c-0.1,0-0.3,0-0.6,0.1
		c-0.1,0-0.3,0-0.4,0c-0.2,0-0.5,0-0.7-0.1c-0.4-0.1-0.7-0.4-1-0.8c-0.3-0.4-0.6-1-0.9-1.6c-0.3-0.7-0.7-1.8-1.1-3.3
		c-0.5-1.6-1.1-3.4-1.8-5.6c-0.7-2.2-1.4-4-1.9-5.4c-0.6-1.5-1-2.7-1.4-3.6c-0.4-0.9-0.6-1.6-0.8-2c-0.2-0.4-0.3-0.8-0.5-1.3
		c-0.1-0.5-0.1-1.1,0.1-1.9c0.2-0.8,0.7-1.3,1.4-1.4c0.7-0.2,1.8-0.3,3.3-0.5C243.3,252.4,245.3,252.1,247.8,251.9 M248.4,250.9
		l-0.7,0.1c-2.5,0.3-4.5,0.5-6,0.7c-1.5,0.2-2.6,0.4-3.4,0.6c-0.7,0.2-1.7,0.7-2.1,2.1c-0.3,1-0.3,1.8-0.1,2.5
		c0.2,0.5,0.3,1,0.5,1.4c0.2,0.4,0.4,1,0.8,1.9c0.4,0.9,0.8,2.1,1.4,3.6c0.5,1.4,1.2,3.2,1.9,5.4c0.7,2.2,1.3,4,1.8,5.6
		c0.5,1.6,0.9,2.8,1.2,3.5c0.3,0.7,0.7,1.3,1,1.8c0.5,0.6,1,1,1.5,1.1c0.3,0.1,0.6,0.1,1,0.1c0.2,0,0.4,0,0.5,0l0.6-0.1
		c0.1,0,1.3-0.2,3.6-0.6c3.4-0.6,4.4-1.1,4.9-1.4c1.5-1.1,0.7-3.5,0.5-4.2c-0.5-1.6-0.9-3-1.1-4c-0.3-1.1-1.1-3.5-2.5-7.2l-0.3-0.7
		l-0.7,0.1c-0.8,0.1-1.5,0.2-2.1,0.2c-0.6,0.1-1.1,0.2-1.7,0.2c-0.5,0.1-1.2,0.2-1.9,0.4l-1.1,0.2l0.3,1l1.7,5.1l0.3,0.8l0.8-0.1
		c0.4-0.1,0.6-0.1,0.7-0.1c0.1,0.1,0.1,0.3,0.3,0.7c0,0.1,0.1,0.2,0.1,0.3c0,0.2,0.1,0.4,0.1,0.5c0,0,0,0.1,0,0.1
		c-0.1,0-0.2,0-0.3,0c-0.3,0-0.5,0-0.7,0.1c-0.2,0-0.3,0.1-0.4,0.1c0-0.1-0.1-0.2-0.1-0.3c0,0-0.1-0.2-0.1-0.2
		c-0.1-0.2-0.1-0.3-0.2-0.5c-0.1-0.1-0.2-0.3-0.4-0.9c-0.2-0.4-0.4-1.1-0.7-2.2c-0.3-1-0.8-2.2-1.3-3.7c-0.5-1.5-1-2.7-1.5-3.7
		c-0.4-0.9-0.6-1.5-0.6-1.8c0.1-0.1,0.4-0.2,1-0.2c1.3-0.1,3.1-0.4,5.4-0.7l1.2-0.2l-0.4-1.1l-0.2-0.7l-0.4-0.9l-1.7-4L248.4,250.9
		L248.4,250.9z"/>
	<path class="st1" d="M264.4,248.8c1.1,2.4,1.9,4.3,2.4,5.7l-7.4,1.1c0.7,1.8,1.2,3.3,1.6,4.5l7.4-1.1c0.5,1.6,1.1,3.4,1.6,5.5
		l-7.4,1.2c0.8,3,1.3,4.9,1.4,5.7l7.6-1.1c0.4,1.9,0.8,3.8,1.1,5.7l-11.5,1.9l0-0.1c-0.6-3-1.2-5.6-1.7-7.7c-0.5-2-1.1-4-1.6-5.8
		c-0.6-1.8-1.2-3.6-1.8-5.5c-0.7-1.9-1.6-4.6-3-8.2l4-0.7L264.4,248.8 M264.9,247.7l-0.7,0.1L257,249l-4,0.7l-1.2,0.2l0.4,1.1
		c1.3,3.6,2.3,6.3,3,8.2c0.6,1.8,1.3,3.7,1.8,5.5c0.6,1.8,1.1,3.7,1.6,5.7c0.5,2,1.1,4.6,1.7,7.6l0,0.1l0.2,1l1-0.2l11.5-1.9l1-0.2
		l-0.2-1c-0.3-1.9-0.7-3.9-1.1-5.8l-0.2-0.9l-0.9,0.1l-6.7,1c-0.2-0.9-0.5-2.1-1-3.8l6.3-1l1.1-0.2l-0.3-1c-0.6-2.1-1.1-4-1.7-5.6
		l-0.3-0.8l-0.8,0.1l-6.6,1c-0.3-0.8-0.6-1.6-1-2.6l6.2-0.9l1.1-0.2l-0.3-1.1c-0.4-1.4-1.2-3.3-2.4-5.8L264.9,247.7L264.9,247.7z"/>
	<path class="st1" d="M277,246.7c0.6,0,1,0.1,1.3,0.2c0.4,0.2,0.8,0.6,1.3,1c0.5,0.4,1,1.3,1.5,2.5c0.5,1.2,1.1,2.6,1.6,4.2
		c0.5,1.6,0.9,2.6,1,3.2c0.1,0.6,0.3,1.3,0.3,2.2c0.1,0.9-0.4,2-1.4,3.2c2.7,2.8,5,6.2,6.9,10.3l-4.6,0.8c-1.2-2.1-2.2-3.6-3-4.5
		c-0.8-1-2-2-3.6-3.1c0.4,1.3,1.1,4.1,2.1,8.3l-4.6,0.8c-0.8-3.8-1.5-6.8-2.1-9c-0.5-2.1-1.1-4.3-1.8-6.3c-0.7-2.1-1.4-4.2-2.2-6.4
		c-0.8-2.2-1.6-4.2-2.4-6c4-0.6,6.7-1,8.2-1.1C276.1,246.7,276.6,246.7,277,246.7 M276.5,260.2c1.2-0.2,2-0.4,2.3-0.7
		c0.3-0.2,0.5-0.6,0.4-1.1c0-0.5-0.1-1-0.2-1.4c-0.1-0.4-0.4-1.2-0.9-2.3c-0.5-1.2-0.9-1.9-1.4-2.2c-0.2-0.2-0.6-0.2-1.2-0.2
		c-0.5,0-1.1,0.1-1.9,0.2C274.5,254.3,275.4,256.9,276.5,260.2 M277,245.7c-0.5,0-1,0-1.6,0.1c-1.5,0.2-4.3,0.5-8.2,1.1l-1.3,0.2
		l0.5,1.2c0.8,1.8,1.6,3.8,2.4,5.9c0.8,2.2,1.5,4.3,2.2,6.3c0.6,2.1,1.2,4.2,1.8,6.3c0.5,2.1,1.2,5.2,2.1,8.9l0.2,0.9l0.9-0.1
		l4.6-0.8l1-0.2l-0.3-1c-0.6-2.3-1-4.1-1.4-5.5c0.5,0.4,0.9,0.8,1.2,1.2c0.8,0.9,1.7,2.4,2.9,4.4l0.3,0.6l0.7-0.1l4.6-0.8l1.2-0.2
		l-0.5-1.1c-1.7-3.9-3.9-7.3-6.5-10c0.8-1.1,1.1-2.2,1.1-3.1c-0.1-1-0.2-1.8-0.3-2.4c-0.2-0.6-0.5-1.6-1-3.3c-0.5-1.6-1.1-3-1.6-4.3
		c-0.6-1.4-1.2-2.3-1.7-2.8c-0.5-0.5-1-0.9-1.5-1.1C278.4,245.9,277.8,245.7,277,245.7L277,245.7z M275,253.2c0.2,0,0.3,0,0.5,0
		c0.5,0,0.7,0.1,0.7,0.1c0.1,0.1,0.5,0.4,1,1.7c0.6,1.4,0.8,2,0.9,2.2c0.1,0.3,0.2,0.7,0.2,1.2c0,0,0,0.3-0.1,0.3
		c0,0-0.2,0.2-1.1,0.3C276.4,256.8,275.7,254.8,275,253.2L275,253.2z"/>
	<path class="st1" d="M292.9,244c1.4,3.2,2.5,5.7,3.3,7.6c0.7,1.8,1.5,3.9,2.3,6.2c0.8,2.3,1.4,4.5,1.9,6.5c0.5,2,1.1,4.3,1.6,6.9
		l-4.2,0.7c-0.4-2.3-0.8-4.1-1.2-5.6c-0.4-1.5-0.9-3-1.3-4.5c-0.5-1.5-1-3.1-1.6-4.9c-0.6-1.7-1.2-3.4-1.8-5
		c-0.6-1.6-1.2-2.9-1.6-4.1c-0.5-1.1-1-2.2-1.5-3.2L292.9,244 M293.5,242.9l-0.7,0.1l-4.3,0.6l-1.3,0.2l0.6,1.2c0.5,1,1,2.1,1.4,3.2
		c0.5,1.2,1,2.5,1.6,4c0.6,1.6,1.2,3.2,1.8,4.9c0.6,1.7,1.1,3.4,1.6,4.9c0.5,1.5,0.9,3,1.3,4.5c0.4,1.5,0.8,3.3,1.2,5.5l0.2,0.9
		l0.9-0.2l4.2-0.7l1-0.2l-0.2-1c-0.5-2.6-1.1-4.9-1.6-7c-0.5-2-1.2-4.2-1.9-6.5c-0.8-2.3-1.5-4.5-2.3-6.3c-0.7-1.8-1.8-4.4-3.3-7.6
		L293.5,242.9L293.5,242.9z"/>
	<path class="st1" d="M309.3,241.2c1.5,3.5,2.5,5.9,3,7.2c0.5,1.3,1.1,2.8,1.7,4.6c0.6,1.8,1.3,4.2,2.1,7.2c0.8,3,1.5,5.8,2,8.3
		l-3.5,0.6l-7.4-9.5c0.8,3.4,1.3,5.6,1.5,6.5c0.2,0.9,0.5,2.2,0.8,3.8l-4.2,0.7l-0.1-0.1c-0.7-3.5-1.4-6.3-2-8.5
		c-0.6-2.2-1.3-4.4-2-6.6c-0.8-2.2-1.5-4.2-2.2-6c-0.7-1.8-1.3-3.3-1.8-4.4c-0.5-1.1-0.7-1.7-0.7-1.7l3.7-0.6l9.9,13.3
		c-1.3-3.8-2.3-6.7-3.1-8.7c-0.8-2-1.6-3.8-2.3-5.3L309.3,241.2 M309.8,240.2l-0.7,0.1l-4.4,0.7l-1.3,0.2l0.5,1.2
		c0.7,1.6,1.5,3.3,2.3,5.3c0.3,0.7,0.6,1.6,1,2.6l-6.1-8.2l-0.4-0.5l-0.6,0.1l-3.7,0.6l-0.5,0.1l-0.7,0.2c0.2,0.5,0.4,1,1.2,2.8
		c0.5,1.1,1.1,2.6,1.7,4.3c0.7,1.8,1.4,3.8,2.1,6c0.8,2.2,1.4,4.3,2,6.5c0.6,2.1,1.2,5,2,8.5l0,0.2l0.1,0.8l0.4-0.1l0.6-0.1l4.2-0.7
		l1-0.2l-0.2-1c-0.3-1.6-0.6-2.9-0.8-3.9c-0.1-0.4-0.3-1.2-0.5-2.2l4.7,6l0.4,0.5l0.6-0.1l3.5-0.6l1-0.2l-0.2-1
		c-0.5-2.6-1.2-5.4-2-8.4c-0.8-3-1.5-5.4-2.2-7.2c-0.6-1.8-1.2-3.3-1.7-4.6c-0.5-1.3-1.5-3.6-3-7.2L309.8,240.2L309.8,240.2z"/>
	<path class="st1" d="M330.6,237.8c1.1,2.5,1.9,4.5,2.4,5.9l-4.7,0.8c1.1,2.8,2,5.1,2.6,6.9c0.6,1.8,1.2,3.5,1.7,5.2
		c0.5,1.7,1.4,4.8,2.5,9.2l-4.4,0.7c-1.4-5.1-2.6-9.3-3.6-12.5c-1-3.2-2.1-6.1-3.3-8.6L320,246c-1.1-2.7-2-4.7-2.6-6l0.7-0.1
		L330.6,237.8 M331.2,236.8l-0.7,0.1l-12.5,2.1l-0.7,0.1l-1.3,0.2l0.5,1.2c0.6,1.2,1.4,3.2,2.6,5.9l0.3,0.7l0.8-0.1l3.2-0.5
		c1,2.3,2,5,2.9,7.9c1,3.2,2.2,7.4,3.6,12.5l0.2,0.8l0.9-0.1l4.4-0.7l1-0.2l-0.3-1c-1.1-4.5-2-7.6-2.5-9.3c-0.5-1.7-1.1-3.5-1.7-5.2
		c-0.5-1.5-1.3-3.5-2.2-5.8l3.5-0.6l1.2-0.2l-0.4-1.1c-0.6-1.4-1.4-3.3-2.5-5.9L331.2,236.8L331.2,236.8z"/>
	<path class="st1" d="M345,235.5c1.2,2.6,2.2,4.6,2.8,6.1c0.6,1.5,1.2,3.2,1.9,5c0.7,1.9,1.3,3.7,1.8,5.4c0.6,1.8,1,3.4,1.4,5
		c0.4,1.6,0.8,3.5,1.2,5.6l-4.2,0.7c-0.7-3-1.3-5.2-1.6-6.6c-0.4-1.4-0.8-3-1.4-4.6l-3.7,0.5c0.4,1.5,0.8,3,1.1,4.3
		c0.3,1.4,0.8,3.7,1.5,7l-4.3,0.7l-0.1,0c-0.7-3.3-1.3-5.8-1.7-7.4c-0.4-1.6-0.9-3.3-1.5-5c-0.6-1.7-1.2-3.4-1.8-5.2
		c-0.6-1.7-1.2-3.3-1.7-4.6c-0.5-1.3-1.2-3-2-5l3-0.5l1.6-0.3l-0.2,0c1.1,2.4,1.9,4.2,2.4,5.4c0.5,1.2,1.1,2.8,1.8,4.7l3.7-0.5
		c-0.9-2.5-1.7-4.6-2.5-6.2c-0.7-1.6-1.4-3-1.9-4L345,235.5 M345.6,234.5l-0.7,0.1l-4.5,0.7l-1.3,0.2l0.6,1.2c0.5,1,1.2,2.3,1.9,3.9
		c0.6,1.4,1.3,3,2,5l-1.8,0.2c-0.6-1.6-1.1-3-1.5-4c-0.5-1.2-1.3-3.1-2.4-5.4l-0.7,0.3l-0.2-0.9l-1.6,0.3l-3,0.5l-1.2,0.2l0.4,1.1
		c0.8,2,1.4,3.6,2,5c0.5,1.3,1.1,2.9,1.7,4.6c0.6,1.7,1.2,3.4,1.8,5.1c0.6,1.7,1.1,3.3,1.5,4.9c0.4,1.6,1,4.1,1.7,7.4l0.2,0.9
		l0.9-0.1l0.1,0l4.3-0.7l1-0.2l-0.2-1c-0.7-3.4-1.2-5.7-1.5-7.1c-0.2-1-0.5-2.1-0.8-3.3l1.8-0.2c0.4,1.4,0.8,2.6,1.1,3.8
		c0.4,1.4,0.9,3.6,1.6,6.6l0.2,0.9l0.9-0.1l4.2-0.7l1-0.2l-0.2-1c-0.4-2.2-0.8-4.1-1.2-5.7c-0.4-1.6-0.9-3.3-1.4-5
		c-0.6-1.8-1.2-3.6-1.8-5.4c-0.7-1.9-1.3-3.6-1.9-5.1c-0.6-1.5-1.6-3.6-2.8-6.2L345.6,234.5L345.6,234.5z"/>
	<path class="st1" d="M360,233c1.1,2.4,1.9,4.3,2.4,5.7l-7.4,1.1c0.7,1.8,1.2,3.3,1.6,4.5l7.4-1.1c0.5,1.6,1.1,3.4,1.6,5.5l-7.4,1.2
		c0.8,3,1.3,4.9,1.4,5.7l7.6-1.1c0.4,1.9,0.8,3.8,1.1,5.7l-11.5,1.9l0-0.1c-0.6-3-1.2-5.6-1.7-7.7c-0.5-2-1.1-4-1.6-5.8
		c-0.6-1.8-1.2-3.6-1.8-5.5c-0.7-1.9-1.6-4.6-3-8.2l4-0.7L360,233 M360.6,232l-0.7,0.1l-7.2,1.2l-4,0.7l-1.2,0.2l0.4,1.1
		c1.3,3.5,2.3,6.3,3,8.2c0.7,1.8,1.3,3.7,1.8,5.5c0.6,1.8,1.1,3.7,1.6,5.7c0.5,2,1.1,4.6,1.7,7.6l0,0.1l0.2,1l1-0.2l11.5-1.9l1-0.2
		l-0.2-1c-0.3-1.9-0.7-3.9-1.1-5.8l-0.2-0.9l-0.9,0.1l-6.7,1c-0.2-0.9-0.5-2.1-1-3.8l6.3-1l1.1-0.2l-0.3-1c-0.6-2.1-1.1-4-1.7-5.6
		l-0.3-0.8l-0.8,0.1l-6.6,1c-0.3-0.8-0.6-1.6-1-2.6l6.2-0.9l1.1-0.2l-0.3-1.1c-0.4-1.4-1.2-3.3-2.4-5.8L360.6,232L360.6,232z"/>
	<path class="st1" d="M377.8,230.4c1.1,0,1.9,0.2,2.4,0.7c0.7,0.7,1.4,1.8,1.9,3.1c0.5,1.3,1.2,3,1.8,4.9c0.7,1.9,1.1,3.1,1.2,3.7
		c0.2,0.6,0.3,1.2,0.4,1.8c0.1,0.6,0.1,1.3,0,1.9c-0.1,0.6-0.4,1.1-0.7,1.4c-0.3,0.3-2.3,0.7-5.9,1.2l1.5,6l0.6,3l-4.1,0.7l-0.1,0
		c-0.6-2.9-1.2-5.3-1.7-7.2c-0.5-2-1.1-4.1-1.9-6.5c-0.7-2.4-1.5-4.5-2.3-6.5c-0.8-2-1.4-3.6-1.9-5c-0.5-1.2-0.7-1.9-0.8-1.9
		l7.9-1.3C376.7,230.4,377.3,230.4,377.8,230.4 M377.4,243.9c2.3-0.4,3.5-0.6,3.6-0.6c0.1,0,0.1-0.2,0.1-0.6c0-0.4-0.3-1.3-0.9-2.8
		c-0.6-1.5-1-2.6-1.3-3.3c-0.3-0.7-0.6-1.1-0.9-1.1c0,0-0.1,0-0.2,0c-0.5,0-1.6,0.2-3.3,0.5l0,0.1c0.8,1.9,1.4,3.6,2,5.2
		C377,242.8,377.3,243.6,377.4,243.9 M368.2,231.8C368.2,231.8,368.2,231.8,368.2,231.8L368.2,231.8
		C368.2,231.8,368.2,231.8,368.2,231.8 M377.8,229.4c-0.5,0-1.2,0.1-1.8,0.2l-7.7,1.3h-0.4l-0.1,0.1l-1,0.2l0.6,1.1l0.1,0.8l0.2,0
		c0.1,0.3,0.3,0.7,0.5,1.2c0.5,1.4,1.2,3,1.9,5c0.8,1.9,1.5,4.1,2.2,6.4c0.7,2.3,1.4,4.5,1.9,6.4c0.5,2,1.1,4.4,1.7,7.2l0.2,0.9
		l0.9-0.1l0.1,0l4.1-0.7l1-0.2l-0.2-1l-0.6-3l-1.2-5c4.7-0.7,5.1-1,5.4-1.3c0.5-0.4,0.8-1,1-1.9c0.2-0.8,0.2-1.5,0-2.3
		c-0.1-0.7-0.3-1.3-0.5-1.9c-0.2-0.6-0.6-1.8-1.3-3.8c-0.7-1.9-1.3-3.6-1.8-4.9c-0.6-1.5-1.3-2.6-2.1-3.4
		C380.2,229.7,379.1,229.4,377.8,229.4L377.8,229.4z M375.8,236.7c1.2-0.2,1.7-0.3,1.9-0.3c0.1,0.1,0.2,0.2,0.3,0.5l0.4,1l0.9,2.2
		c0.5,1.3,0.7,1.9,0.8,2.3c-0.5,0.1-1.2,0.2-2,0.3c-0.1-0.4-0.3-1-0.7-1.9C377,239.6,376.4,238.2,375.8,236.7L375.8,236.7z"/>
	<path class="st1" d="M394.4,227.2c0.6,1.1,1.2,2.2,1.8,3.4c0.6,1.2,1.3,2.7,2,4.5c0.7,1.8,1.4,3.7,2.1,5.8c0.7,2.1,1.3,4,1.8,5.9
		c0.5,1.9,1.1,4.4,1.8,7.4l-4,0.7l-1.2-5.1l-0.7-2.4l-4,0.5l1,3.7l0.8,4l-4.1,0.7c-0.5-2.6-1-4.7-1.5-6.4c-0.5-1.7-0.9-3.4-1.4-5.1
		c-0.5-1.7-1.1-3.4-1.7-5.1c-0.6-1.7-1.3-3.5-1.9-5.2c-0.6-1.7-0.8-3.2-0.5-4.2c0.2-1.1,0.6-1.7,1-1.8c0.4-0.1,1.4-0.3,2.7-0.5
		C389.8,227.5,391.8,227.3,394.4,227.2 M392.3,242.3l3.9-0.6c-0.7-2.3-1.2-3.9-1.6-4.7c-0.4-0.9-1-2.3-1.9-4.4
		c-2,0.1-3.1,0.4-3.1,0.9c-0.1,0.5,0,1.2,0.3,2.1C390.2,236.4,391,238.6,392.3,242.3 M394.9,226.1l-0.6,0c-2.6,0.2-4.7,0.4-6,0.6
		c-1.4,0.2-2.3,0.4-2.8,0.5c-1.1,0.3-1.5,1.6-1.7,2.5c-0.3,1.3-0.1,2.8,0.6,4.8c0.6,1.7,1.2,3.5,1.9,5.2c0.6,1.7,1.2,3.4,1.7,5.1
		c0.5,1.7,1,3.4,1.4,5.1c0.5,1.7,0.9,3.8,1.5,6.4l0.2,0.9l0.9-0.2l4.1-0.7l1-0.2l-0.2-1l-0.8-4l0,0l0,0l-0.7-2.6l2.1-0.3l0.5,1.6
		l1.2,5.1l0.2,0.9l0.9-0.1l4-0.7l1-0.2l-0.2-1c-0.7-3.1-1.3-5.6-1.8-7.5c-0.5-1.9-1.1-3.9-1.8-5.9c-0.7-2.1-1.4-4-2.1-5.8
		c-0.7-1.8-1.4-3.3-2-4.5c-0.6-1.2-1.2-2.4-1.9-3.5L394.9,226.1L394.9,226.1z M390.6,233.7c0.2-0.1,0.7-0.2,1.6-0.3
		c0.8,1.8,1.3,3,1.6,3.8c0.3,0.7,0.7,1.9,1.2,3.6l-2.1,0.3c-1.2-3.1-1.9-5.2-2.1-6C390.6,234.5,390.6,234,390.6,233.7L390.6,233.7z"
		/>
	<path class="st1" d="M408.9,224.5c0.9,0,1.6,0.2,2.1,0.6c0.8,0.6,1.4,1.4,1.9,2.5c0.5,1.1,1,2.4,1.4,3.7l-4.1,0.8
		c-0.6-1.5-1.3-2.3-2.1-2.3c-0.2,0-0.4,0-0.6,0c-0.5,0-1,0.1-1.4,0.2c-0.6,0.2-0.8,0.5-0.7,1c0.1,0.5,0.4,1.3,0.7,2.2
		c0.4,1,0.7,1.6,1,2c0.3,0.4,0.6,0.6,1,0.8c0.2,0.1,0.5,0.1,0.9,0.1c0.4,0,0.8,0,1.3-0.1c0.6-0.1,1.3-0.2,2-0.2c0.4,0,0.9,0,1.4,0.1
		c1.2,0.1,2.1,0.9,2.8,2.2c0.7,1.4,1.3,3.3,1.9,5.7c0.6,2.4,0.9,4.1,0.9,5.1c0,1-0.6,2-1.9,2.9l-5,0.8c-0.5,0.1-0.9,0.2-1.3,0.2
		c-2.4,0-4.1-1.8-5-5.5l-0.5-2.6l3.9-0.6c0.3,1.3,0.6,2.1,0.8,2.5c0.2,0.3,0.3,0.6,0.5,0.8c0.1,0.1,0.2,0.1,0.5,0.1
		c0.5,0,1.5-0.1,2.9-0.3c0.7-0.4,0.8-1.5,0.3-3.2c-0.5-1.7-1.1-2.7-1.7-2.8c-0.4-0.1-0.8-0.1-1.3-0.1c-0.4,0-0.8,0-1.2,0.1
		c-1.1,0.1-2.1,0.2-3,0.3c-0.1,0-0.2,0-0.3,0c-0.8,0-1.5-0.3-2.1-0.8c-0.6-0.6-1.3-1.8-1.9-3.7c-0.6-1.8-1.2-3.4-1.7-4.7
		c-0.5-1.3-0.8-2.3-1.1-3c-0.2-0.7-0.3-1.3,0-1.9c0.2-0.6,0.6-1,1.1-1.3c0.5-0.2,1.6-0.5,3.2-0.8c1.6-0.3,2.7-0.4,3.2-0.4
		C408.1,224.6,408.5,224.5,408.9,224.5 M408.9,223.6C408.9,223.6,408.9,223.6,408.9,223.6c-0.4,0-0.8,0-1.3,0.1
		c-0.6,0-1.6,0.2-3.2,0.4c-1.7,0.3-2.9,0.6-3.5,0.8c-0.8,0.4-1.4,1-1.7,1.8c-0.3,0.8-0.3,1.7,0,2.6c0.2,0.7,0.6,1.7,1.1,3
		c0.5,1.3,1,2.9,1.7,4.7c0.7,2,1.4,3.3,2.1,4c0.7,0.7,1.7,1.1,2.7,1.1c0.1,0,0.3,0,0.4,0c1-0.1,2-0.2,3.1-0.3c0.4,0,0.8-0.1,1.1-0.1
		c0.5,0,0.8,0,1.1,0.1c0,0,0,0,0,0c0,0,0.4,0.3,1,2.1c0.4,1.3,0.3,1.8,0.2,2c-1.4,0.2-2.1,0.3-2.4,0.3c-0.1-0.1-0.1-0.2-0.2-0.3
		c-0.1-0.1-0.3-0.6-0.7-2.3l-0.2-0.9l-0.9,0.1l-3.9,0.6l-1,0.2l0.2,1l0.5,2.6c1,4.2,3,6.3,6,6.3c0.5,0,1-0.1,1.5-0.2l5-0.8l0.2,0
		l0.2-0.1c1.5-1.1,2.3-2.3,2.3-3.6c0-1.1-0.3-2.9-1-5.4c-0.6-2.5-1.3-4.4-2-5.9c-1-2.1-2.5-2.7-3.5-2.8c-0.5,0-1-0.1-1.5-0.1
		c-0.7,0-1.5,0.1-2.1,0.2c-0.5,0.1-0.9,0.1-1.2,0.1c-0.3,0-0.5,0-0.5-0.1c-0.3-0.1-0.4-0.3-0.6-0.5c-0.1-0.2-0.4-0.6-0.8-1.8
		c-0.3-0.8-0.5-1.5-0.7-2c0,0,0,0,0,0c0.3-0.1,0.7-0.1,1.1-0.1c0.2,0,0.3,0,0.5,0c0.2,0,0.7,0.4,1.3,1.8l0.3,0.7l0.8-0.1l4.1-0.8
		l1.1-0.2l-0.4-1.1c-0.5-1.4-1-2.7-1.5-3.8c-0.5-1.3-1.3-2.3-2.2-2.9C410.9,223.8,410,223.6,408.9,223.6L408.9,223.6L408.9,223.6z"
		/>
	<path class="st1" d="M427.6,221.4c1.1,2.5,1.9,4.5,2.4,5.9l-4.7,0.8c1.1,2.8,2,5.1,2.6,6.9c0.6,1.8,1.2,3.5,1.7,5.2
		c0.5,1.7,1.4,4.8,2.5,9.2l-4.4,0.7c-1.4-5.1-2.6-9.3-3.6-12.5c-1-3.2-2.1-6.1-3.3-8.6l-3.9,0.6c-1.1-2.7-2-4.7-2.6-6l0.7-0.1
		L427.6,221.4 M428.2,220.3l-0.7,0.1l-12.5,2.1l-0.7,0.1l-1.3,0.2l0.5,1.2c0.6,1.2,1.4,3.2,2.6,5.9l0.3,0.7l0.8-0.1l3.2-0.5
		c1,2.3,2,5,2.9,7.9c1,3.2,2.2,7.4,3.6,12.5l0.2,0.8l0.9-0.1l4.4-0.7l1-0.2l-0.3-1c-1.1-4.5-2-7.6-2.5-9.3c-0.5-1.7-1.1-3.4-1.7-5.2
		c-0.5-1.5-1.3-3.4-2.2-5.8l3.5-0.6l1.2-0.2l-0.4-1.1c-0.6-1.4-1.4-3.4-2.5-5.9L428.2,220.3L428.2,220.3z"/>
	<path class="st1" d="M442.8,242.3l1.1,5.4l-3.9,0.6l-1-5.1l0-0.3L442.8,242.3 M443.6,241.2l-0.9,0.1l-3.8,0.6l-0.9,0.1l0.1,0.9
		l0,0.3l0,0l0,0l1,5.1l0.2,0.9l0.9-0.2l3.9-0.6l1-0.2l-0.2-1l-1.1-5.4L443.6,241.2L443.6,241.2z"/>
</g>
</svg>
